<svg width="150" height="150" viewBox="0 0 112 112" fill="none" xmlns="http://www.w3.org/2000/svg">
<path d="M96.8482 79.3778C96.8049 79.3781 96.7622 79.3677 96.7239 79.3476C96.6856 79.3275 96.6528 79.2983 96.6285 79.2625C96.6041 79.2268 96.5889 79.1856 96.5842 79.1426C96.5795 79.0996 96.5854 79.0561 96.6015 79.0159C96.701 78.8307 96.7469 78.6214 96.7341 78.4115C96.7213 78.2017 96.6503 77.9995 96.5291 77.8277C95.9991 77.7481 95.7279 78.6668 95.3554 78.5515C94.8888 78.4402 95.3437 77.6607 95.0364 77.3199C94.6082 76.8956 93.7491 78.0321 93.6745 79.1167C93.6687 79.1878 93.6349 79.2537 93.5806 79.2999C93.5262 79.3461 93.4558 79.3688 93.3847 79.3631C93.3135 79.3573 93.2476 79.3235 93.2014 79.2692C93.1552 79.2148 93.1325 79.1444 93.1383 79.0733C93.2908 76.762 95.464 75.8238 95.6739 77.6094C95.8062 77.4678 95.9745 77.3647 96.1608 77.3112C96.3471 77.2577 96.5444 77.2557 96.7318 77.3054C97.5302 77.6935 97.2958 79.3778 96.8482 79.3778Z" fill="#6DD3A8"/>
<path d="M84.7777 71.8867C76.8841 71.8867 76.8652 68.8722 84.7777 68.8722C92.6708 68.875 92.6903 71.8867 84.7777 71.8867ZM84.7777 69.4084C81.2271 69.4084 79.4013 70.0894 79.4013 70.3795C79.4013 70.6695 81.2271 71.3505 84.7777 71.3505C88.3284 71.3505 90.1535 70.669 90.1535 70.3795C90.1535 70.0899 88.3128 69.4084 84.7777 69.4084Z" fill="black"/>
<path d="M83.5602 70.7709C83.9906 70.742 83.8269 71.2631 84.284 71.2631C84.9416 71.2631 84.4449 70.1356 85.3976 70.1624C86.1058 70.2631 85.6821 70.8138 86.0351 71.0605C86.2127 71.1935 86.5296 71.1635 86.774 70.7559C86.8753 70.5967 86.9332 70.5098 87.1081 70.5098C87.4911 70.4753 87.6092 70.7598 87.6298 71.1473C87.6298 71.1618 87.6442 71.1908 87.6442 71.203C87.818 71.1741 87.9783 71.1596 88.137 71.1306C88.0891 69.8461 86.9366 69.6774 86.3553 70.4786C86.3351 70.254 86.2319 70.0449 86.0658 69.8922C85.8997 69.7395 85.6827 69.6542 85.4572 69.6529C85.1713 69.6183 84.8832 69.6977 84.6554 69.8739C84.4276 70.0501 84.2784 70.309 84.24 70.5944C83.8286 69.9474 82.612 70.3311 82.6749 71.247V71.2609C83.22 71.311 83.1821 71.3327 83.1821 71.2175C83.1836 71.1108 83.2222 71.0079 83.2911 70.9264C83.3601 70.845 83.4552 70.79 83.5602 70.7709Z" fill="#B26EE6"/>
<path d="M57.6661 97.7228C57.16 97.7228 51.3354 95.8793 51.3917 95.8971C51.336 95.8971 50.1472 95.626 50.2469 95.0419C50.297 94.6694 51.0821 94.1204 51.2324 93.8537C51.0654 93.631 50.3126 93.3454 50.6094 92.999C50.6581 92.9495 50.7231 92.9193 50.7924 92.914C50.8617 92.9087 50.9306 92.9286 50.9863 92.9701C51.2241 93.2078 51.7391 93.4211 51.7831 93.7958C51.8499 94.2206 51.076 94.7023 50.812 95.0708C51.1138 95.2524 57.3426 97.1577 57.6951 97.1577C58.0614 97.1599 58.0086 97.7228 57.6661 97.7228Z" fill="black"/>
<path d="M51.305 93.2309C52.3979 94.0772 51.3077 94.3923 50.8122 95.0861C51.369 95.4202 57.8556 97.2169 57.8979 97.2737C58.2581 96.8689 55.4803 93.6863 54.9419 93.0978C54.2181 92.3155 54.0438 92.0833 53.3484 92.6485C52.3322 93.2838 52.7287 93.5638 51.6964 92.7498C51.2671 92.3923 51.5293 92.5828 51.2036 92.953C51.0889 93.0705 51.0884 93.0633 51.305 93.2309Z" fill="#DCBEFF"/>
<path d="M50.5947 93.3182C50.4489 93.0626 50.7501 92.7057 51.102 93.0576C51.2139 92.9508 51.302 92.8215 51.3604 92.6783C51.4189 92.535 51.4464 92.381 51.4411 92.2264C51.4359 92.0718 51.398 91.92 51.3299 91.781C51.2619 91.6421 51.1652 91.5191 51.0463 91.4201L45.8125 87.0588C45.5891 86.8781 45.3036 86.7928 45.0177 86.8214C44.7319 86.8499 44.4688 86.99 44.2856 87.2112C44.1024 87.4325 44.0138 87.717 44.0391 88.0032C44.0643 88.2893 44.2014 88.554 44.4205 88.7397C49.5825 92.9285 49.8035 93.5827 50.5947 93.3182ZM44.7718 88.3333C44.6695 88.2359 44.6081 88.1034 44.5998 87.9625C44.5915 87.8215 44.6371 87.6827 44.7273 87.5741C44.8175 87.4655 44.9456 87.3953 45.0857 87.3775C45.2257 87.3598 45.3673 87.3959 45.4817 87.4786C50.509 91.6501 51.3364 91.9925 50.7852 92.6222C50.6894 92.733 50.5544 92.8024 50.4086 92.8159C50.2628 92.8294 50.1174 92.7859 50.0029 92.6946L44.7718 88.3333Z" fill="#FF8684"/>
<path d="M5.05114 90.9122C4.50047 91.1734 3.8919 91.4195 3.37019 91.0136C2.87743 90.6238 3.10905 89.9707 3.21039 89.449C3.67085 87.0498 6.29779 81.0504 8.61571 81.7981C11.2465 83.106 7.73765 89.7547 5.05114 90.9122Z" fill="black"/>
<path d="M77.0973 90.8126C76.3312 90.8126 77.6285 89.3577 76.8512 88.0737C76.794 87.9663 76.7136 87.8728 76.6159 87.8002C76.5181 87.7276 76.4055 87.6777 76.2861 87.6539C75.32 87.5654 75.3646 89.0776 74.56 88.929C73.8061 88.866 74.6625 86.9006 73.5166 86.4368C72.3601 86.174 71.7154 88.2385 71.011 87.8844C70.579 87.576 71.4565 84.6756 69.9676 85.6673C69.5617 85.9574 68.6202 86.9568 68.7794 90.0581C68.7736 90.125 68.7438 90.1876 68.6955 90.2343C68.6473 90.2809 68.5837 90.3086 68.5167 90.3121C68.4496 90.3157 68.3835 90.2948 68.3306 90.2535C68.2777 90.2121 68.2415 90.153 68.2287 90.0871C68.011 86.0225 69.7922 84.5854 70.8084 85.0008C71.7092 85.4557 71.3785 87.2753 71.388 87.16C71.4169 87.1166 71.4604 87.0877 71.4893 87.0442C71.9676 86.508 72.6775 85.6962 73.648 85.9306L73.6769 85.9451C74.9136 86.4217 74.7215 88.3627 74.7209 88.307C74.7638 88.2514 74.8072 88.1623 74.8512 88.1038C76.1463 85.9707 78.3991 87.6439 77.3434 90.6689C77.3181 90.7119 77.2822 90.7477 77.2391 90.7728C77.196 90.798 77.1472 90.8117 77.0973 90.8126ZM13.2674 101.099C14.1104 97.3048 17.2864 99.1327 18.3242 102.853C18.326 102.555 18.3979 102.263 18.5339 101.998C18.6699 101.734 18.8662 101.505 19.1071 101.331C19.9183 100.853 21.1672 101.302 21.3676 101.418C22.5992 102.055 23.1354 103.199 22.9756 104.823C22.9728 104.858 22.963 104.893 22.9469 104.924C22.9308 104.955 22.9087 104.983 22.8818 105.006C22.8549 105.029 22.8237 105.047 22.7901 105.057C22.7565 105.068 22.721 105.072 22.6858 105.069C22.6506 105.067 22.6163 105.057 22.5849 105.041C22.5535 105.025 22.5255 105.003 22.5026 104.976C22.4797 104.949 22.4624 104.918 22.4515 104.884C22.4407 104.85 22.4366 104.815 22.4395 104.78C22.5703 103.374 22.1499 102.432 21.121 101.911C20.9907 101.838 19.9473 101.476 19.3821 101.809C18.4033 102.418 19.2151 104.387 18.484 104.417C17.8203 104.448 18.0709 102.685 16.9913 101.128C16.4116 100.293 15.8866 99.4579 14.8755 99.5631C13.376 99.891 12.9334 105.17 15.4696 107.084C15.5263 107.127 15.564 107.19 15.575 107.26C15.5859 107.331 15.569 107.402 15.528 107.461C14.8086 108.179 12.4646 104.711 13.2674 101.099ZM108.122 91.7964C108.511 90.5793 108.266 89.6951 107.803 89.5359C106.666 89.1561 106.138 91.1444 105.585 91.1444C104.894 91.1444 105.314 89.1595 104.412 88.6946C103.887 88.4217 102.206 88.6389 102.166 91.7235C102.162 91.7928 102.131 91.8577 102.079 91.9046C102.028 91.9514 101.961 91.9766 101.891 91.9747C101.822 91.9728 101.756 91.9441 101.707 91.8945C101.658 91.845 101.631 91.7785 101.63 91.709C101.686 88.2074 103.83 87.7759 104.658 88.2313C105.723 88.7959 105.549 90.6812 105.731 90.3176C107.37 87.7697 109.559 89.0592 108.643 91.9551C108.62 92.022 108.572 92.0773 108.509 92.1095C108.447 92.1416 108.374 92.1481 108.306 92.1275C108.238 92.107 108.181 92.061 108.147 91.9992C108.113 91.9374 108.103 91.8647 108.122 91.7964ZM77.2137 80.0738C77.1615 80.0741 77.1103 80.0591 77.0665 80.0307C77.0226 80.0023 76.9881 79.9618 76.967 79.914C75.5968 76.899 76.8918 76.3182 78.2565 77.8132C78.6463 76.644 79.8428 76.6712 80.0539 78.1473C80.0635 78.2185 80.0444 78.2905 80.0008 78.3476C79.9573 78.4048 79.8929 78.4422 79.8217 78.4518C79.7505 78.4614 79.6784 78.4424 79.6213 78.3988C79.5642 78.3553 79.5267 78.2908 79.5171 78.2197C79.4403 77.5226 79.016 77.1568 78.7348 78.0749C78.5923 78.576 78.315 78.6027 78.1118 78.4229C78.0561 78.3672 77.9815 78.2781 77.8946 78.1907C76.5789 76.7876 76.6831 77.9853 77.4598 79.6835C77.4769 79.7252 77.4837 79.7705 77.4798 79.8155C77.4759 79.8604 77.4613 79.9038 77.4372 79.942C77.4131 79.9802 77.3803 80.012 77.3414 80.035C77.3025 80.0579 77.2587 80.0712 77.2137 80.0738ZM74.1268 26.6765C74.0754 26.6751 74.0255 26.6592 73.9826 26.6307C73.9398 26.6022 73.9059 26.5622 73.8848 26.5153C73.8636 26.4684 73.8561 26.4165 73.8631 26.3656C73.87 26.3146 73.8912 26.2667 73.9242 26.2272C75.0834 24.8942 80.3144 17.6921 79.7348 14.9683C79.369 13.3197 78.0945 14.4856 76.9815 15.7072C76.4603 16.2723 76.2282 16.5329 75.9381 16.4171C75.1029 16.0006 77.0661 14.4973 77.9091 11.867C78.4308 10.2439 78.4742 8.98337 78.0249 8.56355C76.7582 7.42993 67.859 13.3926 64.8529 23.5607C64.8337 23.6299 64.7878 23.6886 64.7253 23.7239C64.6628 23.7593 64.5889 23.7684 64.5197 23.7492C64.4505 23.73 64.3918 23.6841 64.3564 23.6216C64.3211 23.5591 64.312 23.4851 64.3312 23.4159C67.8318 11.4605 81.5199 2.1343 78.4019 12.0123C78.0328 13.0502 77.5362 14.0383 76.9236 14.9538C78.5901 13.2161 79.1736 13.6671 79.3 13.6203C79.5477 13.7282 79.7648 13.8958 79.9318 14.1083C80.0987 14.3207 80.2103 14.5713 80.2565 14.8375C80.9247 17.9527 74.5834 26.6765 74.1268 26.6765Z" fill="#6DD3A8"/>
<path d="M43.7407 81.6964C43.6791 81.6951 43.6198 81.6732 43.5721 81.6341C43.5245 81.5951 43.4913 81.5412 43.478 81.481C43.4646 81.4209 43.4718 81.358 43.4985 81.3025C43.5251 81.2469 43.5696 81.2019 43.6249 81.1747C46.7879 79.6911 50.1866 78.7741 53.6666 78.4654C54.925 78.3507 55.3927 78.2744 55.3927 78.6391C55.3942 78.7103 55.3678 78.7793 55.3191 78.8313C55.2704 78.8834 55.2033 78.9143 55.1321 78.9175C51.1907 79.0966 47.3218 80.0404 43.7407 81.6964ZM77.4165 82.2616C70.2022 78.3774 65.5429 79.3807 65.6215 78.5956C65.6237 78.5602 65.633 78.5257 65.6489 78.4939C65.6648 78.4622 65.6869 78.434 65.7139 78.4111C65.7409 78.3881 65.7723 78.3708 65.8062 78.3602C65.84 78.3497 65.8757 78.346 65.911 78.3495C70.0319 78.6506 74.0423 79.8211 77.6782 81.7838C77.7096 81.801 77.7372 81.8242 77.7596 81.8521C77.782 81.88 77.7987 81.912 77.8088 81.9463C77.8188 81.9806 77.822 82.0166 77.8181 82.0522C77.8142 82.0877 77.8034 82.1222 77.7862 82.1535C77.769 82.1849 77.7458 82.2126 77.7179 82.235C77.6901 82.2574 77.658 82.2741 77.6237 82.2841C77.5894 82.2941 77.5534 82.2973 77.5179 82.2934C77.4823 82.2896 77.4479 82.2787 77.4165 82.2616ZM70.0407 78.4798C69.984 78.478 69.9293 78.4588 69.884 78.4247C69.8387 78.3907 69.8051 78.3434 69.7877 78.2895C69.7702 78.2356 69.7699 78.1776 69.7867 78.1234C69.8035 78.0693 69.8366 78.0217 69.8815 77.9871C72.0932 76.3434 74.5828 75.1115 77.2311 74.3501C77.3003 74.3309 77.3742 74.34 77.4367 74.3753C77.4992 74.4107 77.5451 74.4694 77.5643 74.5386C77.5835 74.6078 77.5744 74.6818 77.5391 74.7442C77.5038 74.8067 77.445 74.8526 77.3758 74.8718C72.9338 76.1135 70.2918 78.4798 70.0407 78.4798ZM52.5508 81.1318C52.6545 81.1318 52.754 81.173 52.8274 81.2464C52.9007 81.3197 52.9419 81.4192 52.9419 81.523C52.9419 81.6267 52.9007 81.7262 52.8274 81.7996C52.754 81.8729 52.6545 81.9141 52.5508 81.9141C52.4471 81.9141 52.3476 81.8729 52.2742 81.7996C52.2009 81.7262 52.1597 81.6267 52.1597 81.523C52.1597 81.4192 52.2009 81.3197 52.2742 81.2464C52.3476 81.173 52.4471 81.1318 52.5508 81.1318ZM54.5797 83.001C54.5797 83.1048 54.5385 83.2043 54.4651 83.2777C54.3917 83.3512 54.2921 83.3924 54.1883 83.3924C54.0845 83.3924 53.9849 83.3512 53.9115 83.2777C53.8381 83.2043 53.7969 83.1048 53.7969 83.001C53.7969 82.8972 53.8381 82.7976 53.9115 82.7242C53.9849 82.6508 54.0845 82.6095 54.1883 82.6095C54.2921 82.6095 54.3917 82.6508 54.4651 82.7242C54.5385 82.7976 54.5797 82.8972 54.5797 83.001ZM55.7824 83.5227C55.8862 83.5227 55.9856 83.5639 56.059 83.6372C56.1323 83.7106 56.1736 83.8101 56.1736 83.9138C56.1736 84.0176 56.1323 84.1171 56.059 84.1904C55.9856 84.2638 55.8862 84.305 55.7824 84.305C55.6787 84.305 55.5792 84.2638 55.5058 84.1904C55.4325 84.1171 55.3913 84.0176 55.3913 83.9138C55.3913 83.8101 55.4325 83.7106 55.5058 83.6372C55.5792 83.5639 55.6787 83.5227 55.7824 83.5227ZM52.1599 82.6385C52.2637 82.6385 52.3632 82.6797 52.4365 82.7531C52.5099 82.8264 52.5511 82.9259 52.5511 83.0296C52.5511 83.1334 52.5099 83.2329 52.4365 83.3062C52.3632 83.3796 52.2637 83.4208 52.1599 83.4208C52.0562 83.4208 51.9567 83.3796 51.8834 83.3062C51.81 83.2329 51.7688 83.1334 51.7688 83.0296C51.7688 82.9259 51.81 82.8264 51.8834 82.7531C51.9567 82.6797 52.0562 82.6385 52.1599 82.6385ZM66.7952 82.0711C66.7952 82.1749 66.7539 82.2745 66.6805 82.3479C66.6071 82.4213 66.5076 82.4626 66.4037 82.4626C66.2999 82.4626 66.2004 82.4213 66.127 82.3479C66.0536 82.2745 66.0123 82.1749 66.0123 82.0711C66.0123 81.9673 66.0536 81.8678 66.127 81.7944C66.2004 81.7209 66.2999 81.6797 66.4037 81.6797C66.5076 81.6797 66.6071 81.7209 66.6805 81.7944C66.7539 81.8678 66.7952 81.9673 66.7952 82.0711ZM67.6933 80.6391C67.6933 80.7424 67.6522 80.8416 67.5791 80.9147C67.506 80.9877 67.4069 81.0288 67.3035 81.0288C67.2001 81.0288 67.101 80.9877 67.0279 80.9147C66.9548 80.8416 66.9138 80.7424 66.9138 80.6391C66.9138 80.5357 66.9548 80.4366 67.0279 80.3635C67.101 80.2904 67.2001 80.2493 67.3035 80.2493C67.4069 80.2493 67.506 80.2904 67.5791 80.3635C67.6522 80.4366 67.6933 80.5357 67.6933 80.6391ZM68.3597 81.2916C68.4635 81.2916 68.563 81.3328 68.6363 81.4062C68.7097 81.4795 68.7509 81.579 68.7509 81.6828C68.7509 81.7865 68.7097 81.886 68.6363 81.9594C68.563 82.0327 68.4635 82.0739 68.3597 82.0739C68.256 82.0739 68.1565 82.0327 68.0832 81.9594C68.0098 81.886 67.9686 81.7865 67.9686 81.6828C67.9686 81.579 68.0098 81.4795 68.0832 81.4062C68.1565 81.3328 68.256 81.2916 68.3597 81.2916ZM89.5161 79.7115C89.6198 79.7115 89.7193 79.7527 89.7927 79.826C89.866 79.8994 89.9072 79.9989 89.9072 80.1026C89.9072 80.2063 89.866 80.3058 89.7927 80.3792C89.7193 80.4525 89.6198 80.4937 89.5161 80.4937C89.4124 80.4937 89.3129 80.4525 89.2395 80.3792C89.1662 80.3058 89.125 80.2063 89.125 80.1026C89.125 79.9989 89.1662 79.8994 89.2395 79.826C89.3129 79.7527 89.4124 79.7115 89.5161 79.7115ZM90.8346 78.8568C90.8346 78.9605 90.7934 79.06 90.72 79.1334C90.6467 79.2067 90.5472 79.2479 90.4434 79.2479C90.3397 79.2479 90.2402 79.2067 90.1669 79.1334C90.0935 79.06 90.0523 78.9605 90.0523 78.8568C90.0523 78.753 90.0935 78.6536 90.1669 78.5802C90.2402 78.5068 90.3397 78.4656 90.4434 78.4656C90.5472 78.4656 90.6467 78.5068 90.72 78.5802C90.7934 78.6536 90.8346 78.753 90.8346 78.8568ZM91.2839 80.0299C91.2839 80.1337 91.2427 80.2333 91.1693 80.3067C91.0959 80.3801 90.9963 80.4214 90.8925 80.4214C90.7887 80.4214 90.6891 80.3801 90.6157 80.3067C90.5423 80.2333 90.5011 80.1337 90.5011 80.0299C90.5011 79.9261 90.5423 79.8266 90.6157 79.7532C90.6891 79.6798 90.7887 79.6385 90.8925 79.6385C90.9963 79.6385 91.0959 79.6798 91.1693 79.7532C91.2427 79.8266 91.2839 79.9261 91.2839 80.0299Z" fill="black"/>
<path d="M61.4627 80.8851C61.4292 80.8869 61.3957 80.8819 61.3642 80.8703C61.3327 80.8588 61.3038 80.841 61.2794 80.818C61.255 80.7949 61.2355 80.7672 61.2221 80.7364C61.2088 80.7057 61.2018 80.6725 61.2016 80.639C61.1278 79.6079 61.1764 78.5717 61.3464 77.5521C61.3588 77.4838 61.3976 77.423 61.4544 77.3831C61.5112 77.3431 61.5815 77.3271 61.65 77.3385C61.7185 77.3499 61.7798 77.3878 61.8206 77.444C61.8614 77.5003 61.8785 77.5703 61.8681 77.639C61.4488 80.4363 61.9972 80.8851 61.4627 80.8851ZM59.7673 78.9001H59.7239C59.6536 78.8887 59.5903 78.8507 59.5471 78.7941C59.5039 78.7374 59.4841 78.6664 59.4917 78.5955C60.1142 74.4447 59.5385 73.3934 60.1003 73.3934C60.1711 73.3927 60.2395 73.4195 60.2909 73.4682C60.3424 73.5169 60.3728 73.5838 60.3759 73.6546C60.3813 75.3317 60.2601 77.0068 60.0134 78.6657C60.0115 78.7293 59.9846 78.7896 59.9385 78.8335C59.8925 78.8774 59.8309 78.9013 59.7673 78.9001ZM60.2311 71.1023C60.1604 71.0956 60.0951 71.0616 60.049 71.0076C60.0029 70.9535 59.9798 70.8836 59.9845 70.8127C60.2495 68.2687 59.6532 67.6039 60.1726 67.5522C60.2435 67.5445 60.3145 67.5644 60.3712 67.6076C60.4279 67.6508 60.4658 67.714 60.4772 67.7843C60.6134 68.8078 60.628 69.8438 60.5206 70.8706C60.4911 71.1362 60.1749 71.1023 60.2311 71.1023ZM59.2601 68.3651C59.1895 68.3642 59.1219 68.337 59.0704 68.2887C59.0189 68.2405 58.9872 68.1748 58.9817 68.1045C58.916 66.9534 58.9598 65.7986 59.1125 64.6557C59.1173 64.6206 59.1289 64.5867 59.1468 64.556C59.1646 64.5253 59.1883 64.4985 59.2166 64.477C59.2448 64.4555 59.277 64.4397 59.3113 64.4307C59.3456 64.4216 59.3814 64.4194 59.4165 64.4241C59.4517 64.4289 59.4856 64.4405 59.5163 64.4583C59.5469 64.4762 59.5738 64.4999 59.5953 64.5281C59.6168 64.5564 59.6325 64.5886 59.6416 64.6229C59.6507 64.6572 59.6529 64.6929 59.6481 64.7281C59.2578 67.6162 59.7896 68.3651 59.2601 68.3651ZM64.2545 59.251C64.092 59.1632 63.9154 59.1044 63.7328 59.0773C62.9523 60.5137 62.2666 61.9996 61.6799 63.5255C60.9004 59.7153 61.6799 59.4815 60.6777 60.2365C60.7935 61.9893 61.1609 63.9893 61.3781 64.3083C62.088 65.1607 62.5741 61.9709 64.2545 59.251Z" fill="#DCBEFF"/>
<path d="M63.4767 77.1757C62.7089 72.6835 63.1343 65.3122 66.5107 61.5594C66.3488 61.4715 66.1979 61.3646 66.0614 61.2409C61.1616 66.7487 62.9745 77.6629 62.9433 77.2915C63.2173 78.4123 64.533 80.7748 64.6694 81.3488C63.4088 83.0008 61.9595 83.7831 60.3659 83.6673C59.2259 83.5726 58.157 83.0743 57.3515 82.262C57.1778 81.8121 57.3804 77.0743 57.8587 72.1763C58.1932 68.4922 58.1658 64.7843 57.7769 61.1056C57.59 61.0777 57.4058 61.0341 57.2262 60.9753C57.6286 64.677 57.6659 68.4093 57.3376 72.1184C57.0185 75.3928 56.5547 81.7976 56.8882 82.4791C57.2964 83.3321 61.5653 86.3237 65.1187 81.6823C65.5875 81.2041 63.8331 78.6712 63.4767 77.1757Z" fill="#DCBEFF"/>
<path d="M20.2952 45.9911C20.6349 45.7223 21.0168 45.5117 21.4255 45.368C21.9266 46.3752 22.9962 53.3379 28.7862 53.3379C29.4154 53.1386 31.6648 53.4726 32.7857 50.8323C33.1801 49.592 33.2833 48.2774 33.0872 46.9907C32.8912 45.704 32.4012 44.4798 31.6554 43.4131C34.8051 44.2232 36.2244 54.1725 36.6426 57.3819C36.8192 57.299 36.9888 57.202 37.1498 57.0918C36.657 53.3056 35.0852 42.7873 31.2868 42.7873C31.0986 42.8218 30.9973 42.9037 30.9767 43.0072C30.7762 43.6019 33.5802 46.7706 32.264 50.6124C31.7422 51.873 31.0323 52.5829 28.7562 52.7839C24.2646 52.6675 22.9021 48.2483 22.2501 46.118C21.7389 44.4476 21.5858 44.8424 21.4967 44.7561C20.8839 44.9515 20.3135 45.2611 19.8158 45.6687C19.9852 45.7611 20.1457 45.869 20.2952 45.9911Z" fill="#FEE992"/>
<path d="M15.6875 36.7761C18.2354 36.7761 18.5004 40.6308 15.6875 40.6308C12.805 40.6308 13.1357 36.7761 15.6875 36.7761Z" fill="#FFD35C"/>
<path d="M38.0167 67.6986C38 67.0611 37.9611 66.0471 37.872 64.7571C37.6982 64.8439 37.524 64.9169 37.3503 64.9892C37.4984 66.8013 37.537 68.6207 37.4661 70.4374C29.6415 72.2921 24.0625 72.4224 20.7585 72.1908C16.9044 71.9302 15.0352 71.1329 14.8175 70.9012C14.6004 70.0894 15.1516 61.3245 15.5413 58.9754C15.3958 58.6402 15.2699 58.2968 15.1644 57.947C14.7607 59.5617 13.9472 70.3806 14.3381 71.1473C14.4255 71.3361 14.8743 71.5967 15.7006 71.8712C15.7359 71.8419 15.7781 71.8221 15.8231 71.8137C15.8682 71.8052 15.9147 71.8084 15.9582 71.8229C16.0017 71.8374 16.0408 71.8627 16.0718 71.8965C16.1028 71.9302 16.1247 71.9714 16.1354 72.0159C23.4878 74.1061 33.5073 71.703 37.8274 70.9146C38.1721 70.5538 38.0345 68.4157 38.0167 67.6986Z" fill="#FEE992"/>
<path d="M40.8135 79.8271C39.9182 76.9719 38.3636 74.4369 36.9588 71.8283C36.7851 71.5098 36.6665 71.2715 36.4199 71.1847C21.4801 74.2982 16.1527 71.6741 16.1527 72.1184C16.0508 73.8444 16.8648 79.3567 20.9077 84.2982C23.568 87.7475 23.5613 87.3711 23.4244 87.7202C22.6861 87.8249 16.2579 84.0421 12.1661 85.0047C12.0792 85.0337 11.8632 85.1016 11.8053 85.0437C11.3607 85.2257 10.9636 85.507 10.6444 85.8661C10.3253 86.2251 10.0925 86.6524 9.96384 87.1153C9.8352 87.5781 9.81414 88.0643 9.90227 88.5365C9.99041 89.0088 10.1854 89.4546 10.4723 89.8399C14.6482 95.0019 27.9873 98.5503 33.1337 97.635C36.4666 96.8811 35.7706 92.2157 35.8141 92.2297C35.1416 86.5511 33.1736 81.1029 30.0619 76.3055C30.027 76.2441 30.0172 76.1717 30.0345 76.1034C30.0518 76.035 30.0949 75.976 30.1547 75.9386C30.2145 75.9012 30.2864 75.8884 30.3554 75.9028C30.4245 75.9172 30.4853 75.9577 30.5251 76.0159C36.0178 84.6818 36.3775 92.4023 36.3647 92.3466C39.5596 93.0086 41.7444 92.4184 42.0306 89.1005C42.2099 85.9604 41.797 82.8146 40.8135 79.8271ZM25.5574 75.1033C24.8531 76.948 23.279 78.0053 21.3843 78.4073C20.9656 78.4073 20.9773 77.929 21.2679 77.8711C22.6349 77.6263 23.8518 76.8566 24.6588 75.7264C25.097 75.0499 25.0212 74.6045 25.3976 74.7559C25.4313 74.7676 25.4623 74.7861 25.4886 74.8101C25.515 74.8342 25.5362 74.8634 25.5509 74.8958C25.5656 74.9283 25.5736 74.9635 25.5743 74.9992C25.5751 75.0348 25.5686 75.0703 25.5552 75.1033H25.5574Z" fill="#DCBEFF"/>
<path d="M89.3859 76.1468C87.4058 76.0608 85.5036 75.3506 83.9516 74.1178C83.9224 74.0972 83.8976 74.0709 83.8787 74.0405C83.8597 74.0101 83.847 73.9763 83.8413 73.941C83.8356 73.9056 83.8369 73.8695 83.8453 73.8347C83.8537 73.7999 83.8689 73.7672 83.8901 73.7383C83.9113 73.7095 83.938 73.6851 83.9687 73.6667C83.9994 73.6483 84.0335 73.6362 84.0689 73.6311C84.1043 73.626 84.1404 73.628 84.1751 73.637C84.2097 73.646 84.2422 73.6618 84.2707 73.6835C85.2729 74.4369 87.2272 75.7398 89.5312 75.6819C89.9086 74.2129 90.1986 72.723 90.3998 71.2197C88.8224 72.5265 80.7351 72.5276 79.1527 71.2197C79.1183 71.4397 79.1433 71.6647 79.225 71.8717C81.2039 79.4018 80.7495 78.8394 82.0363 79.2331C83.9952 79.8842 86.1032 79.9396 88.0936 79.3923C88.3213 79.3462 88.5284 79.2286 88.6848 79.0567C88.8411 78.8847 88.9385 78.6674 88.9627 78.4363C89.5062 75.8294 89.4694 76.1468 89.3859 76.1468Z" fill="#FF8684"/>
<path d="M43.799 49.093C41.2305 51.0061 39.456 52.1798 36.3508 52.1798C36.3797 52.3536 36.4232 52.5418 36.4521 52.7155C39.5183 52.7155 41.4966 51.4694 43.9871 49.6147C43.9093 49.4466 43.8464 49.2721 43.799 49.093Z" fill="black"/>
<path d="M80.6189 43.5143H80.5026C79.9374 43.5143 79.8344 43.2532 80.0103 42.746C81.7069 37.8462 86.0237 30.5617 81.6763 26.4443C78.7091 23.618 75.6073 26.3329 74.5137 26.3329C74.4263 26.4343 74.3767 26.4794 74.3188 26.5373C74.2961 26.5613 74.2689 26.5806 74.2388 26.5941C74.2086 26.6076 74.1761 26.615 74.143 26.616C74.11 26.6169 74.0771 26.6113 74.0462 26.5995C74.0153 26.5877 73.9871 26.57 73.9631 26.5473C73.939 26.5246 73.9197 26.4974 73.9062 26.4672C73.8927 26.437 73.8853 26.4045 73.8844 26.3715C73.8834 26.3384 73.889 26.3055 73.9008 26.2746C73.9126 26.2438 73.9303 26.2155 73.953 26.1915C74.3166 25.7678 74.2409 25.8457 74.1991 25.515C74.1578 24.6635 73.9469 23.8288 73.5787 23.0599C73.2105 22.291 72.6924 21.6033 72.0549 21.0373C69.8111 18.9772 67.217 20.363 65.2588 22.6603C64.9302 23.0434 65.0021 22.9515 64.8239 23.5295C64.8176 23.5631 64.8045 23.5951 64.7854 23.6235C64.7664 23.6519 64.7418 23.6762 64.7131 23.6948C64.6844 23.7135 64.6522 23.7261 64.6185 23.732C64.5848 23.7379 64.5503 23.7369 64.517 23.7291C64.4837 23.7212 64.4523 23.7068 64.4248 23.6865C64.3972 23.6662 64.3741 23.6405 64.3567 23.6111C64.3393 23.5816 64.3281 23.5489 64.3237 23.515C64.3193 23.4811 64.3219 23.4466 64.3311 23.4137C64.5349 22.701 64.5578 22.9855 64.4982 22.4577C63.7899 17.8519 62.634 9.39313 58.6357 11.7923C55.3106 13.7806 56.2232 18.4014 55.6074 19.0523C55.0327 19.6264 55.0884 15.1938 53.0567 7.87978C51.8874 3.56688 49.3223 2.81856 48.0868 4.95273C46.1013 7.8653 45.7828 18.7188 45.8697 20.0974C46.0289 22.7784 46.1592 25.4593 46.3914 28.1252C46.7639 32.5289 47.8167 35.6319 47.5651 36.1675C47.0255 36.5328 41.8986 36.0767 45.0111 44.5851C45.9242 43.962 47.1998 44.0216 48.8084 44.7176C50.8368 45.5867 52.0857 47.4035 52.7377 48.3595C52.7087 48.1858 52.5784 47.673 52.5495 47.4993C52.1597 45.4848 51.5472 42.3596 53.1569 41.6931C54.6046 40.8958 56.0778 43.1218 56.9759 44.629C57.787 45.8759 58.2728 47.306 58.3891 48.7888C58.3884 48.8583 58.3608 48.9248 58.3121 48.9743C58.2634 49.0239 58.1974 49.0526 58.128 49.0545C58.0585 49.0564 57.991 49.0312 57.9397 48.9844C57.8884 48.9375 57.8573 48.8726 57.8529 48.8033C57.8006 47.3952 57.4025 46.0217 56.6937 44.8039C54.3691 40.9514 53.2622 41.8807 53.3178 41.9203C52.1007 42.413 52.7527 45.7621 53.0712 47.3829C53.3034 48.6001 53.3613 48.8902 53.1001 49.0204C52.3279 49.4252 51.6959 46.2688 48.5645 44.9197C47.5127 44.4626 45.8496 44.0845 45.0723 44.864C47.0256 49.9904 49.2126 53.3077 53.1274 57.5822C57.2014 59.938 57.5556 59.463 57.3512 59.9207C57.2833 60.0794 57.2543 60.1334 57.1719 60.0922C57.1285 60.0777 55.8824 59.5416 54.158 58.6145C54.5784 59.0633 55.0133 59.5126 55.4331 59.9475C57.2009 61.7732 59.6647 61.6284 61.4464 59.904C61.7391 59.65 62.0862 59.4666 62.4609 59.3678C65.7543 58.2119 64.6914 63.0983 68.8946 61.7732C77.7236 58.9987 88.257 43.9531 80.6189 43.5143ZM54.7098 30.6759C54.2484 30.6759 53.7973 30.5391 53.4137 30.2827C53.03 30.0264 52.731 29.662 52.5544 29.2357C52.3779 28.8094 52.3317 28.3403 52.4217 27.8878C52.5117 27.4352 52.7339 27.0196 53.0602 26.6933C53.3864 26.367 53.8021 26.1448 54.2547 26.0548C54.7072 25.9648 55.1763 26.011 55.6026 26.1876C56.0289 26.3641 56.3932 26.6632 56.6496 27.0468C56.9059 27.4305 57.0428 27.8815 57.0428 28.3429C57.0429 28.6493 56.9827 28.9528 56.8655 29.2359C56.7483 29.519 56.5764 29.7762 56.3598 29.9929C56.1431 30.2096 55.8859 30.3814 55.6028 30.4986C55.3197 30.6158 55.0162 30.676 54.7098 30.6759ZM68.4904 55.7153C67.9515 55.7154 67.4247 55.5557 66.9766 55.2564C66.5285 54.9571 66.1793 54.5317 65.973 54.0339C65.7667 53.5361 65.7127 52.9883 65.8177 52.4598C65.9228 51.9312 66.1822 51.4458 66.5632 51.0647C66.9442 50.6836 67.4296 50.4241 67.9581 50.3189C68.4866 50.2138 69.0344 50.2677 69.5323 50.4739C70.0301 50.6801 70.4556 51.0292 70.755 51.4773C71.0544 51.9253 71.2142 52.4521 71.2142 52.9909C71.2146 53.3487 71.1445 53.7031 71.0078 54.0338C70.8711 54.3644 70.6706 54.6649 70.4176 54.9179C70.1647 55.171 69.8643 55.3717 69.5337 55.5085C69.2031 55.6453 68.8487 55.7156 68.4909 55.7153H68.4904ZM76.6752 36.8919C76.1363 36.892 75.6095 36.7323 75.1614 36.433C74.7133 36.1337 74.364 35.7082 74.1577 35.2103C73.9515 34.7125 73.8975 34.1647 74.0026 33.6361C74.1077 33.1076 74.3672 32.6221 74.7482 32.2411C75.1292 31.86 75.6147 31.6006 76.1433 31.4955C76.6718 31.3904 77.2196 31.4444 77.7175 31.6506C78.2153 31.8569 78.6408 32.2062 78.9401 32.6543C79.2394 33.1024 79.3991 33.6292 79.399 34.1681C79.3994 34.5258 79.3292 34.8801 79.1925 35.2107C79.0557 35.5413 78.8552 35.8417 78.6022 36.0947C78.3493 36.3477 78.0489 36.5483 77.7184 36.6851C77.3878 36.8219 77.0335 36.8922 76.6757 36.8919H76.6752Z" fill="#ACEAC7"/>
<path d="M36.4087 33.3853C36.5541 33.255 36.7133 33.1392 36.8581 32.9955C37.3483 32.5752 37.7461 32.0578 38.0264 31.476C38.3067 30.8942 38.4633 30.2606 38.4865 29.6153C38.5097 28.9699 38.3988 28.3268 38.161 27.7264C37.9232 27.126 37.5635 26.5814 37.1047 26.127C35.5157 24.3864 33.9689 24.8163 34.6844 23.5473C36.5875 20.1882 32.0329 17.9655 28.1799 17.8809C23.8041 17.7372 16.3415 18.4895 13.4289 21.735C11.9027 23.3903 12.1884 24.9644 12.9941 26.7778C13.048 26.8507 13.0829 26.9358 13.0956 27.0255C13.1082 27.1152 13.0983 27.2067 13.0667 27.2916C13.035 27.3765 12.9827 27.4521 12.9144 27.5117C12.8461 27.5712 12.764 27.6128 12.6756 27.6325C8.2992 30.1381 8.37159 37.0979 11.5453 39.79C11.6022 39.8253 11.6507 39.8726 11.6874 39.9286C11.7241 39.9846 11.7481 40.0479 11.7577 40.1142C11.7674 40.1804 11.7625 40.248 11.7433 40.3121C11.7241 40.3762 11.6911 40.4354 11.6466 40.4855C10.2112 43.0122 11.6566 46.4503 16.5586 46.6731C17.3381 45.8936 18.7685 45.2126 19.8047 45.6708C20.3225 45.3101 20.8886 45.0243 21.4862 44.8217C21.5419 44.8429 21.6972 44.8045 21.8025 44.9626C22.3036 44.4136 24.8091 44.2828 24.9021 43.878C24.8889 43.1921 24.6613 42.5276 24.2512 41.9777C24.1956 41.9576 19.4022 42.089 17.4267 39.4565C17.2487 39.8612 16.9372 40.1926 16.5442 40.3951C16.1512 40.5976 15.7006 40.659 15.2678 40.569C14.8349 40.479 14.4461 40.2431 14.1664 39.9007C13.8867 39.5583 13.7331 39.1302 13.7312 38.6881C13.7294 38.4019 13.7924 38.119 13.9154 37.8606C14.0385 37.6022 14.2184 37.375 14.4417 37.1959C13.949 36.8335 14.0119 36.2383 14.0119 35.1804C14.0665 34.6546 14.2874 34.1599 14.6425 33.7682C14.9975 33.3766 15.4683 33.1085 15.9862 33.0028C15.9862 33.0028 16.5714 27.343 24.1789 26.2417C29.3013 25.7294 33.8113 28.5011 33.7863 34.6603C33.5552 39.1653 28.7701 41.0473 28.7145 41.094C29.0196 42.5016 29.0452 43.344 29.95 43.1425C30.2545 43.0667 31.0986 42.9197 30.9355 43.0868C31.0407 42.7716 31.3954 42.7783 31.7195 42.8591C36.7456 41.3964 38.0841 36.7015 36.2785 34.6915C35.6844 34.0228 35.6994 34.0234 36.4087 33.3853Z" fill="#B26EE6"/>
<path d="M43.195 61.5811C45.4294 60.8757 47.8721 60.6902 47.6822 59.5967C47.5369 58.7615 44.0113 59.8807 44.3203 58.7999C44.5018 58.3161 46.3726 57.7626 46.7273 57.6663C48.4812 57.0616 47.8058 55.9909 47.4923 55.9592C46.0803 55.7576 44.3498 57.4369 43.7835 56.8423C43.205 56.2649 44.6861 55.8339 45.8882 54.8117C46.6059 54.2242 46.0051 53.0216 45.1377 53.369C43.8409 53.8323 42.0235 56.7983 41.0731 56.3863C40.3838 56.0422 41.263 55.2125 41.3821 54.9147C41.9417 53.5149 40.2323 52.4347 38.9835 55.4002C38.4078 56.662 37.3561 57.6447 36.0581 58.1335C33.5948 58.9592 31.047 59.8289 28.2185 59.0895C19.8583 56.9258 23.1294 44.1731 18.1912 46.2221C14.238 47.8618 14.5615 55.7109 16.1049 58.9725C18.3928 63.1151 23.5192 66.2203 27.9306 66.3483C36.0709 66.585 39.1989 62.8122 43.195 61.5811Z" fill="#FF9F48"/>
<path d="M47.9284 54.5417C46.1751 53.0779 44.6829 51.4114 43.9752 49.6291C41.4869 51.4793 39.5075 52.7282 36.4379 52.7282C36.713 54.1625 36.9446 55.6408 37.1334 57.0751C37.716 56.6625 38.1804 56.1044 38.4802 55.4565C40.1684 51.9014 42.2001 53.1653 41.4579 55.0951C41.3627 55.349 41.2202 55.8507 41.0754 56.1758C42.2631 55.6809 43.5142 53.726 44.9017 53.2555C46.4462 52.7405 46.9061 54.1809 45.7848 55.1246C42.1706 58.05 45.5771 55.8646 46.1456 55.7031L46.1968 55.8601C46.8514 55.5329 47.4388 55.0857 47.9284 54.5417ZM31.0037 42.9493C30.2993 42.8613 29.4781 43.3736 29.2358 42.8624C29.0367 42.2945 28.8769 41.7135 28.7576 41.1236C32.1067 39.6164 33.7074 37.0507 33.8294 34.6899C33.8516 28.578 29.3116 25.4533 24.1663 25.9683C16.5589 27.0819 15.644 32.8202 15.644 32.8202C15.644 32.8202 13.7454 33.3419 13.5839 35.1821C13.5574 35.57 13.6253 35.9585 13.7818 36.3144C13.9383 36.6703 14.1788 36.9829 14.4826 37.2255C14.8193 36.955 15.2368 36.8049 15.6687 36.7994C16.1006 36.7939 16.5219 36.9331 16.8654 37.1949C17.2089 37.4567 17.4548 37.826 17.5639 38.2439C17.6731 38.6618 17.6391 39.1042 17.4675 39.5005C19.4408 42.1319 24.237 42.0016 24.2927 42.0217C24.4885 42.3249 24.6169 42.6667 24.6691 43.0239C24.8483 44.1375 24.8918 43.7271 22.6696 44.5161C22.348 44.5943 22.0498 44.7484 21.7999 44.9654C22.4825 45.848 23.1435 52.6725 28.772 52.8173C31.0471 52.6285 31.757 51.9042 32.2798 50.6458C33.8032 46.2416 30.5276 43.4248 31.0037 42.9493ZM25.5699 35.588C25.8071 34.7829 26.9424 35.5084 28.8734 34.2695C29.2075 34.054 30.159 33.0535 30.3372 34.2405C30.3901 34.5884 30.3657 34.9436 30.2657 35.2809C30.1657 35.6183 29.9926 35.9294 29.7587 36.1923C29.5248 36.4551 29.2358 36.6631 28.9124 36.8016C28.5889 36.94 28.2389 37.0055 27.8873 36.9933C26.5092 37.1242 25.4452 36.01 25.5699 35.588Z" fill="#FF9F48"/>
<path d="M46.7546 57.9903C47.6794 57.6524 48.5803 57.0995 48.2022 56.193C47.7852 55.1507 47.0157 56.129 48.3325 54.889C47.7201 54.4001 48.2084 54.4001 46.7384 55.5571C44.7563 55.83 42.7134 57.7398 46.043 55.1674C47.1527 54.2621 46.4522 52.5722 44.8838 53.095C43.6995 53.4976 42.0336 55.698 41.1889 55.9786C41.2914 55.7476 41.6043 55.3105 41.6666 55.124C42.3348 53.3851 40.6711 52.4241 39.4645 53.7615C39.0585 54.2826 38.7183 54.8519 38.4517 55.4564C38.2167 55.996 37.8603 56.4741 37.4104 56.8537C36.9605 57.2332 36.4292 57.5038 35.8576 57.6446C33.3521 58.4848 30.9891 59.2821 28.3232 58.5866C27.0556 58.3217 25.8866 57.7097 24.9468 56.8188C20.9663 52.7726 22.5559 43.9687 17.9769 45.7454C13.6211 47.4636 13.9736 55.7437 15.615 59.2509C16.4938 60.8458 17.6871 62.2458 19.1228 63.3661C23.0593 66.4641 26.4212 66.8277 30.7597 66.5688C34.7157 66.3177 37.337 65.1211 40.3365 63.4508C41.7362 62.4824 43.3272 61.8252 45.0024 61.5237C46.45 61.1941 48.3943 60.9062 48.1616 59.5092C47.9667 58.3606 46.1232 58.7993 45.0168 58.7993C45.561 58.4599 46.1445 58.1882 46.7546 57.9903ZM44.3203 58.8016C43.9929 59.9474 47.5291 58.7203 47.6822 59.5983C47.8593 60.6184 45.8448 60.6869 43.2334 61.4246C39.6772 62.5042 36.9584 66.4775 27.8304 66.09C25.4382 65.9909 23.11 65.2878 21.0628 64.0463C19.0155 62.8048 17.3159 61.0653 16.1222 58.9898C14.659 55.8968 14.0972 47.8612 18.2085 46.2393C22.9117 44.3156 19.3906 56.8183 28.2357 59.1072C31.047 59.8461 33.6121 58.9909 36.0753 58.1507C36.7285 58.0082 37.3368 57.7079 37.8471 57.276C38.3574 56.844 38.754 56.2936 39.0024 55.673C40.4606 52.2086 42.0091 53.9358 41.0308 55.2381C40.062 56.7242 41.2451 57.3194 43.4946 54.7888C43.9301 54.2687 44.4806 53.8569 45.1026 53.5861C46.0553 53.2398 46.4066 54.1713 45.7401 54.7164C44.6148 55.673 43.0074 56.4168 43.5959 57.0059C44.1377 57.5744 47.278 55.2058 47.7111 56.3973C48.1711 57.4708 44.7128 57.7548 44.3203 58.8016ZM23.3237 87.8983C22.959 87.8983 15.9786 84.1739 12.0359 85.1016C11.7019 85.1678 10.8177 84.2302 14.3104 84.493C14.4213 84.505 14.5329 84.5099 14.6445 84.5075C17.1367 84.6528 20.9479 86.2892 22.6433 87.0286C22.0361 86.1909 21.413 85.3648 20.7742 84.5509C16.3678 79.1712 14.8472 71.723 15.8906 71.8288C15.926 71.8309 15.9607 71.8402 15.9925 71.8561C16.0242 71.8719 16.0525 71.894 16.0755 71.9211C16.0986 71.9481 16.1159 71.9795 16.1265 72.0134C16.1371 72.0473 16.1408 72.083 16.1373 72.1183C16.0354 73.8444 17.1512 79.2909 21.194 84.2324C23.8544 87.6812 23.6645 87.5202 23.527 87.8694L23.3677 87.8983C23.3527 87.8838 23.3382 87.8983 23.3237 87.8983ZM20.2085 33.5884C20.1722 33.5868 20.1366 33.578 20.1038 33.5625C20.0709 33.5469 20.0415 33.525 20.0172 33.4981C19.9929 33.4711 19.9742 33.4395 19.9622 33.4052C19.9502 33.3709 19.9452 33.3346 19.9474 33.2984C20.0078 32.5998 20.2662 31.933 20.6923 31.3761C21.1183 30.8192 21.6943 30.3953 22.3527 30.1542C22.6495 30.0222 22.9535 30.4621 22.527 30.6759C21.9683 30.8803 21.4794 31.2395 21.1176 31.7117C20.7557 32.1838 20.5358 32.7492 20.4836 33.3418C20.4758 33.4094 20.4435 33.4719 20.3928 33.5173C20.3422 33.5628 20.2766 33.5881 20.2085 33.5884ZM31.1778 29.2872C30.4856 28.9504 29.7081 28.8294 28.9462 28.9398C28.9109 28.9453 28.8748 28.9436 28.8401 28.9348C28.8055 28.926 28.7729 28.9102 28.7445 28.8886C28.716 28.8669 28.6923 28.8397 28.6746 28.8086C28.6569 28.7775 28.6457 28.7431 28.6416 28.7076C28.5776 28.0656 30.5119 28.3524 31.3226 28.7945C31.3752 28.8232 31.4165 28.8692 31.4394 28.9246C31.4623 28.98 31.4656 29.0416 31.4487 29.0992C31.4318 29.1567 31.3957 29.2068 31.3464 29.241C31.2972 29.2752 31.2377 29.2915 31.1778 29.2872ZM16.9914 35.805C16.6478 34.8189 15.3538 34.5673 14.4413 34.9793C14.3803 35.0097 14.3336 35.0625 14.3108 35.1266C14.288 35.1907 14.291 35.2612 14.3192 35.3232C14.3473 35.3851 14.3984 35.4338 14.4617 35.4589C14.5249 35.4839 14.5955 35.4835 14.6584 35.4576C14.9004 35.3527 15.1627 35.3032 15.4262 35.3128C15.3095 35.5526 15.222 35.8055 15.1657 36.0662C15.1044 36.3729 15.4819 36.418 15.4262 36.3846C15.757 36.3846 15.605 36.1257 15.9624 35.4431C16.0181 35.4938 16.3722 35.638 16.4697 35.9793C16.5002 36.0382 16.5508 36.0843 16.6122 36.1092C16.6737 36.1341 16.7421 36.1363 16.805 36.1152C16.868 36.0942 16.9213 36.0514 16.9555 35.9945C16.9896 35.9377 17.0024 35.8705 16.9914 35.805ZM23.3961 35.6168C22.3505 35.6168 21.5587 33.8351 22.2224 33.7766C22.2578 33.773 22.2935 33.7765 22.3275 33.787C22.3614 33.7975 22.3929 33.8148 22.42 33.8378C22.4471 33.8608 22.4693 33.889 22.4852 33.9208C22.5011 33.9526 22.5104 33.9873 22.5125 34.0227C22.6795 35.5817 24.4724 35.3067 24.0771 33.6887C24.0633 33.6201 24.0769 33.5488 24.1151 33.4902C24.1532 33.4315 24.2129 33.3902 24.2812 33.3751C24.3495 33.3599 24.421 33.3721 24.4804 33.4091C24.5398 33.4461 24.5823 33.5049 24.5988 33.5728C24.9095 34.8301 24.1305 35.6168 23.3961 35.6168ZM30.7285 32.6029C29.6272 32.6029 28.9072 30.8212 29.5548 30.7655C29.5901 30.7618 29.6258 30.7654 29.6597 30.7759C29.6937 30.7864 29.7251 30.8037 29.7522 30.8267C29.7792 30.8497 29.8013 30.8779 29.8172 30.9097C29.833 30.9415 29.8422 30.9762 29.8443 31.0116C30.0113 32.5706 31.8048 32.2956 31.4094 30.6775C31.4018 30.6433 31.401 30.6079 31.407 30.5733C31.4131 30.5387 31.4259 30.5057 31.4447 30.476C31.4635 30.4464 31.488 30.4208 31.5167 30.4006C31.5454 30.3805 31.5779 30.3661 31.6121 30.3585C32.3048 30.2182 32.2018 32.6029 30.7285 32.6029Z" fill="black"/>
<path d="M89.3858 76.1468C87.4057 76.0608 85.5035 75.3506 83.9515 74.1178C83.9223 74.0971 83.8975 74.0709 83.8786 74.0405C83.8596 74.0101 83.8469 73.9763 83.8412 73.941C83.8355 73.9056 83.8368 73.8695 83.8452 73.8347C83.8536 73.7999 83.8688 73.7671 83.89 73.7383C83.9112 73.7094 83.9379 73.6851 83.9686 73.6667C83.9993 73.6483 84.0334 73.6362 84.0688 73.6311C84.1042 73.626 84.1403 73.628 84.175 73.637C84.2096 73.646 84.2421 73.6618 84.2706 73.6835C87.5835 76.203 91.28 75.9497 91.7911 74.654C91.8693 74.3373 91.8679 74.0061 91.7869 73.6901C91.706 73.374 91.5481 73.083 91.3273 72.8428C91.2805 72.7904 91.2558 72.7219 91.2585 72.6516C91.2612 72.5814 91.2911 72.515 91.3418 72.4664C91.9626 71.9229 94.2148 76.1468 89.3858 76.1468Z" fill="#B26EE6"/>
<path d="M57.2746 60.1491C56.8709 60.1491 44.6594 54.6062 43.6249 48.3975C43.4946 47.6152 43.4656 45.3546 44.871 44.3691C45.7841 43.7316 47.175 43.775 48.7835 44.4559C50.8119 45.3257 52.0001 47.0935 52.6521 48.0495C52.3548 46.2677 51.298 42.2182 53.1014 41.471C54.5491 40.6742 56.2607 43.0651 57.1588 44.5718C57.913 45.864 58.3361 47.3226 58.3904 48.8178C58.3897 48.8873 58.3621 48.9538 58.3134 49.0034C58.2647 49.0529 58.1987 49.0816 58.1293 49.0835C58.0598 49.0854 57.9924 49.0603 57.9411 49.0134C57.8898 48.9666 57.8586 48.9016 57.8542 48.8323C57.8022 47.4242 57.404 46.0506 56.695 44.8329C54.3704 40.9799 53.2629 41.9097 53.3191 41.9493C52.1014 42.442 52.754 45.7911 53.0725 47.4125C53.3041 48.6291 53.3626 48.9192 53.1014 49.0495C52.3292 49.4543 51.6972 46.2972 48.5658 44.9487C47.1315 44.3257 45.9289 44.2806 45.175 44.8039C44.0013 45.6152 44.0452 47.6586 44.1466 48.3117C45.1605 54.369 57.2456 59.5856 57.3759 59.643C57.4325 59.666 57.4792 59.7081 57.5082 59.7619C57.5371 59.8158 57.5463 59.878 57.5343 59.9379C57.5223 59.9978 57.4898 60.0516 57.4424 60.0902C57.395 60.1287 57.3357 60.1495 57.2746 60.1491ZM74.75 47.1224C75.3408 45.5823 76.5874 38.9643 74.765 38.9643C72.3107 39.0061 72.5585 44.8752 71.6927 44.6592C71.0345 44.4838 72.7506 33.9031 69.9666 31.7188C68.2539 30.3608 64.2545 32.8836 66.75 45.5718C66.8447 46.0005 66.9844 46.466 66.6487 46.4994C66.3113 46.5667 66.3447 46.1976 66.2283 45.6731C65.6342 42.6592 63.8369 33.4721 68.2278 30.9944C68.5718 30.8666 68.942 30.8251 69.3059 30.8736C69.6697 30.9222 70.0161 31.0592 70.3146 31.2728C72.2706 32.8085 72.2851 38.1119 72.1403 41.5896C72.5607 40.0395 73.2996 38.4309 74.7773 38.402C77.3764 38.3123 75.9499 45.6046 75.2845 47.2844C75.2739 47.3195 75.2564 47.3522 75.2332 47.3805C75.2099 47.4089 75.1813 47.4324 75.149 47.4497C75.1166 47.467 75.0812 47.4777 75.0447 47.4813C75.0082 47.4849 74.9713 47.4813 74.9362 47.4707C74.9011 47.46 74.8685 47.4426 74.8401 47.4193C74.8118 47.3961 74.7883 47.3675 74.771 47.3351C74.7537 47.3028 74.7429 47.2674 74.7393 47.2309C74.7357 47.1944 74.7394 47.1575 74.75 47.1224ZM50.0441 24.5607C48.0653 24.5607 45.1059 14.7946 47.6243 13.867C49.2117 13.3536 50.1026 16.22 50.6961 17.6053C50.6404 16.6632 50.6237 15.2579 51.6382 14.9244C53.4472 14.3926 54.4533 19.0958 53.4494 18.8948C53.3803 18.8795 53.32 18.8374 53.2819 18.7776C53.2438 18.7179 53.231 18.6455 53.2462 18.5763C53.7273 16.3648 50.9784 13.1755 51.2323 17.7501C51.2612 18.3152 51.2757 18.5763 51.102 18.7211C50.1555 19.5079 49.4077 13.8347 47.7835 14.3598C46.3092 14.896 47.7596 22.7406 50.1599 24.0535C50.2103 24.0826 50.25 24.1271 50.2733 24.1804C50.2965 24.2337 50.3021 24.2931 50.2891 24.3498C50.2762 24.4065 50.2454 24.4576 50.2013 24.4956C50.1572 24.5335 50.1021 24.5564 50.0441 24.5607Z" fill="#6DD3A8"/>
</svg>
