<svg width="150" height="150" viewBox="0 0 1500 1331" fill="none" xmlns="http://www.w3.org/2000/svg">
<mask id="mask0_1_3953" style="mask-type:luminance" maskUnits="userSpaceOnUse" x="0" y="0" width="1500" height="1331">
<path d="M1500 0H0V1330.22H1500V0Z" fill="white"/>
</mask>
<g mask="url(#mask0_1_3953)">
<path d="M484.916 516.316C482.029 515.217 479.005 514.529 475.844 513.98C467.596 512.605 459.623 510.131 451.926 506.832C439.142 501.196 427.183 494.048 416.323 485.388C403.264 475.078 391.305 463.257 380.721 450.335C359.964 425.043 344.156 396.038 334.122 364.835C333.984 364.56 333.984 364.147 333.847 363.872C333.297 362.498 333.572 360.986 334.672 360.024C336.321 358.374 338.383 356.862 340.17 355.212C347.593 348.477 354.328 340.779 359.964 332.531C365.738 324.146 369.587 314.799 371.374 304.764C373.848 291.568 370.961 277.96 363.263 267.1C357.215 258.165 348.83 252.117 339.483 247.306C337.283 246.206 334.946 245.381 332.747 244.419C331.785 244.007 330.823 243.457 329.998 243.044C329.173 242.495 328.898 241.257 329.311 240.433C333.847 234.247 337.008 227.099 338.52 219.676C341.407 204.968 342.369 189.985 341.132 175.139C340.582 166.754 338.383 158.644 334.947 151.083C334.122 149.571 333.434 147.922 332.885 146.272C332.472 144.898 332.747 143.385 333.709 142.423C334.947 141.186 336.046 139.811 337.283 138.712C344.981 131.701 352.541 124.416 360.377 117.68C371.099 108.333 380.996 98.0234 389.931 86.8891C395.567 80.1535 399.828 72.5932 402.577 64.3455C404.089 60.0842 404.364 55.4106 403.264 51.0118C401.065 42.7642 396.804 35.6162 389.381 30.9426C384.707 27.9184 379.621 25.5816 374.398 23.7946C356.115 17.8838 336.184 18.2962 318.176 25.1692C310.341 28.0559 302.918 31.9048 295.908 36.441C286.973 42.3518 278.313 48.9499 270.34 56.2353C260.58 65.1703 251.645 74.93 243.673 85.5145C242.435 87.164 241.061 88.6761 239.686 90.3256C238.861 91.0129 237.762 91.0129 236.8 90.6005C235.15 89.3634 233.363 88.1262 231.851 86.8891C206.146 66.1325 178.654 47.7128 149.512 31.9048C129.03 20.7705 107.724 11.5606 84.9054 6.06216C73.0838 3.31295 61.1247 0.70119 47.5161 0.83865C36.6567 -0.123575 25.6598 3.58787 15.0753 9.49868C12.3261 11.0107 9.85183 12.7977 7.37754 14.8597C1.60419 19.3959 -0.182808 25.4441 1.05434 32.5921C1.32926 34.2416 1.8791 36.0286 2.70387 37.5407C5.0407 42.9016 8.47722 47.8502 12.601 52.1115C22.4982 61.8712 33.2202 70.8062 43.9421 79.7411C64.1488 96.7863 85.1803 112.869 105.937 129.09C109.511 131.839 113.085 134.588 116.521 137.475C116.796 137.75 116.796 138.712 116.796 139.262C116.659 140.086 116.109 140.361 115.284 140.224H105.937L72.5339 141.049C66.3482 141.324 60.025 142.423 54.1142 144.21C50.6777 145.035 47.791 147.234 45.8665 150.258C41.7427 156.719 39.2684 164.142 38.7186 171.702C38.0313 180.087 39.2684 188.473 42.43 196.17C43.5297 198.782 43.5297 201.669 42.43 204.281C40.3681 209.504 39.4059 215.003 39.6808 220.638C40.0932 228.611 41.4678 236.584 43.3923 244.419C46.4164 257.065 54.8015 267.925 66.2107 274.111C68.9599 275.76 71.7092 277.135 74.5958 278.372C77.2076 279.334 79.2695 281.396 80.2317 284.145C82.9809 291.293 86.4175 298.166 90.4038 304.627C98.1016 317.961 109.373 328.82 122.982 336.105C130.817 340.642 139.202 343.941 148 346.14C150.474 346.552 152.399 348.477 152.948 350.951C155.148 359.474 159.684 367.034 166.282 372.945C177.416 382.979 190.2 389.578 205.184 391.502C207.933 391.914 210.682 392.189 213.431 392.739C214.806 392.877 216.043 393.976 216.318 395.351C216.73 397.001 217.28 398.65 217.692 400.3C221.541 416.108 226.627 431.778 232.951 446.761C248.484 485.525 270.477 521.403 297.832 553.018C311.578 569.101 327.386 583.535 344.569 595.906C362.576 608.69 381.958 618.725 403.814 623.123C405.601 623.398 406.976 624.635 407.663 626.148C407.938 626.835 408.213 627.385 408.625 627.935C410.825 630.821 414.261 631.371 416.873 629.309C419.76 626.835 422.509 624.223 425.671 622.024C427.045 620.924 428.007 619.412 428.282 617.625C428.832 613.226 431.169 609.927 433.506 606.491C441.479 594.669 449.451 582.847 456.874 570.751C463.197 560.441 470.07 550.269 476.669 540.097C478.456 537.348 480.242 535.011 483.816 534.599C485.191 534.186 486.428 533.499 487.39 532.537C492.339 527.863 490.964 518.653 484.916 516.316ZM52.1897 154.657C52.6021 152.595 54.5266 150.946 56.5885 150.946H76.3828C77.7574 150.671 79.132 150.533 80.5067 150.396C92.6032 150.533 104.7 150.258 116.796 150.808C138.79 151.771 159.959 159.056 177.691 171.977C179.616 173.352 181.54 174.864 183.327 176.513C193.774 185.448 198.585 196.72 197.486 210.604C197.211 213.628 196.111 215.003 192.95 215.14C190.2 215.277 187.451 215.277 184.702 215.277C168.894 217.202 152.811 217.614 137.003 216.102C118.033 214.59 99.0639 211.703 80.5067 207.167C77.0701 206.48 73.7711 205.518 70.472 204.418C62.7742 201.806 56.7259 195.758 54.1142 188.06C52.0523 182.562 50.6777 176.788 49.9904 170.878C49.8529 165.517 50.5402 160.018 52.1897 154.657ZM199.548 263.664C197.486 266 194.599 267.513 191.575 268.062C180.441 269.987 169.306 272.461 157.76 272.186C156.11 272.736 154.461 273.011 152.674 273.286C135.216 274.523 118.171 273.423 101.263 268.612C93.9778 266.55 86.6924 263.939 79.8194 260.914C67.4479 255.416 59.3377 245.931 54.2517 233.56C51.7774 227.374 50.1278 221.051 50.6777 214.315C50.6777 213.353 52.1897 212.391 53.0145 212.803C53.2894 212.941 53.5643 213.078 53.9767 213.353C60.025 217.752 67.0355 219.814 74.046 221.463C87.2422 224.487 100.576 226.549 113.91 228.336C134.666 231.223 155.285 230.948 176.179 229.986C177.416 229.436 178.654 228.886 180.028 228.611C184.152 227.924 188.138 226.962 192.125 225.724C195.011 224.9 197.073 225.449 198.311 227.786C201.06 232.597 203.397 237.684 205.046 242.907C207.245 250.192 205.184 258.303 199.548 263.664ZM326.149 190.809C324.912 200.157 322.987 209.229 320.376 218.302C318.451 224.625 316.114 230.81 313.228 236.721C312.678 237.958 311.303 238.783 309.929 238.783C308.829 238.783 307.867 238.783 306.767 238.646C296.045 237.821 285.186 237.958 274.464 238.783C273.089 238.783 271.715 238.783 270.34 238.646C269.103 239.196 267.728 239.608 266.354 239.883C251.92 242.22 237.899 246.344 224.566 252.254C222.641 253.079 220.717 253.629 218.517 254.454C218.242 252.942 218.105 251.43 218.105 249.918C218.38 243.044 215.905 236.996 212.194 231.36C210.545 228.749 208.758 226.137 206.971 223.525C206.558 222.975 206.558 222.15 207.108 221.601C211.507 215.552 211.782 208.817 210.957 201.669C209.307 187.373 201.884 174.314 190.475 165.517C182.777 159.468 174.392 154.52 165.595 150.671C162.983 149.571 160.509 148.471 157.897 147.372C155.01 146.135 152.399 144.485 150.199 142.286C148.137 140.361 146.075 138.574 143.876 136.925C115.697 115.481 87.9295 93.6247 59.0628 73.0055C46.9662 64.3455 34.5948 55.9604 22.3608 47.4379C21.2611 46.6131 20.0239 45.9258 18.9242 45.101C14.388 41.8019 11.3639 36.8534 10.2642 31.3549C9.57691 28.6057 10.5391 25.719 12.601 23.7946C15.0753 21.3203 18.2369 19.5333 21.536 18.7085C27.0344 15.1346 33.3576 13.0727 39.9557 12.5228C48.8907 11.698 57.9631 11.973 66.898 13.6225C75.0082 15.1346 83.1184 17.059 91.2286 19.1209C95.6273 20.2206 99.8886 21.5952 104.012 23.3822C114.185 27.781 124.494 32.0422 134.254 37.2657C160.921 51.2867 186.351 67.6446 210.132 86.2018C216.18 90.8755 221.816 95.9615 227.59 101.048C229.652 102.835 229.789 104.347 228.689 106.546C226.078 111.495 223.466 116.306 220.992 121.254C220.717 122.216 220.442 123.179 220.442 124.278C220.304 125.103 221.679 126.203 222.504 126.065C223.878 125.79 225.115 125.378 226.49 125.103C237.074 111.907 248.071 98.9856 259.618 86.6142C272.677 72.1808 287.66 59.6719 304.155 49.3623C310.341 45.5134 316.939 42.3518 323.675 39.8775C335.084 35.7537 347.455 34.654 359.414 36.441C360.377 36.7159 361.339 37.1283 362.301 37.6781C369.587 37.5407 375.91 40.4273 381.683 44.4137C386.494 47.7128 388.831 52.6614 389.793 58.4347C390.068 60.4966 389.656 62.5585 388.694 64.483C385.532 71.0811 381.408 77.1294 376.322 82.3529C369.312 89.5008 361.614 96.0989 353.916 102.56C344.019 110.807 334.122 119.055 324.499 127.44C315.702 135.275 307.592 143.935 300.444 153.283C298.382 156.032 296.32 158.919 294.533 161.805C293.158 164.279 292.609 167.029 293.158 169.778C293.708 173.764 298.519 175.551 300.994 174.727C304.018 173.764 306.63 171.977 308.691 169.64C312.54 165.517 316.114 161.393 319.826 157.269C321.063 156.032 322.3 154.795 323.537 153.832C323.95 153.42 324.637 153.42 325.049 153.97C325.187 154.107 325.187 154.245 325.324 154.382C325.874 155.619 326.286 156.857 326.561 158.231C327.936 169.228 327.799 180.087 326.149 190.809Z" fill="#2C2729"/>
<path d="M1492.37 274.66C1501.71 264.213 1501.58 260.09 1492.23 249.643C1476.97 232.597 1461.85 215.552 1446.45 198.645C1408.52 156.719 1370.58 114.931 1332.5 73.0056C1327.41 67.3697 1321.92 62.1461 1316.55 56.7852C1312.43 52.6614 1307.62 49.4998 1301.57 48.675C1298.68 48.2626 1295.94 47.4379 1293.05 46.7506C1273.94 42.9017 1254.56 40.1524 1235.18 37.4032C1207.55 33.5543 1180.06 29.293 1152.43 25.3067C1145.28 24.207 1138.13 23.3822 1130.85 22.42C1126.45 21.7327 1122.05 22.9698 1118.75 25.994C1106.51 36.8534 1094.01 47.3004 1081.91 58.1598C1054.42 82.9027 1028.02 108.883 1001.77 134.725C930.29 205.243 858.948 275.76 787.606 346.415C785.819 348.202 783.894 349.851 782.107 351.776C780.045 354.113 777.983 353.975 775.509 352.188C767.674 346.965 759.839 341.741 751.728 336.793C712.827 313.149 673.238 290.468 633.237 268.475C631.313 267.375 629.388 266.413 627.464 265.451C623.89 263.526 619.629 263.251 615.917 264.763C613.58 265.588 611.244 266.825 609.044 267.787C584.714 278.784 560.246 289.919 535.915 300.915C516.121 309.988 496.601 319.06 477.494 329.645C469.934 333.906 463.336 339.542 458.112 346.415C428.971 383.529 401.616 421.881 374.261 460.095C335.497 514.254 298.108 569.514 257.97 622.711C257.007 623.811 256.183 625.048 255.495 626.285C251.921 632.333 252.609 638.107 257.557 643.055C259.344 644.842 261.406 646.354 263.605 647.729C270.891 652.54 278.039 657.351 285.462 662.025C365.051 711.786 445.741 759.347 526.843 806.359C549.799 819.692 572.755 833.026 595.711 846.497C610.281 868.353 627.601 888.285 647.258 905.743C664.991 921.688 684.51 935.159 706.779 943.957C708.703 944.919 710.49 945.881 712.14 947.118C705.954 962.926 700.73 978.459 693.17 993.305C691.108 997.429 688.496 998.391 684.235 998.116C661.967 997.292 646.434 1007.88 635.712 1026.85C634.474 1029.04 634.612 1032.48 630.763 1033.58C629.526 1032.62 628.014 1031.52 626.639 1030.42C594.611 1001.69 557.084 984.783 514.609 978.597C469.659 971.999 426.634 977.91 385.808 998.116C352.955 1014.34 327.387 1038.39 310.48 1071.11C306.218 1079.08 303.057 1087.6 301.407 1096.4C299.895 1103.96 301.132 1111.8 304.981 1118.39C313.779 1134.2 323.813 1149.05 336.46 1162.11C356.391 1182.86 379.485 1199.36 404.365 1213.52C454.813 1242.25 509.523 1259.02 566.294 1269.46C572.342 1270.7 578.665 1270.01 584.301 1267.4C590.762 1264.52 597.223 1261.77 604.783 1258.47C606.57 1260.94 608.219 1263.14 609.869 1265.48C614.68 1272.08 621.416 1274.69 629.388 1275.79C639.698 1277.3 650.145 1277.71 660.592 1277.02C669.115 1276.34 677.637 1275.65 686.022 1274.82C712.002 1272.21 737.707 1267.68 762.45 1259.02C777.983 1253.52 786.781 1243.21 787.468 1226.44C788.018 1210.36 789.393 1194.14 787.331 1178.05C786.643 1172.14 786.781 1171.45 792.554 1169.94C805.613 1166.23 815.235 1158.12 822.108 1146.85C832.281 1130.35 836.267 1112.76 831.043 1093.65C829.531 1088.7 830.219 1083.2 832.83 1078.67C839.154 1066.43 845.064 1054.06 851.113 1041.69C852.762 1038.25 854.549 1034.82 856.336 1031.52C857.023 1030.28 858.123 1028.91 859.635 1029.46C860.735 1030.14 861.56 1031.24 861.972 1032.48C865.134 1044.85 873.931 1051.45 884.928 1055.85C887.952 1057.09 891.114 1058.19 894.138 1059.29C893.038 1063.82 889.327 1065.33 886.577 1067.81C860.322 1092.55 844.927 1122.93 841.215 1158.81C835.579 1213.1 852.625 1259.84 890.151 1299.16C900.598 1310.15 912.695 1319.5 925.204 1328.16L926.441 1328.3C928.778 1328.57 930.977 1328.85 933.314 1329.12H933.589C937.163 1329.26 940.874 1329.4 944.586 1329.53H945.273C966.854 1323.35 984.587 1310.98 1000.26 1295.31C1017.44 1278.12 1031.46 1258.47 1043.97 1237.71C1064.31 1203.76 1079.02 1167.33 1090.98 1129.8C1095.66 1114.96 1099.5 1099.7 1104.04 1084.85C1105.83 1078.67 1104.59 1073.86 1100.19 1069.32C1097.58 1066.57 1094.14 1064.65 1092.77 1060.94C1094.69 1058.46 1097.58 1058.32 1100.19 1057.77C1106.79 1056.67 1109.95 1052.55 1111.19 1046.36C1111.6 1044.03 1112.15 1041.69 1112.56 1039.49C1117.24 1016.12 1118.47 992.48 1119.02 968.837C1119.16 966.5 1119.02 964.164 1118.89 961.689C1118.34 953.991 1115.59 950.967 1107.75 949.318C1088.23 945.194 1068.85 941.07 1049.33 936.946C1036.82 934.335 1024.31 931.723 1011.8 929.248C1006.99 928.286 1002.73 926.774 1000.81 921.688C1000.26 920.313 999.57 919.076 998.745 917.977C989.81 904.368 969.879 893.234 948.847 904.231L944.036 906.705L943.899 906.842C943.624 907.255 943.349 907.667 942.936 908.08C942.799 908.354 942.524 908.629 942.249 908.904C941.424 909.592 940.462 910.554 939.362 909.592C939.225 909.454 939.087 909.454 939.087 909.317C938.95 909.179 938.95 909.042 938.95 908.904L979.089 831.102C981.15 830.002 983.212 828.902 985.274 827.94C989.536 825.878 993.247 823.129 996.409 819.692C1040.26 771.856 1084.11 724.02 1127.96 676.321L1172.08 628.072C1174.7 635.907 1177.31 643.742 1179.51 651.715C1187.07 678.52 1192.98 705.875 1197.1 733.504C1197.24 734.604 1197.38 735.841 1197.51 736.941C1198.61 747.388 1199.85 757.698 1200.95 768.144C1201.91 776.117 1201.91 776.255 1194.9 779.966C1188.99 782.853 1183.63 786.702 1178.82 791.375C1169.2 801.272 1165.07 812.682 1169.61 826.428C1169.75 826.84 1169.88 827.115 1170.02 827.527C1171.12 831.926 1172.08 833.713 1166.31 834.95C1157.24 836.875 1149.81 841.823 1143.63 848.284C1129.47 862.58 1121.22 881.55 1120.54 901.619C1120.4 903.543 1120.4 905.468 1120.54 907.392C1121.22 915.227 1123.28 922.65 1128.51 928.836C1134.83 936.259 1142.67 939.283 1152.43 937.359C1153.94 937.084 1155.45 936.671 1156.96 936.121C1158.06 935.846 1159.16 935.297 1160.26 935.022C1162.05 934.472 1163.97 935.297 1164.52 937.084C1164.52 937.221 1164.66 937.359 1164.66 937.496C1166.17 945.881 1167.82 954.266 1167.96 962.789C1168.1 971.311 1168.65 979.834 1169.61 988.357C1170.43 995.642 1172.63 1002.79 1176.07 1009.39C1182.12 1021.21 1192.29 1030.56 1204.52 1035.64C1214.01 1039.77 1223.36 1039.77 1232.15 1033.58C1235.59 1031.11 1238.89 1030.42 1242.88 1032.48C1247.41 1034.54 1252.36 1035.78 1257.45 1036.06C1267.62 1036.88 1277.65 1034.82 1286.73 1030.14C1290.16 1028.36 1293.32 1026.16 1296.76 1024.37C1298.13 1023.82 1299.65 1023.41 1301.16 1023.41C1302.26 1023.41 1303.5 1023.68 1304.6 1023.96C1319.58 1026.43 1332.09 1021.48 1342.4 1010.76C1347.76 1005.13 1352.02 998.529 1355.18 991.381C1358.89 982.858 1361.64 973.923 1363.29 964.713C1367.14 942.72 1366.04 920.726 1361.78 898.87C1359.99 889.66 1357.38 880.725 1353.94 872.065C1350.78 864.229 1346.8 856.532 1342.26 849.384C1340.61 846.909 1340.89 845.535 1343.22 843.335C1347.07 840.036 1350.37 836.188 1353.12 831.926C1358.34 824.091 1359.72 814.194 1356.83 805.259C1355.04 799.76 1352.16 794.537 1348.17 790.276C1344.46 786.289 1340.34 782.853 1335.66 779.966C1333.05 778.317 1330.3 776.805 1327.55 775.43C1325.35 774.468 1323.98 772.268 1324.11 769.794C1323.84 754.673 1322.74 739.553 1320.82 724.569C1319.17 707.937 1316.42 691.579 1312.84 675.221C1311.19 668.485 1309.54 661.612 1308.03 655.014C1303.63 634.533 1297.86 614.326 1290.85 594.531C1286.31 581.335 1281.5 568.277 1275.18 555.768C1270.78 547.108 1266.38 538.173 1261.85 529.65C1295.39 492.811 1328.79 456.109 1362.33 419.269C1405.77 371.295 1448.93 322.909 1492.37 274.66ZM1452.64 237.271C1456.35 236.859 1458.83 237.546 1461.16 240.433C1465.7 245.931 1470.51 251.292 1476.7 258.44C1470.51 258.852 1467.07 259.265 1463.5 259.402C1427.35 261.189 1391.33 264.763 1355.32 268.062C1350.23 268.475 1346.25 267.925 1342.95 263.664C1339.65 259.402 1335.66 255.553 1332.09 251.43C1331.4 250.605 1331.13 249.643 1331.13 248.68C1331.13 247.168 1332.64 247.443 1333.6 247.443C1342.26 246.756 1350.92 246.344 1359.58 245.656C1380.2 244.007 1400.68 242.22 1421.16 240.433C1431.75 239.333 1442.19 238.508 1452.64 237.271ZM1228.3 124.966C1270.23 125.103 1312.16 125.241 1354.08 125.103C1359.3 125.103 1363.15 126.34 1366.04 130.602C1368.1 133.488 1370.44 136.1 1372.36 138.574C1371.54 141.186 1369.75 140.499 1368.51 140.499C1326.31 141.186 1283.98 141.736 1241.78 142.698C1236.55 142.836 1232.84 141.461 1229.82 137.337C1227.07 133.626 1223.91 130.327 1219.51 125.103L1228.3 124.966ZM746.23 357.687C751.041 352.188 752.278 352.051 758.052 355.212C762.038 357.412 766.299 359.199 770.148 360.986C770.561 363.872 768.774 364.835 767.536 366.072C741.556 390.815 715.576 415.558 689.459 440.163C688.084 441.4 686.71 442.637 685.335 443.737C683.823 445.387 681.349 445.662 679.424 444.562L660.455 433.428C664.853 429.716 668.015 426.829 671.314 423.943C692.345 405.661 713.377 387.241 734.271 368.959C738.532 365.522 742.519 361.811 746.23 357.687ZM566.569 367.034C591.449 351.638 616.467 336.38 641.348 320.985C647.808 316.998 654.269 313.012 660.455 308.613C663.616 306.414 666.228 306.689 669.252 308.476C673.926 311.225 678.599 313.837 682.998 316.174C683.685 318.648 681.898 319.06 680.936 319.748C649.87 340.367 618.941 360.848 587.875 381.33C586.088 382.567 584.164 383.667 582.514 384.904C580.727 386.279 578.253 386.416 576.466 385.041C570.28 381.467 563.957 377.893 557.222 374.045C559.971 370.333 563.545 368.959 566.569 367.034ZM606.158 823.679C602.034 817.08 598.185 810.345 594.611 803.334C594.198 802.51 594.061 801.547 593.786 800.585C594.473 800.31 595.573 799.486 595.985 799.76C602.446 803.334 609.044 806.633 615.642 809.658C630.076 816.118 645.059 821.479 660.042 826.565C686.022 835.363 710.903 847.184 737.433 854.745C738.395 855.02 739.22 855.295 740.044 855.844L653.169 850.758L606.158 823.679ZM744.031 873.989C740.594 881.962 737.158 889.935 733.584 897.907C728.91 895.296 724.511 892.272 720.113 889.11C716.126 888.285 712.965 885.673 709.528 883.749C702.792 879.9 696.057 875.914 689.321 872.065C707.191 872.615 726.298 873.164 744.031 873.989ZM692.62 913.715C676.537 902.993 661.554 890.622 647.946 876.876L723.412 921.001C722.449 923.338 721.487 925.674 718.875 927.324C709.391 924.575 700.868 919.214 692.62 913.715ZM657.705 1234.55C657.293 1234.96 657.018 1235.51 656.606 1235.92C656.056 1236.61 655.506 1237.3 654.819 1237.85C654.269 1238.4 653.581 1238.95 652.894 1239.5C651.245 1240.73 649.595 1241.97 647.808 1243.07C641.897 1247.33 635.849 1251.59 629.938 1255.72C629.801 1255.86 629.663 1255.86 629.526 1255.99C628.976 1256.41 628.289 1256.82 627.464 1257.09C625.677 1257.92 623.615 1257.23 622.653 1255.44C621.828 1254.21 621.966 1252.56 623.065 1251.73C631.038 1245.96 638.873 1240.18 647.396 1235.24C650.282 1233.59 653.169 1232.07 656.056 1230.7H656.331L657.98 1231.94C658.118 1232.76 658.255 1233.86 657.705 1234.55ZM765.475 1188.64C765.062 1194.55 761.351 1195.78 753.928 1196.06H752.416C750.904 1196.06 749.529 1196.2 748.017 1196.2C742.931 1196.47 737.707 1197.02 732.621 1197.57C726.436 1198.26 720.387 1199.08 714.339 1199.77C711.178 1199.5 707.878 1199.08 704.717 1199.08C702.243 1199.08 699.631 1197.98 697.294 1199.22C696.744 1199.5 696.194 1199.91 695.782 1200.46C695.782 1200.6 695.645 1200.6 695.645 1200.73C695.645 1200.87 695.507 1201.01 695.507 1201.01V1201.15C695.507 1201.42 695.507 1201.56 695.645 1201.83C695.782 1201.97 695.782 1202.11 695.919 1202.11C696.057 1202.25 696.332 1202.52 696.607 1202.66C697.019 1202.93 697.431 1203.21 697.981 1203.35L698.669 1203.62C699.906 1204.03 701.28 1204.31 702.518 1204.58C703.205 1204.72 703.755 1204.72 704.442 1204.86H708.566C720.8 1208.43 733.034 1211.73 745.68 1212.01H745.818C750.079 1212.14 754.203 1211.87 758.327 1211.18H758.876C759.426 1211.04 759.976 1211.04 760.526 1211.04C761.763 1210.91 763 1211.59 763.688 1212.56L764.1 1213.38C764.237 1213.65 764.237 1213.93 764.375 1214.07C764.512 1214.62 764.65 1215.17 764.65 1215.85V1216.82C764.65 1218.19 764.65 1219.7 764.512 1221.08C764.375 1222.45 764.237 1223.96 764.1 1225.34C764.1 1225.61 763.962 1225.89 763.825 1226.3C763.55 1227.13 763.138 1227.95 762.45 1228.5C761.488 1229.33 760.389 1229.74 759.289 1229.88C751.866 1230.84 744.58 1231.66 737.158 1232.35C734.683 1232.62 732.209 1232.76 729.735 1232.9C714.477 1234 699.218 1233.04 684.235 1230.01C683.548 1229.88 682.861 1229.74 682.311 1229.46C681.624 1229.19 680.936 1228.91 680.386 1228.36L680.111 1228.09L679.974 1227.81C679.837 1227.68 679.836 1227.54 679.699 1227.4C679.287 1225.89 679.424 1224.38 679.974 1223C680.249 1221.9 680.524 1220.94 680.799 1219.84L681.074 1218.74C681.761 1215.17 682.173 1211.59 682.448 1208.02V1207.61C682.998 1202.66 680.386 1197.98 675.988 1195.78C675.3 1195.37 674.476 1195.1 673.788 1194.96C671.589 1194.41 669.389 1194.69 667.328 1195.37C666.228 1195.78 665.128 1196.47 664.166 1197.16C659.355 1200.87 654.269 1204.44 649.183 1208.02L647.396 1209.26C640.523 1214.07 639.56 1213.79 631.588 1208.71C624.44 1204.03 617.567 1198.95 610.969 1193.59L606.02 1189.46C601.072 1185.34 596.26 1181.21 591.449 1176.95C564.507 1153.86 538.114 1129.94 509.385 1108.91L503.749 1104.79C497.014 1099.97 490.278 1095.3 483.268 1091.04C474.883 1085.82 466.223 1081.28 457.15 1077.43C448.215 1073.58 438.868 1070.42 429.52 1068.22C422.373 1066.57 415.087 1065.47 407.802 1065.2H405.053C400.654 1065.06 396.392 1064.78 391.994 1064.51C379.072 1063.55 366.151 1064.23 353.505 1066.57C352.13 1066.85 350.893 1067.12 349.518 1067.4C345.532 1068.22 341.683 1069.32 337.834 1070.56C335.085 1068.08 336.735 1066.57 337.834 1065.33C339.346 1063.27 340.996 1061.35 342.645 1059.42C347.044 1054.34 351.855 1049.66 356.941 1045.27C362.44 1040.45 368.213 1035.92 374.261 1031.66C375.636 1030.69 377.148 1029.73 378.797 1029.04L379.072 1028.91C382.097 1027.53 385.258 1026.85 388.557 1026.71H390.894C391.719 1026.71 392.406 1026.71 393.231 1026.85C404.64 1027.95 416.049 1029.59 427.459 1031.93C437.081 1033.86 446.566 1036.19 455.913 1038.94C462.786 1041 469.522 1043.2 476.257 1045.68C477.632 1046.23 478.869 1046.64 480.244 1047.19C499.626 1055.03 517.495 1066.3 533.028 1080.18C540.864 1087.05 548.561 1094.2 555.984 1101.49C559.971 1105.34 563.82 1109.32 567.669 1113.17C571.105 1116.61 574.542 1120.18 577.978 1123.76C585.126 1131.18 592.274 1138.6 599.697 1145.89C607.532 1153.58 615.642 1161.01 623.89 1168.29C625.814 1169.94 627.876 1171.45 629.938 1172.97L633.65 1175.44C637.499 1177.91 641.485 1179.98 645.609 1181.76C645.884 1181.9 646.296 1182.04 646.708 1182.31L647.258 1182.59L648.358 1183.14C648.77 1183.28 649.183 1183.55 649.458 1183.69L650.008 1183.96C650.42 1184.1 650.832 1184.1 651.107 1184.24C651.382 1184.24 651.795 1184.24 652.069 1184.1C652.344 1184.1 652.482 1183.96 652.619 1183.83C653.169 1183.41 653.719 1183 653.994 1182.31C654.406 1181.76 654.406 1181.08 654.269 1180.39C654.131 1180.25 654.131 1179.98 653.994 1179.84C653.856 1179.56 653.719 1179.43 653.444 1179.15L653.032 1178.74C652.619 1178.33 652.069 1177.91 651.657 1177.64L651.245 1177.23C650.557 1176.82 650.008 1176.27 649.458 1175.85L648.221 1174.89C646.846 1173.79 645.471 1172.83 643.959 1171.73L642.585 1170.77C626.914 1159.36 612.343 1146.3 599.284 1131.73C595.161 1127.33 591.037 1122.93 586.913 1118.67C572.067 1103 556.672 1087.74 541.001 1072.76C537.702 1069.6 534.266 1066.43 530.967 1063.27C509.523 1043.48 484.367 1028.08 457.013 1018.19C452.339 1016.54 447.528 1014.89 442.717 1013.37C439.143 1012.27 435.431 1011.18 431.857 1009.94L429.933 1009.53C429.658 1009.53 429.383 1009.39 429.108 1009.25C428.833 1009.11 428.558 1008.98 428.421 1008.7C428.146 1008.43 428.008 1008.15 428.008 1007.74C428.008 1007.46 428.146 1007.33 428.146 1007.05C428.421 1006.64 428.833 1006.36 429.246 1006.09L429.933 1005.68C430.483 1005.4 430.895 1005.13 431.445 1004.99C433.507 1004.3 435.706 1004.3 437.768 1004.58C438.73 1004.16 439.693 1003.89 440.655 1003.61C446.428 1001.97 452.476 1000.87 458.387 1000.59L461.411 1000.45C469.934 1000.04 478.594 999.903 487.117 1000.18L492.203 1000.45C493.852 1000.59 495.639 1000.59 497.289 1000.73C512.684 1001.69 527.942 1004.58 542.651 1009.25C557.771 1014.2 572.205 1020.93 585.538 1029.32C587.05 1030.28 588.425 1031.24 589.937 1032.21C591.037 1033.03 592.274 1033.72 593.374 1034.54C595.848 1036.19 598.185 1037.98 600.659 1039.77C606.57 1044.3 612.068 1049.11 617.429 1054.2C622.24 1058.87 626.639 1063.82 630.488 1069.18C632.413 1071.8 634.337 1074.54 636.124 1077.43C637.911 1080.32 639.56 1083.07 641.21 1085.95C647.121 1096.81 654.819 1106.44 664.029 1114.68C666.778 1117.02 669.389 1119.49 672.001 1121.83C676.812 1126.23 681.486 1130.49 686.435 1134.61C687.534 1135.58 688.771 1136.54 689.871 1137.5C693.445 1140.39 697.157 1143 701.005 1145.34C707.054 1149.05 713.102 1152.76 719.425 1156.06L722.587 1157.71C732.072 1162.52 742.244 1166.09 752.691 1168.16C755.028 1168.57 757.227 1169.53 759.564 1170.22C760.801 1170.49 762.038 1171.18 762.863 1172.28C763 1172.55 763.138 1172.83 763.275 1172.97C763.413 1173.24 763.55 1173.52 763.55 1173.79C763.688 1174.2 763.825 1174.62 763.825 1175.03C763.962 1176.95 763.962 1178.88 764.237 1180.66C764.375 1181.63 764.512 1182.59 764.65 1183.41C765.474 1184.93 765.612 1186.71 765.475 1188.64ZM714.339 1199.91C714.202 1200.46 713.789 1200.73 713.239 1200.87C713.652 1200.46 714.064 1200.18 714.339 1199.91ZM810.837 1109.6C810.699 1111.66 810.424 1113.72 810.012 1115.78C809.187 1119.77 807.95 1123.76 806.163 1127.47C804.788 1130.35 803.139 1132.97 801.214 1135.58C800.252 1136.81 799.29 1138.05 798.19 1139.29C797.091 1140.53 795.853 1141.9 794.616 1143.14C792.967 1144.79 791.042 1146.02 788.843 1146.99C785.406 1148.36 781.283 1148.77 776.059 1148.5C773.722 1148.36 771.385 1148.09 769.049 1147.54C767.124 1147.12 765.337 1146.57 763.55 1146.02C738.532 1137.23 715.439 1123.62 695.645 1105.89C692.895 1103.41 690.283 1100.94 687.672 1098.33C685.472 1096.13 683.411 1093.93 681.211 1091.73C679.424 1089.67 677.5 1087.6 675.713 1085.54C672.689 1081.83 669.664 1078.12 666.778 1074.27C664.578 1071.25 662.379 1068.36 660.317 1065.2C655.506 1058.19 654.406 1049.39 657.293 1041.42C657.43 1040.87 657.705 1040.45 657.843 1039.9C661.004 1032.21 666.915 1026.16 674.613 1022.86L675.713 1022.45C678.05 1021.76 680.386 1021.35 682.861 1021.07C683.273 1021.07 683.823 1020.93 684.235 1021.07H684.373C684.785 1021.07 685.197 1021.07 685.61 1021.21C687.397 1021.48 688.771 1022.58 689.459 1024.23C689.734 1024.92 690.009 1025.47 690.146 1026.16C693.17 1038.25 699.493 1049.39 708.291 1058.19C709.116 1059.15 709.94 1059.97 710.903 1060.8C712.69 1062.45 714.477 1064.1 716.401 1065.75C719.288 1068.08 722.312 1070.42 725.473 1072.62C728.635 1074.82 732.072 1076.88 735.508 1078.67L737.707 1079.77L741.007 1081.42C742.381 1082.1 743.756 1082.65 745.13 1083.2C746.093 1083.62 747.055 1084.03 748.154 1084.44C749.941 1085.13 751.866 1085.82 753.653 1086.5C755.852 1087.33 758.189 1088.02 760.388 1088.57C763.413 1089.39 766.574 1090.08 769.736 1090.63L771.248 1090.9C778.808 1092.14 786.369 1092.83 794.066 1092.69H795.441C798.74 1092.69 802.039 1092.41 805.338 1092.41C807.812 1092.28 810.012 1094.06 810.424 1096.54C810.837 1100.8 811.112 1105.2 810.837 1109.6ZM838.604 997.704C838.329 1004.71 837.504 1011.72 836.404 1018.74C835.854 1022.45 834.892 1026.16 833.655 1029.73C832.418 1033.31 830.768 1036.74 828.844 1040.04C824.445 1047.74 820.184 1055.44 816.06 1063.27L815.785 1063.69L815.648 1063.96C815.373 1064.51 815.098 1065.06 814.685 1065.47C813.723 1066.85 812.349 1068.08 810.837 1068.77C810.424 1069.05 809.874 1069.18 809.462 1069.32C809.187 1069.46 808.912 1069.6 808.5 1069.6C807.538 1069.87 806.575 1070.01 805.476 1070.01C803.414 1070.15 801.352 1070.15 799.29 1070.15C769.736 1070.28 744.443 1059.56 723.137 1038.53C720.387 1035.64 717.913 1032.48 715.851 1029.04C715.714 1028.77 715.576 1028.63 715.439 1028.36C715.301 1028.08 715.164 1027.95 715.026 1027.67C711.865 1022.72 710.215 1017.91 710.628 1012.55V1012.41C710.765 1011.45 710.903 1010.35 711.04 1009.39C711.178 1008.7 711.315 1008.01 711.59 1007.46C712.14 1005.54 712.965 1003.75 713.927 1002.1C716.676 997.017 719.425 991.793 721.899 986.707C730.56 969.524 738.807 952.204 746.78 934.747L752.691 938.183C755.99 940.245 759.839 941.07 763.55 940.795C767.949 941.62 772.073 939.695 776.334 937.496C790.492 930.073 804.788 922.65 818.947 915.365C824.308 924.85 828.706 935.022 831.868 945.469C832.418 947.118 832.83 948.768 833.243 950.417C835.03 957.016 836.267 963.614 837.092 970.349C837.641 974.885 838.054 979.422 838.191 983.958C838.329 986.295 838.329 988.494 838.329 990.831C838.329 993.168 838.604 995.367 838.604 997.704ZM757.777 910.279C762.725 898.87 767.674 887.46 772.623 875.914C772.76 875.639 772.897 875.501 772.897 875.226C776.609 875.364 780.045 875.639 783.482 875.776C784.307 876.326 785.269 876.876 786.094 877.563L787.743 878.8L766.849 901.619C764.65 904.093 762.313 906.293 760.114 908.767C759.564 909.454 758.739 910.004 757.777 910.279ZM876.268 1012.14C874.756 1012.69 873.106 1012.96 871.457 1012.96C870.082 1013.1 868.708 1012.14 868.295 1010.76V1010.08C868.295 1009.8 868.433 1009.66 868.433 1009.39C868.708 1008.84 868.845 1008.29 869.12 1007.88C869.395 1007.05 869.807 1006.36 870.22 1005.54C882.179 983.133 894.138 960.589 906.097 938.183L907.334 935.709C907.746 934.884 908.159 934.197 908.709 933.51C909.396 932.685 910.221 931.86 911.32 931.448H911.458C912.695 931.035 914.07 931.173 915.307 931.585C917.094 932.273 918.881 932.685 920.668 933.372C921.492 933.647 922.455 934.06 923.279 934.472C923.829 934.884 924.242 935.297 924.517 935.984C924.654 936.259 924.792 936.671 924.929 936.946C925.066 937.221 925.066 937.496 925.066 937.909C924.929 938.458 924.929 939.008 924.792 939.558C924.379 941.208 923.692 942.857 923.142 944.644C921.767 949.318 920.118 953.854 918.331 958.39C915.857 964.301 913.107 970.074 909.808 975.573C905.822 982.583 901.286 989.181 896.2 995.505C895.237 996.742 894.138 997.979 893.176 999.216C892.488 1000.04 891.801 1000.87 890.976 1001.55C887.952 1004.71 884.516 1007.6 880.804 1009.94C879.292 1010.76 877.78 1011.59 876.268 1012.14ZM998.883 957.978C999.158 956.466 999.57 954.954 1000.12 952.754C1000.26 952.342 1000.39 951.929 1000.39 951.517C1019.23 955.091 1036.96 958.39 1054.55 961.827C1057.3 962.376 1060.05 963.476 1062.8 964.163C1063.21 964.301 1063.63 964.438 1063.9 964.576C1066.24 965.538 1067.61 968.012 1067.2 970.487C1066.79 974.885 1066.51 979.284 1066.24 983.683C1065.96 991.106 1065.14 998.529 1063.49 1005.81C1061.43 1014.06 1060.47 1022.58 1059.09 1030.97V1031.24C1059.09 1031.79 1059.23 1032.34 1059.5 1032.89C1059.64 1033.17 1059.78 1033.31 1059.92 1033.44C1060.88 1033.99 1061.98 1033.86 1062.8 1033.17C1063.08 1032.89 1063.35 1032.76 1063.49 1032.48C1063.9 1031.79 1064.31 1031.24 1064.73 1030.56C1065.14 1029.87 1065.55 1029.18 1065.96 1028.36L1066.38 1027.53C1067.75 1023.68 1069.13 1019.97 1070.64 1016.26L1072.84 1010.63C1075.59 1003.61 1077.92 996.329 1079.71 988.906C1080.26 986.432 1080.67 984.095 1081.08 981.621C1081.08 981.071 1081.22 980.521 1081.36 980.109C1081.63 979.009 1081.77 977.91 1082.18 976.81C1082.6 975.16 1083.15 973.648 1083.56 971.999C1083.83 970.899 1084.52 969.937 1085.48 969.387C1086.58 968.837 1087.96 968.7 1089.19 968.975C1096.07 970.212 1097.85 972.411 1097.72 979.422C1097.72 980.521 1097.72 981.621 1097.58 982.583C1097.03 992.206 1095.66 1001.69 1093.46 1011.04L1092.08 1017.22C1091.26 1021.35 1090.29 1025.61 1089.61 1029.73C1089.33 1031.79 1088.23 1033.72 1086.72 1035.09C1086.45 1035.37 1086.17 1035.64 1085.76 1035.92C1085.07 1036.47 1084.38 1036.88 1083.7 1037.29L1081.22 1038.53C1077.37 1040.45 1073.52 1042.24 1069.68 1044.17C1067.06 1045.27 1064.45 1046.5 1062.11 1048.01C1061.29 1048.56 1060.47 1049.25 1059.78 1049.94C1058.27 1051.45 1057.44 1053.65 1057.44 1055.85C1057.44 1056.67 1057.72 1057.5 1057.85 1058.32C1058.27 1059.42 1058.82 1060.52 1059.5 1061.35C1059.78 1061.76 1060.19 1062.17 1060.47 1062.59C1062.25 1064.65 1064.31 1066.57 1066.38 1068.5C1067.2 1069.18 1068.03 1070.01 1068.85 1070.7C1069.54 1071.25 1070.09 1071.66 1070.77 1072.21C1073.39 1074.13 1075.59 1076.61 1077.1 1079.36C1077.51 1080.18 1077.92 1081.14 1078.2 1082.1C1078.34 1082.52 1078.47 1083.07 1078.47 1083.48C1078.61 1084.3 1078.75 1085.13 1078.75 1086.09C1078.88 1088.98 1078.47 1091.86 1077.51 1094.61C1073.8 1107.67 1069.81 1120.59 1065.41 1133.24C1062.11 1142.86 1058.54 1152.35 1054.69 1161.69C1053.32 1164.86 1052.08 1167.88 1050.71 1171.04C1040.95 1193.17 1030.09 1214.75 1017.03 1235.24C1011.12 1244.45 1004.66 1253.38 997.783 1262.04C993.659 1267.13 989.398 1272.21 984.999 1277.02C979.089 1283.48 972.49 1289.4 965.48 1294.62C964.38 1295.44 963.281 1296.13 962.181 1296.96C960.394 1298.19 958.469 1299.43 956.407 1300.53C951.459 1303.42 946.373 1305.75 941.012 1307.82C935.513 1309.88 930.84 1309.6 926.716 1305.2C922.592 1300.8 916.406 1298.33 914.07 1292.56C914.757 1291.46 915.582 1290.36 916.681 1289.67C916.956 1289.4 917.369 1289.26 917.644 1288.98L918.606 1288.57C919.98 1287.88 921.355 1287.47 922.592 1286.78C932.214 1282.25 941.149 1276.47 949.534 1269.88C952.421 1267.54 955.308 1265.06 958.057 1262.59C959.707 1261.08 961.219 1259.57 962.868 1258.05L966.167 1254.76C968.092 1252.83 970.016 1250.77 971.803 1248.71L972.903 1247.33C974.69 1245.27 976.477 1243.21 978.126 1241.15C987.611 1229.46 996.409 1217.37 1004.38 1204.58C1005.48 1202.93 1006.44 1201.15 1007.54 1199.5C1017.71 1182.86 1026.65 1165.41 1034.21 1147.4C1042.32 1128.7 1048.23 1109.05 1051.81 1088.98C1051.94 1087.74 1051.94 1086.5 1051.81 1085.27C1051.81 1084.58 1051.67 1084.03 1051.67 1083.48C1051.53 1083.07 1051.39 1082.79 1050.98 1082.52H1050.84C1050.29 1082.52 1049.61 1082.52 1049.06 1082.65C1048.78 1082.65 1048.51 1082.79 1048.37 1083.07C1047.68 1084.44 1046.99 1085.82 1046.44 1087.19C1045.89 1088.57 1045.48 1089.67 1045.07 1090.9C1030.64 1130.22 1013.04 1168.02 989.398 1202.66C985.274 1208.57 981.013 1214.34 976.477 1219.84C974.965 1221.63 973.453 1223.41 971.803 1225.2C957.92 1240.73 941.974 1254.34 924.242 1265.61L918.881 1268.91L911.87 1273.31L906.097 1276.89C903.21 1278.67 900.736 1277.99 898.674 1275.37C891.938 1266.58 886.165 1257.23 881.491 1247.2C881.354 1246.92 881.216 1246.51 881.079 1246.23C880.117 1244.31 879.292 1242.38 878.467 1240.46C870.082 1221.49 865.546 1201.15 864.996 1180.53C864.859 1174.89 864.996 1169.12 865.409 1163.48V1163.07C866.921 1141.76 873.656 1121.28 885.065 1103.14C886.577 1100.8 888.089 1098.46 889.739 1096.26C892.901 1091.86 896.475 1087.74 900.186 1083.75C906.097 1077.57 912.832 1071.93 920.118 1067.26C923.005 1065.33 926.029 1063.55 929.19 1061.9C935.239 1058.74 940.737 1054.75 945.823 1050.21L946.098 1049.94C950.084 1046.36 953.796 1042.38 957.37 1038.25C958.332 1037.16 959.294 1035.92 960.256 1034.82C962.593 1031.93 964.793 1029.04 966.855 1026.16C968.916 1023.27 970.978 1020.25 973.04 1017.22C975.927 1012.69 978.676 1008.01 981.288 1003.34C982.937 1000.18 984.587 997.017 986.099 993.718C991.872 982.446 995.996 970.349 998.883 957.978ZM940.737 943.407C941.424 940.795 942.249 938.321 943.349 935.847C945.548 930.898 949.26 926.637 953.796 923.613C954.483 923.2 955.17 922.65 955.858 922.238C957.37 921.413 958.882 920.726 960.394 920.176L961.356 919.901C962.456 919.626 963.418 919.351 964.518 919.351C965.48 919.214 966.305 919.214 967.267 919.351C968.367 919.489 969.329 919.626 970.291 919.901C972.353 920.451 974.14 921.413 975.927 922.513C980.326 925.674 983.35 929.661 984.175 934.334C984.312 935.022 984.312 935.709 984.449 936.396C984.587 938.321 984.312 940.245 983.762 942.17C981.838 950.142 979.363 958.115 976.477 965.813C974.277 971.586 971.941 977.085 969.191 982.583C967.679 985.607 966.167 988.632 964.38 991.518C959.294 1000.59 953.383 1009.11 946.785 1017.09L944.861 1019.42C942.799 1021.76 940.737 1024.1 938.538 1026.3C938.125 1026.71 937.85 1027.12 937.438 1027.53L937.3 1027.67C933.727 1031.11 929.878 1034.13 925.616 1036.74C924.242 1037.57 922.867 1038.39 921.355 1039.22C918.331 1040.87 915.032 1042.1 911.595 1042.93C909.121 1043.48 906.647 1043.62 904.172 1043.62H904.035C902.523 1043.48 901.011 1043.34 899.499 1043.07C898.262 1042.79 897.024 1042.52 895.787 1042.1C892.763 1041.14 889.877 1039.77 887.127 1038.12C885.478 1037.02 883.828 1035.92 882.179 1034.68C900.186 1022.45 914.757 1005.95 924.654 986.57C925.341 985.332 925.891 984.095 926.579 982.721L929.465 976.535C934.276 965.676 937.988 954.679 940.737 943.407ZM1043.15 744.226C1041.08 746.426 1038.06 746.838 1035.45 747.938C993.659 763.608 951.734 779.416 909.946 795.224L894.688 800.998C894.825 797.011 897.574 795.499 899.361 793.437C904.86 787.251 909.671 779.829 916.406 775.43C923.142 771.031 931.802 769.519 939.637 766.907C975.927 754.948 1012.35 743.127 1048.64 731.168C1050.71 730.48 1052.49 729.243 1055.24 730.343C1051.81 735.704 1047.27 739.828 1043.15 744.226ZM1194.63 428.754C1191.6 425.18 1188.17 421.743 1184.32 418.857C1178.27 414.046 1171.81 409.647 1164.94 406.073C1158.47 402.636 1151.33 400.3 1143.9 399.612C1128.92 397.963 1115.31 401.262 1103.9 411.434C1090.29 423.53 1085.62 439.063 1087.55 456.521C1089.33 472.192 1094.97 486.625 1105.69 498.447C1107.2 500.234 1108.58 502.021 1109.81 503.945C1112.15 507.381 1114.35 510.681 1116.55 514.117C1095.93 537.073 1075.45 560.166 1054.97 583.26C986.511 660.65 916.819 736.941 847.264 813.232C833.518 812.957 823.483 813.232 820.871 814.469C812.486 818.455 774.409 838.112 753.653 848.834L619.491 797.699L569.73 795.499C569.73 795.637 569.868 795.774 569.868 795.774C570.418 797.149 570.968 798.661 571.517 800.035C572.067 801.41 572.755 803.06 573.442 804.572C525.743 776.942 478.044 749.312 430.345 721.82C381.409 693.641 332.061 666.286 282.163 639.894C280.925 639.206 279.688 638.382 278.314 637.419C278.176 633.845 280.788 631.508 282.438 629.034C301.682 600.992 320.927 572.813 340.446 544.908C373.299 498.034 406.427 451.297 438.181 403.736C449.04 387.516 459.487 370.883 470.071 354.525C471.858 351.776 473.645 349.164 475.295 346.69C476.944 346.552 478.457 347.102 479.694 348.064C527.393 380.643 577.153 409.647 626.364 439.476C643.409 449.785 660.729 459.545 677.637 470.13C688.359 476.865 696.607 476.315 705.954 465.731C721.212 448.273 737.57 431.778 753.653 415.145C821.558 344.765 891.251 276.035 960.669 207.03C1005.34 162.63 1050.43 118.505 1093.59 72.4557C1097.58 68.1944 1101.57 64.0706 1105.55 59.9468C1109.95 53.2112 1115.45 47.5753 1120.81 41.802C1123.15 39.3277 1124.66 39.6026 1127.13 42.0769C1127.68 42.6267 1128.1 43.1766 1128.51 43.7264L1326.04 272.324C1328.38 275.073 1330.71 277.822 1333.19 280.846C1330.99 286.07 1326.86 289.781 1323.15 293.63C1296.62 321.397 1269.96 349.164 1243.43 376.931C1227.07 394.114 1210.71 411.296 1194.63 428.754ZM1349.41 889.11C1354.63 910.691 1355.32 933.097 1351.47 954.816C1349.68 965.951 1346.11 976.672 1341.02 986.707C1337.86 993.305 1333.32 999.353 1327.83 1004.3C1323.57 1007.88 1318.89 1010.49 1313.26 1010.76C1312.84 1010.76 1312.29 1010.76 1312.16 1010.49C1311.88 1009.8 1311.33 1008.98 1311.61 1008.43C1312.98 1005.68 1314.63 1002.93 1315.87 1000.18C1316.69 998.391 1317.65 996.467 1318.34 994.68C1321.78 986.432 1322.6 977.222 1320.68 968.425C1319.99 964.026 1318.34 959.902 1315.73 956.328C1315.45 955.778 1314.77 955.503 1314.08 955.778C1313.94 955.916 1313.81 955.916 1313.67 956.053C1313.12 956.741 1312.84 956.328 1312.71 956.191C1312.71 956.328 1312.71 956.466 1312.84 956.741C1313.81 963.201 1314.91 969.524 1315.87 975.985C1315.18 978.597 1314.36 981.209 1313.67 983.82C1309.54 1001.69 1291.81 1021.35 1266.11 1023.96C1260.33 1024.65 1254.42 1023.82 1249.06 1021.9C1247.69 1021.62 1246.86 1020.25 1247.27 1019.01C1247.27 1018.74 1247.41 1018.6 1247.55 1018.46C1249.34 1015.44 1251.26 1012.55 1252.91 1009.53C1255.93 1004.16 1258 998.254 1258.96 992.068C1259.51 988.219 1259.1 984.233 1257.58 980.659C1257.03 979.697 1256.35 978.734 1255.38 978.184C1254.7 977.772 1254.01 977.772 1253.32 978.047C1252.64 978.459 1252.09 979.009 1251.81 979.697C1251.54 980.384 1251.26 981.209 1251.4 981.896C1252.5 992.206 1248.24 1000.73 1242.46 1008.7C1239.16 1012.96 1235.18 1016.81 1230.78 1019.84C1222.53 1025.33 1211.81 1025.47 1203.56 1019.97C1193.25 1012.82 1186.24 1003.61 1183.36 991.243C1181.71 984.508 1180.61 977.635 1180.19 970.624C1179.51 956.328 1176.34 942.17 1171.12 928.836C1169.06 923.75 1167.13 918.801 1162.87 915.09C1162.46 916.052 1161.64 917.152 1161.64 918.114C1161.91 920.726 1162.74 923.2 1163.29 925.812C1163.42 927.324 1162.74 928.836 1161.36 929.661C1158.47 931.31 1155.04 931.998 1151.6 931.448C1150.91 931.173 1150.23 930.898 1149.68 930.348C1148.17 929.936 1146.65 929.523 1145.28 928.974C1140.47 927.324 1136.62 923.613 1134.69 918.801C1132.22 913.028 1131.12 906.842 1131.53 900.657C1132.49 882.649 1140.6 865.742 1153.94 853.508C1155.04 852.408 1156.41 851.583 1157.65 850.621C1164.39 845.122 1173.18 843.061 1181.71 844.848C1183.22 845.122 1184.59 845.81 1185.83 846.635C1199.85 857.082 1216.07 862.168 1232.98 865.192C1259.78 870.003 1287.41 868.078 1313.39 859.556C1319.58 857.357 1325.63 854.607 1331.4 851.446C1333.05 850.483 1335.11 851.033 1336.07 852.683C1336.07 852.82 1336.21 852.958 1336.21 852.958C1341.85 864.642 1346.38 876.738 1349.41 889.11ZM1264.59 819.142C1283.43 817.081 1301.85 812.544 1319.3 805.396C1322.47 804.022 1325.63 802.51 1328.51 800.723C1330.58 799.485 1331.95 797.561 1332.64 795.362C1332.36 795.087 1332.23 794.674 1332.09 794.399C1330.99 791.1 1328.79 789.726 1325.21 790.001C1321.64 790.276 1321.64 788.351 1322.47 785.739C1323.02 783.815 1324.25 783.128 1325.76 783.952C1329.75 786.014 1333.74 787.939 1336.21 791.925C1339.24 794.399 1341.85 797.286 1343.91 800.585C1349.27 808.833 1349.55 817.218 1345.15 826.015C1342.95 830.139 1340.06 833.851 1336.49 836.875C1330.44 842.236 1323.29 846.497 1315.73 849.384C1284.66 861.205 1250.44 862.168 1218.68 852.133C1209.75 849.384 1201.36 845.26 1193.8 839.761C1188.72 836.188 1184.45 831.514 1181.29 826.153C1176.76 817.905 1177.03 809.795 1181.29 801.685C1182.81 798.936 1184.59 796.461 1186.65 794.125C1190.37 789.588 1194.9 785.877 1200.13 783.128C1201.09 782.578 1201.77 782.715 1202.05 783.54C1203.84 788.214 1204.39 793.3 1203.56 798.386C1203.56 798.661 1202.87 798.936 1202.6 798.936C1201.5 798.798 1200.4 798.523 1199.3 798.386C1198.61 797.561 1197.93 796.874 1196.96 796.186C1196.41 795.911 1195.18 795.774 1194.9 796.186C1194.35 797.011 1193.94 797.973 1194.08 799.073C1194.21 800.585 1195.45 801.822 1196.96 801.96C1200.26 805.946 1204.94 808.008 1209.47 810.07C1226.66 817.768 1245.76 820.929 1264.59 819.142ZM1307.89 457.621C1303.22 462.707 1298.55 467.655 1293.87 472.741C1291.54 475.491 1288.1 477.14 1284.53 477.278C1267.48 478.652 1250.57 480.302 1233.67 482.089C1228.99 474.803 1224.04 467.655 1218.96 460.645C1228.85 459.82 1238.89 458.995 1248.79 458.033C1265.01 456.658 1281.23 455.146 1297.45 453.772C1301.3 453.497 1305.28 453.359 1308.86 453.222C1309.96 455.559 1308.86 456.658 1307.89 457.621ZM1299.65 346.827C1298.82 345.728 1299.1 344.078 1300.06 343.253C1309.54 331.844 1319.17 320.572 1328.51 309.026C1330.71 306.276 1334.01 304.489 1337.59 304.352C1368.1 300.503 1398.62 296.379 1429 292.393C1439.03 291.018 1449.07 289.506 1459.1 287.994C1460.61 286.482 1462.68 285.795 1464.74 286.07C1465.84 286.07 1466.8 286.62 1466.66 287.857C1466.52 289.094 1466.11 289.919 1464.74 289.781C1452.78 302.428 1440.68 314.799 1429 327.72C1425.29 332.119 1419.93 334.731 1414.15 335.006C1396.83 336.518 1379.51 338.442 1362.33 340.367C1345.15 342.291 1327.83 344.216 1310.51 346.14C1307.07 346.827 1303.36 346.965 1299.65 346.827Z" fill="#2C2729"/>
<path d="M905.549 1046.23H904.312C902.525 1046.09 900.875 1045.95 899.226 1045.68C897.851 1045.4 896.477 1044.99 895.24 1044.72C891.94 1043.62 888.916 1042.24 885.892 1040.45C884.105 1039.35 882.318 1038.12 880.669 1036.88C879.981 1036.33 879.569 1035.51 879.569 1034.68C879.569 1033.86 880.119 1033.03 880.806 1032.48C899.501 1019.84 913.659 1003.2 924.244 981.621C925.206 979.697 926.168 977.635 926.993 975.573C931.529 965.126 935.241 954.129 937.852 942.995C938.54 940.245 939.502 937.496 940.739 934.885C943.213 929.524 947.2 924.85 952.148 921.551C952.836 921.001 953.523 920.589 954.485 920.039C956.135 919.077 957.784 918.389 959.571 917.839L960.533 917.564C961.771 917.152 963.008 917.015 964.245 916.877H967.544C968.781 917.015 970.018 917.152 971.118 917.427C973.455 918.114 975.654 919.077 977.579 920.451C983.489 924.575 986.926 930.211 987.201 936.534C987.338 938.733 987.063 940.933 986.513 943.132C984.452 951.242 981.977 959.215 979.091 967.05C976.891 972.824 974.417 978.597 971.805 984.095C970.431 986.982 968.781 990.006 966.994 993.168C961.908 1002.24 955.86 1011.04 949.124 1019.01L947.2 1021.35C945.138 1023.68 942.938 1026.02 940.739 1028.36L940.327 1028.77C940.052 1029.05 939.777 1029.32 939.639 1029.59L939.364 1029.87C934.553 1034.54 928.917 1038.67 922.869 1041.83C919.708 1043.62 916.134 1044.99 912.422 1045.82C910.085 1045.95 907.886 1046.23 905.549 1046.23ZM871.321 1015.71C868.71 1015.71 866.51 1014.06 865.685 1011.59C865.685 1011.45 865.686 1011.31 865.548 1011.31C865.411 1010.35 865.411 1009.25 865.823 1008.43C865.96 1007.88 866.235 1007.33 866.51 1006.78C866.923 1005.95 867.198 1005.13 867.61 1004.44L903.487 937.084L903.9 936.259L904.724 934.61C905.137 933.785 905.687 932.823 906.374 931.998C907.336 930.761 908.573 929.661 910.085 929.111C910.223 929.111 910.36 928.974 910.36 928.974C911.185 928.699 912.01 928.561 912.835 928.561C913.934 928.561 915.034 928.836 915.996 929.249C916.546 929.524 917.371 929.661 918.058 929.936C919.158 930.348 920.257 930.623 921.22 931.036C922.044 931.311 923.007 931.723 924.106 932.273C924.244 932.273 924.244 932.41 924.381 932.41C925.343 932.96 926.031 933.922 926.581 934.885C927.131 935.847 927.405 937.084 927.405 938.184V938.458L926.993 940.52C926.718 941.62 926.306 942.582 926.031 943.545C925.756 944.232 925.481 944.919 925.343 945.606C923.969 950.28 922.319 955.091 920.395 959.627C917.921 965.676 915.034 971.587 911.735 977.222C907.611 984.233 903.075 991.106 897.989 997.567C896.889 998.941 895.927 1000.18 894.827 1001.42C894.14 1002.24 893.315 1003.07 892.628 1003.89C889.466 1007.19 885.892 1010.21 881.906 1012.69C880.394 1013.65 878.744 1014.61 876.957 1015.16C875.308 1015.85 873.521 1016.12 871.596 1016.12L871.321 1015.71ZM798.605 1072.9C768.913 1072.9 742.933 1062.04 721.352 1040.45C718.465 1037.43 715.853 1034.13 713.791 1030.56C713.654 1030.28 713.379 1030.01 713.242 1029.73L712.829 1029.05C709.118 1023.13 707.606 1017.77 708.018 1012.27V1012.14C708.156 1011.04 708.293 1009.8 708.568 1008.7C708.705 1008.01 708.843 1007.19 709.118 1006.5C709.805 1004.44 710.63 1002.52 711.592 1000.59C714.341 995.505 716.953 990.281 719.565 985.195C729.05 966.638 738.809 946.019 749.256 922.513C757.092 905.056 764.377 887.736 770.013 874.677L770.425 873.852L770.563 873.577C770.838 873.165 771.25 872.615 771.662 872.065C772.075 871.378 772.625 870.553 773.312 869.591C773.862 868.766 774.686 868.354 775.649 868.354C776.061 868.354 776.473 868.491 776.886 868.628C780.597 870.553 784.171 872.752 787.608 875.227C800.667 884.436 811.663 896.67 819.636 910.417C826.922 922.651 832.42 935.709 836.131 949.455C837.918 956.053 839.293 962.926 840.118 969.8C840.668 974.336 841.08 979.009 841.217 983.683C841.355 986.02 841.355 988.494 841.355 990.694C841.355 992.755 841.355 994.955 841.217 997.704C840.943 1004.85 840.118 1012 839.018 1019.01C838.468 1022.86 837.506 1026.71 836.131 1030.42C834.894 1034.13 833.107 1037.84 831.183 1041.28C826.922 1048.56 822.798 1056.12 818.399 1064.37L817.987 1065.06C817.712 1065.61 817.299 1066.16 816.887 1066.85C815.65 1068.63 814 1070.01 812.076 1070.97C811.526 1071.25 810.976 1071.52 810.289 1071.66C810.014 1071.8 809.602 1071.93 809.189 1072.07C808.089 1072.35 806.852 1072.48 805.615 1072.62C803.553 1072.76 801.354 1072.76 799.292 1072.76L798.605 1072.9Z" fill="#F7F6F5"/>
<path d="M779.082 1151.11C778.12 1151.11 777.157 1151.11 776.195 1150.97C773.721 1150.84 771.109 1150.56 768.635 1150.01C766.71 1149.6 764.649 1149.05 762.862 1148.36C737.294 1139.43 714.2 1125.68 693.994 1107.67C691.107 1105.06 688.358 1102.59 685.884 1100.11C683.547 1097.78 681.347 1095.58 679.423 1093.38C671.725 1084.99 664.44 1075.92 658.116 1066.43C653.03 1058.87 651.793 1049.94 654.405 1041.14C657.292 1031.66 664.715 1023.55 673.512 1019.97C673.924 1019.84 674.199 1019.7 674.474 1019.7L674.749 1019.56C677.224 1018.74 679.835 1018.32 682.447 1018.05C682.859 1018.05 683.409 1017.91 683.959 1017.91H684.371C685.059 1017.91 685.471 1017.91 686.021 1018.05C688.633 1018.32 690.97 1020.11 691.932 1022.72C692.344 1023.55 692.619 1024.23 692.757 1025.06C695.643 1036.61 701.692 1047.33 710.214 1055.85C711.039 1056.81 711.864 1057.64 712.826 1058.46C714.475 1059.97 716.125 1061.62 718.187 1063.27C720.799 1065.47 723.685 1067.67 726.984 1070.01C730.008 1072.21 733.307 1074.13 736.744 1075.92L738.943 1077.02L739.356 1077.29C740.318 1077.71 741.143 1078.12 742.105 1078.53C743.48 1079.22 744.854 1079.77 746.229 1080.32L749.115 1081.55L754.476 1083.62C756.401 1084.3 758.6 1084.99 761.075 1085.68C764.099 1086.5 767.123 1087.19 770.147 1087.74L771.659 1088.02C778.67 1089.25 785.818 1089.8 792.965 1089.8H795.302C796.539 1089.8 797.777 1089.8 799.151 1089.67C801.213 1089.67 803.138 1089.53 805.199 1089.53H805.887C809.598 1089.53 812.76 1092.28 813.31 1095.99C813.997 1100.39 814.272 1105.06 813.997 1109.6C813.859 1111.8 813.585 1114 813.172 1116.2C812.347 1120.46 810.973 1124.58 809.048 1128.57C807.536 1131.59 805.887 1134.48 803.825 1137.09C803 1138.33 802.038 1139.43 800.663 1140.94C799.289 1142.45 798.051 1143.69 796.952 1144.92C795.027 1146.71 792.828 1148.22 790.354 1149.32C787.055 1150.42 783.618 1151.11 779.082 1151.11ZM718.874 930.073C718.599 930.073 718.324 930.073 718.187 929.936C708.29 927.186 699.355 921.551 691.245 916.052C649.456 888.148 616.191 850.621 592.273 804.709C592.273 804.572 592.135 804.572 592.135 804.434C591.723 803.334 591.448 802.235 591.173 801.135C590.898 799.898 591.723 798.523 592.96 798.111C593.098 798.111 593.235 797.973 593.51 797.836C594.197 797.424 595.022 797.011 595.984 797.011C596.534 797.011 597.084 797.149 597.496 797.424C603.27 800.723 609.593 803.884 617.016 807.183C631.861 813.919 646.982 819.28 661.141 824.091C672.137 827.802 682.997 832.064 693.581 836.325C708.152 841.961 723.135 847.872 738.256 852.408C739.356 852.683 740.318 853.095 741.28 853.645C751.865 858.319 752.827 860.93 747.878 871.927C740.73 888.423 733.582 904.918 726.297 921.413L725.885 922.238C724.785 924.712 723.548 927.736 720.249 929.661C719.836 929.936 719.424 930.073 718.874 930.073Z" fill="#F7F6F5"/>
<path d="M935.379 1312.08C931.53 1312.08 928.094 1310.56 925.07 1307.4C923.695 1306.03 922.183 1304.79 920.533 1303.55C917.234 1301.08 913.798 1298.47 911.873 1294.07C911.598 1293.24 911.598 1292.42 912.011 1291.73C913.11 1289.81 914.76 1288.16 916.685 1287.06L917.647 1286.51C918.471 1286.1 919.296 1285.68 920.121 1285.41C920.671 1285.13 921.221 1285 921.771 1284.72C931.118 1280.19 940.053 1274.69 948.163 1268.09C951.05 1265.89 953.799 1263.42 956.548 1260.94C957.923 1259.7 959.572 1258.19 961.222 1256.54L964.521 1253.24C966.445 1251.32 968.37 1249.26 970.019 1247.2L971.119 1245.82C972.906 1243.76 974.693 1241.7 976.342 1239.64C985.69 1228.09 994.487 1215.99 1002.46 1203.35C1003.56 1201.7 1004.52 1199.91 1005.62 1198.26C1015.66 1181.76 1024.59 1164.31 1032.01 1146.57C1040.12 1128.02 1045.9 1108.64 1049.47 1088.7V1088.15C1049.47 1088.29 1049.47 1088.29 1049.33 1088.29C1048.78 1089.39 1048.37 1090.63 1047.96 1091.73C1031.88 1135.85 1013.59 1172.55 992.013 1204.17C974.555 1229.88 952.424 1251.18 926.169 1267.81C925.207 1268.5 924.245 1269.05 923.145 1269.74C922.32 1270.29 913.798 1275.65 913.798 1275.65L908.024 1279.22C906.512 1280.19 905 1280.6 903.488 1280.6C901.839 1280.6 899.364 1280.05 897.028 1277.02C890.155 1268.09 884.244 1258.47 879.57 1248.3L879.158 1247.47C878.195 1245.41 877.371 1243.48 876.409 1241.42C867.886 1222.04 863.212 1201.56 862.662 1180.39C862.525 1174.62 862.662 1168.84 863.075 1163.21V1162.79C864.587 1141.21 871.597 1120.04 883.144 1101.62C884.381 1099.7 886.031 1097.09 887.955 1094.61C891.254 1090.08 894.828 1085.82 898.677 1081.83C904.725 1075.51 911.598 1069.73 919.021 1064.92C922.458 1062.72 925.482 1060.94 928.231 1059.42C934.004 1056.4 939.365 1052.55 944.314 1048.15L944.589 1047.88C948.438 1044.44 952.149 1040.59 955.448 1036.61C956.411 1035.51 957.373 1034.41 958.198 1033.31C960.397 1030.56 962.596 1027.67 964.796 1024.78C966.858 1021.9 968.919 1018.87 970.844 1015.99C973.731 1011.59 976.48 1006.91 978.954 1002.24C980.604 999.079 982.253 995.917 983.765 992.756C988.989 981.484 993.113 969.525 995.999 957.428C996.274 956.466 996.412 955.504 996.824 954.267L997.374 952.205L997.649 950.968C997.924 949.731 999.023 948.906 1000.26 948.906H1000.81L1010.85 950.83C1026.1 953.717 1040.54 956.466 1055.11 959.353C1057.03 959.765 1058.68 960.315 1060.47 960.727C1061.43 961.002 1062.53 961.415 1063.63 961.69C1064.18 961.827 1064.59 961.964 1065.14 962.239C1068.72 963.614 1070.78 967.325 1070.09 971.037C1069.68 975.298 1069.4 979.697 1069.13 983.821C1068.85 991.381 1067.89 999.079 1066.38 1006.5C1065 1012.41 1064.04 1018.46 1063.22 1024.37C1062.94 1026.3 1062.67 1028.22 1062.39 1030.28C1062.53 1030.01 1062.81 1029.73 1062.94 1029.46C1063.35 1028.91 1063.63 1028.22 1063.9 1027.67V1027.53C1064.04 1027.4 1064.04 1027.26 1064.18 1026.98C1065.42 1023.41 1066.79 1019.84 1068.44 1015.71L1070.64 1010.08C1073.39 1003.07 1075.73 995.917 1077.38 988.769C1077.93 986.295 1078.34 983.958 1078.75 981.759C1078.75 981.346 1078.89 980.797 1079.03 980.384V980.109C1079.3 978.735 1079.58 977.635 1079.85 976.535C1080.26 975.023 1080.68 973.649 1081.09 972.137L1081.22 971.724C1081.64 969.937 1082.87 968.425 1084.39 967.463L1084.52 967.325C1085.62 966.776 1086.86 966.501 1088.1 966.501C1088.65 966.501 1089.34 966.501 1089.88 966.638C1098 968.013 1100.61 971.449 1100.61 979.834V983.133C1100.06 992.893 1098.68 1002.65 1096.48 1012.14L1095.11 1018.32C1094.28 1022.03 1093.46 1026.43 1092.63 1030.69C1092.22 1033.31 1090.85 1035.78 1088.92 1037.57C1088.51 1037.98 1088.24 1038.26 1087.82 1038.53C1087.14 1039.08 1086.17 1039.63 1085.35 1040.18L1082.74 1041.42C1080.4 1042.52 1078.06 1043.75 1075.73 1044.85C1074.21 1045.54 1072.56 1046.37 1071.05 1047.05C1068.44 1048.15 1065.97 1049.39 1063.63 1050.76C1063.08 1051.18 1062.39 1051.59 1061.84 1052.28C1060.74 1053.38 1060.19 1054.75 1060.33 1056.26C1060.33 1056.81 1060.47 1057.36 1060.61 1057.91C1060.88 1058.74 1061.29 1059.42 1061.84 1060.25C1062.12 1060.52 1062.39 1060.94 1062.53 1061.21L1062.67 1061.35C1063.9 1062.86 1065.28 1064.1 1066.79 1065.61L1068.44 1067.26C1069.13 1067.95 1069.95 1068.63 1070.78 1069.18C1071.33 1069.73 1072.02 1070.15 1072.56 1070.56C1076.41 1073.17 1079.44 1077.29 1080.81 1081.83C1080.95 1082.24 1081.09 1082.79 1081.22 1083.48C1081.91 1087.74 1081.64 1092 1080.26 1095.99C1076 1110.56 1072.15 1123.21 1068.17 1134.75C1064.59 1145.06 1061.16 1154.41 1057.31 1163.34C1056.07 1166.37 1054.83 1169.39 1053.32 1172.69C1041.91 1198.4 1031.19 1219.02 1019.51 1237.3C1013.59 1246.65 1007 1255.72 1000.12 1264.24C995.999 1269.33 991.738 1274.41 987.202 1279.36C981.154 1285.96 974.418 1292.01 967.27 1297.37C966.17 1298.19 965.071 1299.02 963.833 1299.71C962.047 1300.94 960.122 1302.04 957.923 1303.42C952.837 1306.3 947.613 1308.92 942.115 1310.84C939.778 1311.66 937.441 1312.08 935.379 1312.08ZM626.092 1260.12C623.756 1260.12 621.694 1258.88 620.457 1256.96C618.807 1254.62 619.357 1251.46 621.556 1249.53L621.694 1249.39C623.206 1248.3 624.855 1247.2 626.367 1246.1C632.691 1241.56 639.289 1236.89 646.162 1232.76C649.598 1230.84 652.347 1229.33 654.959 1228.09C655.372 1227.81 655.921 1227.68 656.471 1227.68H656.746C657.159 1227.68 657.571 1227.81 657.983 1228.09C658.671 1228.5 659.358 1229.05 659.908 1229.46C660.595 1230.01 661.007 1230.98 660.87 1231.94C660.87 1232.21 660.87 1232.35 660.733 1232.62C660.595 1233.72 660.595 1234.82 659.77 1235.79C659.358 1236.34 658.946 1236.89 658.533 1237.3C657.983 1237.99 657.296 1238.67 656.609 1239.36C655.921 1240.05 655.234 1240.73 654.409 1241.28C653.172 1242.25 651.935 1243.07 650.56 1244.03L649.323 1245C643.825 1248.85 638.326 1252.83 632.828 1256.68L631.178 1257.78C630.354 1258.47 629.392 1259.02 628.429 1259.29C627.879 1259.98 627.055 1260.12 626.092 1260.12ZM717.916 1236.2C706.507 1236.2 695.098 1235.1 683.963 1232.76C683.139 1232.62 682.451 1232.35 681.627 1232.07C680.527 1231.8 679.565 1231.11 678.74 1230.43L678.19 1229.88C678.053 1229.74 677.915 1229.46 677.778 1229.33L677.64 1229.19C677.503 1229.05 677.503 1228.91 677.365 1228.78C677.228 1228.64 677.228 1228.5 677.228 1228.23C676.678 1226.3 676.678 1224.24 677.365 1222.32C677.64 1221.22 677.915 1220.12 678.053 1219.29L678.328 1218.19C679.015 1214.75 679.427 1211.18 679.702 1207.47C680.115 1203.62 678.053 1199.91 674.754 1198.26C674.204 1197.98 673.654 1197.85 673.104 1197.71C672.554 1197.57 671.867 1197.57 671.317 1197.57C670.355 1197.57 669.255 1197.71 668.293 1198.12C667.331 1198.53 666.506 1198.95 665.819 1199.63C662.107 1202.52 658.396 1205.13 654.684 1207.74C653.447 1208.71 652.073 1209.53 650.835 1210.49L649.048 1211.73C645.749 1214.07 643.275 1215.72 640.251 1215.72C637.227 1215.72 634.615 1214.07 630.216 1211.32C623.068 1206.64 615.92 1201.42 609.322 1196.06L604.374 1191.94C601.35 1189.46 598.325 1186.85 595.439 1184.24C593.514 1182.59 591.727 1180.94 589.803 1179.43C584.304 1174.62 578.668 1169.81 573.17 1165.13C552.276 1146.99 530.557 1128.15 507.876 1111.52C497.842 1104.1 489.594 1098.46 481.896 1093.79C473.648 1088.7 464.988 1084.17 456.191 1080.32C447.394 1076.47 438.321 1073.45 428.974 1071.11C422.101 1069.46 414.953 1068.5 407.805 1068.22L405.056 1067.95C400.657 1067.81 396.258 1067.53 391.997 1067.26C388.285 1066.98 384.574 1066.85 380.862 1066.85C371.928 1066.85 362.993 1067.67 354.195 1069.18C349.109 1070.15 343.886 1071.38 338.937 1073.03C338.662 1073.17 338.387 1073.17 338.112 1073.17C337.425 1073.17 336.738 1072.9 336.325 1072.48C331.926 1068.63 334.676 1064.92 335.638 1063.82L335.913 1063.41C337.287 1061.49 338.937 1059.56 340.861 1057.36C345.398 1052.28 350.209 1047.33 355.432 1042.93C361.068 1038.12 366.979 1033.44 373.027 1029.18C374.539 1028.08 376.189 1027.12 377.976 1026.3L378.251 1026.16C381.55 1024.78 384.986 1023.96 388.698 1023.82H390.347C391.447 1023.82 392.547 1023.82 393.646 1023.96C405.193 1025.06 416.74 1026.85 428.149 1029.05C437.771 1030.97 447.393 1033.31 456.741 1036.06C463.614 1038.12 470.487 1040.32 477.222 1042.79C497.704 1050.35 516.674 1061.9 534.819 1077.84C542.241 1084.3 549.802 1091.32 557.912 1099.15C561.623 1102.72 565.472 1106.57 569.734 1110.97C573.17 1114.55 576.607 1117.98 580.043 1121.56C588.291 1130.22 595.164 1137.23 601.762 1143.55C610.284 1151.94 618.257 1159.22 625.818 1165.82C627.605 1167.33 629.529 1168.84 631.591 1170.35C636.265 1173.79 641.351 1176.68 646.712 1178.88C646.986 1179.02 647.399 1179.15 647.674 1179.29L647.949 1179.43L648.499 1179.7L649.598 1180.25L650.423 1180.66L650.973 1180.8H651.385C651.385 1180.8 651.523 1180.66 651.523 1180.53L651.385 1180.39L651.11 1180.11C650.835 1179.84 650.423 1179.56 650.011 1179.29L649.323 1178.74C648.773 1178.33 648.086 1177.92 647.536 1177.37L646.437 1176.4C645.199 1175.44 643.825 1174.48 642.313 1173.38L640.938 1172.42C624.993 1160.87 610.284 1147.67 597.226 1133.1C593.514 1129.12 589.665 1124.99 585.954 1121.01L584.992 1119.91C570.146 1104.37 554.75 1088.98 539.217 1074.13L536.193 1071.25L529.183 1064.65C507.876 1044.99 483.408 1030.01 456.054 1020.11C451.38 1018.46 446.706 1016.81 441.895 1015.44C439.696 1014.75 437.359 1014.06 435.159 1013.37C433.785 1012.96 432.548 1012.55 431.173 1012.14L429.249 1011.73C428.836 1011.59 428.286 1011.45 427.874 1011.31C427.324 1011.04 426.774 1010.63 426.362 1010.21C425.675 1009.53 425.262 1008.56 425.262 1007.6V1007.33C425.262 1006.5 425.537 1005.81 425.95 1005.26C426.499 1004.58 427.049 1004.03 427.874 1003.62L428.424 1003.2C429.111 1002.79 429.799 1002.52 430.486 1002.24C432.135 1001.69 433.647 1001.55 435.297 1001.55C435.984 1001.55 436.672 1001.55 437.359 1001.69C438.184 1001.42 438.871 1001.14 439.696 1000.87C445.744 999.079 451.93 997.979 458.115 997.704L461.14 997.567C466.913 997.292 472.549 997.154 477.772 997.154C480.934 997.154 483.958 997.154 486.982 997.292C490.694 997.429 493.993 997.567 497.292 997.842C512.825 998.804 528.358 1001.69 543.341 1006.5C558.599 1011.45 573.308 1018.32 586.916 1026.85C588.428 1027.81 589.94 1028.77 591.315 1029.73C592.552 1030.56 593.652 1031.24 594.751 1032.07C597.226 1033.72 599.7 1035.51 602.037 1037.43C607.948 1041.97 613.584 1046.92 619.082 1052C623.893 1056.67 628.429 1061.9 632.416 1067.26C634.615 1070.42 636.402 1073.03 638.189 1075.64C639.976 1078.39 641.626 1081.28 643.413 1084.3C649.186 1094.89 656.609 1104.24 665.681 1112.21C668.018 1114.27 670.492 1116.47 673.791 1119.49L674.616 1120.32C679.015 1124.31 683.551 1128.43 688.087 1132.28C692.623 1136.13 697.435 1139.56 702.383 1142.73C709.394 1147.12 715.167 1150.42 720.665 1153.31C721.628 1153.86 722.727 1154.41 723.827 1154.82C733.174 1159.63 743.072 1162.93 753.244 1164.99C754.893 1165.27 756.405 1165.82 757.78 1166.23L760.254 1167.06C762.041 1167.47 763.691 1168.43 764.928 1169.94C764.928 1169.94 764.928 1170.08 765.065 1170.08C765.34 1170.49 765.615 1170.77 765.753 1171.18C766.028 1171.59 766.165 1172 766.302 1172.42C766.44 1172.97 766.577 1173.65 766.715 1174.2C766.852 1175.03 766.852 1175.85 766.852 1176.54C766.852 1177.64 766.99 1178.74 767.127 1179.7L767.54 1182.59C767.814 1184.51 767.952 1186.58 767.815 1188.5C766.99 1198.12 758.742 1198.4 752.144 1198.53C750.769 1198.53 749.257 1198.67 747.883 1198.67C742.522 1198.95 737.161 1199.5 732.625 1200.05C730.15 1200.32 727.813 1200.6 725.339 1200.87C721.628 1201.28 717.916 1201.83 714.205 1202.25H713.655C712.693 1202.11 711.868 1202.11 710.906 1201.97C710.218 1201.83 709.394 1201.83 708.569 1201.7C708.706 1201.7 708.706 1201.7 708.844 1201.83C720.253 1205.27 733.587 1208.84 746.92 1208.84C750.494 1208.84 754.068 1208.57 757.505 1208.02H758.33C758.88 1207.88 759.429 1207.88 759.979 1207.88C763.141 1207.88 764.79 1209.39 765.615 1210.77C765.89 1211.04 766.027 1211.59 766.302 1212.01C766.44 1212.42 766.577 1212.83 766.577 1213.11C766.715 1213.79 766.852 1214.48 766.852 1215.3V1215.85C766.99 1216.13 766.99 1216.4 766.99 1216.68C766.99 1218.05 766.99 1219.57 766.852 1221.08C766.715 1222.73 766.577 1224.24 766.44 1225.48C766.302 1226.03 766.302 1226.3 766.165 1226.71C765.753 1228.09 765.065 1229.19 763.966 1230.15C762.591 1231.39 760.941 1232.07 759.154 1232.21C747.333 1233.72 738.26 1234.69 729.6 1235.24C726.164 1235.92 722.04 1236.2 717.916 1236.2ZM708.569 1201.97C707.332 1201.83 705.957 1201.83 704.72 1201.83C703.758 1201.83 702.796 1201.7 701.971 1201.56C701.696 1201.56 701.558 1201.56 701.283 1201.42C701.833 1201.56 702.383 1201.7 702.933 1201.7C703.483 1201.83 704.033 1201.83 704.583 1201.97H708.569Z" fill="#FEF6D1"/>
<path d="M218.656 257.203C218.107 257.203 217.694 257.066 217.282 256.791C216.594 256.378 216.045 255.691 215.907 254.866C215.632 253.217 215.495 251.567 215.357 250.055V249.918C215.632 244.419 213.845 239.058 209.859 233.01C208.209 230.398 206.56 227.924 204.773 225.312C203.536 223.663 203.673 221.463 205.048 220.089C208.347 215.552 209.309 210.191 208.347 202.356C206.835 188.748 199.687 176.239 188.827 167.991C181.405 162.08 173.157 157.132 164.497 153.42C163.397 153.008 162.297 152.458 161.335 152.046C159.823 151.358 158.311 150.808 156.937 150.121C153.775 148.746 150.888 146.959 148.414 144.485C146.49 142.698 144.428 140.911 142.366 139.399C134.393 133.351 126.558 127.303 118.722 121.254C98.9281 105.996 78.4464 90.3257 57.6899 75.4799C49.3048 69.5691 40.6447 63.5208 32.2596 57.7475C28.5482 55.1357 24.6993 52.524 20.9879 49.9122C20.5755 49.6373 20.1631 49.3624 19.6132 49.0874C18.9259 48.6751 18.1012 48.1252 17.4139 47.5754C12.3278 43.8639 8.89131 38.3655 7.65417 32.1798C6.8294 28.6058 7.92909 24.6194 10.8158 22.1451C13.565 19.3959 16.864 17.4715 20.5755 16.6467C26.3488 12.9353 32.9469 10.8734 39.82 10.3235C42.9816 10.0486 46.2806 9.91113 49.4422 9.91113C55.4905 9.91113 61.5388 10.461 67.4496 11.5607C75.9721 13.0727 84.6322 15.2721 91.9176 17.0591C96.4538 18.1588 100.853 19.5334 105.114 21.4578L108.963 23.1074C117.76 26.9563 126.97 30.9426 135.63 35.4788C162.435 49.4998 188.14 66.1326 212.058 84.6898C216.869 88.4012 221.406 92.525 225.942 96.3739C227.179 97.4736 228.416 98.5733 229.653 99.5355C232.54 102.01 233.227 105.034 231.44 108.333C230.753 109.708 229.928 111.22 229.241 112.594C227.454 115.893 225.667 119.33 223.88 122.766C223.742 123.041 223.742 123.316 223.742 123.454C224.155 123.316 225.117 123.041 225.392 123.041C235.839 110.12 246.836 97.3362 258.108 85.1022C271.304 70.5313 286.562 57.8849 303.195 47.4379C309.518 43.4516 316.254 40.1525 323.264 37.6782C331.649 34.7915 340.309 33.2795 349.107 33.2795C352.818 33.2795 356.667 33.5544 360.378 34.1042H360.653C361.616 34.3791 362.578 34.6541 363.403 35.2039C372.063 35.2039 379.073 39.3277 383.609 42.3519C388.695 45.7884 391.719 51.1493 392.957 58.1598C393.232 60.9091 392.819 63.5208 391.582 65.8577C388.283 72.7307 384.022 78.9164 378.661 84.4148C371.1 91.9752 362.99 98.9857 355.98 104.759C347.869 111.495 337.148 120.43 326.563 129.502C317.903 137.2 309.93 145.722 302.92 154.932C300.858 157.544 298.933 160.431 297.284 163.317C296.184 165.104 295.772 167.304 296.184 169.503C296.459 171.29 298.659 172.39 300.033 172.39H300.446C302.92 171.565 305.257 170.053 307.044 168.128C309.243 165.792 311.305 163.455 313.367 161.118L318.315 155.757C319.553 154.382 320.927 153.145 322.302 152.046C322.577 151.771 322.989 151.496 323.539 151.358C323.951 151.221 324.364 151.083 324.776 151.083C326.288 151.083 327.8 152.046 328.35 153.558C329.037 154.932 329.45 156.444 329.725 157.956V158.094C331.099 169.091 330.824 180.088 329.312 191.084C328.075 200.432 326.151 209.779 323.539 218.851C321.615 225.312 319.14 231.635 316.254 237.684C315.291 239.883 312.954 241.395 310.48 241.395H310.068C308.968 241.395 308.006 241.395 306.906 241.258C302.095 240.845 297.146 240.708 292.335 240.708C286.699 240.708 280.789 240.983 275.153 241.395H271.441C270.204 241.945 268.83 242.357 267.592 242.632H267.455C253.296 244.969 239.55 248.955 226.354 254.866C224.98 255.416 223.605 255.966 222.093 256.378C221.406 256.653 220.718 256.791 220.031 257.066C219.344 257.203 218.931 257.203 218.656 257.203ZM210.821 383.392H209.584C209.309 383.392 209.034 383.254 208.759 383.254C201.886 381.467 195.151 379.131 188.69 376.244C181.267 372.945 174.806 367.584 170.133 360.848C163.947 352.188 161.885 341.191 164.359 330.882C166.146 323.459 169.033 316.449 173.294 309.988C177.693 303.115 183.054 296.654 189.102 291.156C194.326 286.345 199.824 281.946 205.735 277.96C221.406 267.513 238.588 259.952 256.733 255.416H256.87C258.795 255.004 260.582 254.729 262.506 254.591C263.056 254.179 263.743 253.629 264.706 253.492C272.816 252.117 282.438 250.742 292.06 250.742C294.26 250.742 296.459 250.88 298.521 251.017C308.418 251.567 318.315 253.492 327.663 257.066C332.749 259.127 337.56 261.739 341.959 265.176C356.117 276.035 360.653 291.293 355.155 309.026C352.131 318.648 346.357 327.995 337.697 337.205C336.185 338.717 334.536 340.092 333.024 341.466C332.474 342.016 331.924 342.429 331.374 342.979C330.687 343.528 329.862 343.803 328.9 343.803C327.113 343.803 324.914 342.704 324.364 340.779C322.989 336.38 322.027 331.707 321.477 327.033V326.621C321.615 322.634 324.776 319.473 328.625 319.198C330 318.785 331.512 318.373 332.886 317.823C334.673 316.998 335.91 315.074 335.91 312.875V312.737C336.048 310.263 334.811 308.063 332.611 306.964C330 305.589 327.388 304.627 324.639 304.077C323.264 303.802 321.752 303.39 320.377 302.977C317.766 302.29 315.291 301.603 312.954 301.603C312.13 301.603 311.442 301.74 310.618 301.878C307.456 302.565 304.157 303.115 300.995 303.665C297.421 304.215 293.71 304.764 290.273 305.727C266.218 312.05 243.399 323.871 224.43 339.954C218.381 344.903 213.158 350.539 208.897 356.999C207.385 359.061 206.422 361.261 205.873 363.598V364.01H206.01C206.835 363.598 207.522 363.185 208.347 362.773C208.622 362.635 208.759 362.498 209.034 362.498C209.447 362.36 209.859 362.361 210.271 362.361C210.546 362.361 210.959 362.36 211.234 362.498C212.058 362.635 212.883 362.91 213.433 363.46C213.708 363.598 213.845 363.873 213.983 364.147C214.395 364.835 214.67 365.522 214.67 366.347C215.22 370.471 215.632 374.457 216.182 378.581C216.32 379.818 215.907 381.055 215.082 382.017C213.845 382.567 212.333 383.392 210.821 383.392ZM149.514 332.944H148.826C147.039 332.531 145.115 332.119 143.465 331.294C142.916 331.019 142.366 330.882 141.816 330.607C138.242 329.232 134.393 327.72 131.231 324.971C129.994 324.559 128.757 324.146 127.657 323.597C127.657 323.597 127.52 323.597 127.52 323.459C117.348 317.686 108.413 310.125 100.99 301.053C100.165 299.953 99.203 298.716 98.1033 297.342C95.3541 293.905 92.1925 289.919 90.2681 287.444C89.7182 286.757 89.5808 285.795 89.8557 284.833C90.543 283.046 91.6427 281.121 94.6668 281.121H96.5913C99.4779 281.671 103.327 282.633 106.901 283.733C110.337 284.695 113.911 285.795 116.523 286.207C121.609 287.032 126.695 287.444 131.919 287.444C133.843 287.444 135.63 287.444 137.555 287.307H138.517C139.479 287.307 140.441 287.444 141.403 287.444H142.366C143.328 287.032 144.29 286.895 145.252 286.62H145.527C151.301 286.207 157.074 285.245 162.71 284.283L167.658 283.458H168.071C168.483 283.458 168.758 283.595 169.171 283.733C169.445 283.87 169.72 283.87 170.133 284.008C171.507 284.283 174.119 284.833 175.219 287.857C175.494 288.819 175.356 289.781 174.806 290.606C174.257 291.293 173.707 291.981 173.019 292.668C171.92 294.042 170.683 295.417 169.583 296.929C162.023 306.826 157.624 315.899 155.424 325.384C155.012 327.308 154.325 329.095 153.637 330.745C153.5 331.019 153.363 331.157 153.225 331.294C152.263 332.394 151.026 332.944 149.514 332.944Z" fill="#F7F6F5"/>
<path d="M157.211 219.814C150.475 219.814 143.602 219.539 136.867 218.852C117.76 217.34 98.6525 214.315 80.0953 209.917C76.6588 209.229 73.2222 208.267 69.9232 207.167C61.5381 204.281 54.8025 197.545 51.9158 189.16C49.8539 183.524 48.3418 177.476 47.6545 171.428C47.1047 165.517 47.792 159.606 49.579 153.97C50.2663 150.671 53.2904 148.197 56.727 148.197H76.2464C77.621 147.922 78.9956 147.784 80.5077 147.647H94.8036C101.539 147.647 109.374 147.647 117.21 148.059C139.753 149.022 161.335 156.444 179.617 169.641C181.404 171.015 183.328 172.39 185.528 174.314C196.799 183.937 201.886 196.171 200.648 210.741C200.236 215.14 198.037 217.477 193.638 217.752C190.889 217.889 188.002 217.889 185.39 217.889C175.905 219.264 166.558 219.814 157.211 219.814Z" fill="#F7F6F5"/>
<path d="M139.754 276.448C125.595 276.448 112.812 274.66 100.578 271.087C93.1547 269.025 85.8693 266.413 78.7214 263.251C66.3499 257.753 57.2775 247.993 51.7791 234.385C49.7171 229.024 47.3803 221.876 47.9302 213.903C48.0676 211.566 50.5419 209.779 52.4664 209.779C53.0162 209.779 53.566 209.916 54.1159 210.191C54.5283 210.329 54.9407 210.604 55.2156 210.879L55.353 211.016C60.714 214.865 66.7623 216.79 74.4601 218.577C87.9312 221.738 101.402 223.663 114.049 225.45C125.046 226.962 136.867 227.786 150.476 227.786C157.624 227.786 165.459 227.649 175.219 227.099C176.456 226.549 177.693 226.137 179.068 225.724H179.343C183.329 225.175 187.178 224.212 190.889 222.975C192.126 222.563 193.089 222.425 194.051 222.425C195.975 222.425 198.587 223.113 200.374 226.274C203.261 231.085 205.598 236.446 207.247 241.945C209.996 250.193 207.66 259.54 201.336 265.588C198.862 268.337 195.563 270.124 191.989 270.812C189.927 271.087 188.003 271.499 186.078 271.774C177.418 273.286 168.621 274.935 159.548 274.935H158.036C156.387 275.348 154.737 275.76 153.088 276.035H152.95C148.551 276.31 144.015 276.448 139.754 276.448Z" fill="#F7F6F5"/>
<path d="M756.678 913.303C755.441 913.303 754.204 912.891 752.967 912.203C749.118 909.866 744.994 907.53 741.008 905.33C733.447 901.069 725.612 896.67 718.464 891.309C717.502 890.622 717.09 889.385 717.502 888.285C717.777 887.323 718.189 886.498 718.739 885.673L719.014 885.398C721.626 882.374 724.375 879.488 727.124 876.463C732.073 870.965 737.296 865.329 742.108 859.556C747.194 853.645 752.554 848.009 757.778 842.511C765.063 834.813 772.486 826.977 779.084 818.592C779.359 818.18 779.772 817.905 780.047 817.493C787.332 810.895 793.93 803.472 800.253 796.186C804.24 791.65 808.226 786.977 812.487 782.578L814.962 780.103C825.271 769.519 835.993 758.385 845.615 746.975C848.64 743.401 851.939 739.965 855.1 736.666C859.224 732.405 863.21 728.281 866.647 723.882C871.183 717.834 876.544 712.473 881.768 707.249C887.541 701.338 893.589 695.29 898.4 688.417C898.4 688.417 898.4 688.28 898.538 688.28C899.088 687.592 899.637 687.042 900.187 686.493C904.036 682.369 908.023 678.383 911.734 674.396C920.531 665.324 929.604 655.976 937.714 646.217C942.113 640.856 947.061 635.907 951.735 631.096C958.196 624.498 964.794 617.762 970.155 610.202C970.155 610.202 970.155 610.065 970.292 610.065C970.842 609.377 971.392 608.827 971.942 608.14C975.928 603.879 980.052 599.617 984.176 595.356C992.973 586.284 1002.05 576.799 1010.43 567.039C1014.42 562.366 1018.68 557.967 1022.8 553.568C1029.4 546.695 1036.27 539.41 1042.05 531.712C1042.6 531.025 1043.15 530.337 1043.83 529.65C1053.87 520.44 1063.08 509.993 1072.01 499.958C1075.31 496.247 1078.75 492.398 1082.19 488.549C1085.76 484.563 1089.61 480.576 1093.32 476.865C1101.15 468.755 1109.27 460.232 1116.14 451.022C1116.69 450.335 1117.38 449.648 1117.93 449.098C1121.64 445.112 1125.49 441.125 1129.33 437.139C1138.54 427.517 1148.17 417.619 1156.96 407.31C1161.36 402.224 1166.04 397.275 1170.57 392.602C1177.31 385.591 1184.32 378.306 1190.09 370.47C1190.64 369.646 1191.33 369.096 1192.02 368.409C1202.74 358.511 1212.64 347.377 1222.26 336.655C1226.38 332.119 1230.64 327.308 1234.9 322.772C1248.38 308.201 1262.53 293.63 1276.14 279.609L1278.48 277.272C1281.5 274.248 1281.5 274.11 1278.62 270.811C1274.91 266.413 1271.06 262.014 1267.34 257.753C1261.71 251.292 1255.94 244.694 1250.3 237.958C1245.08 231.773 1239.72 225.449 1234.63 219.264C1229.54 213.078 1224.32 206.755 1218.96 200.706C1215.52 196.583 1211.95 192.596 1208.37 188.61C1205.76 185.586 1203.01 182.562 1200.4 179.537C1198.89 177.888 1197.51 176.101 1196.28 174.451L1192.98 170.328C1186.38 162.355 1179.64 154.52 1172.91 146.684L1167.69 140.636C1165.21 137.749 1162.74 134.863 1160.4 131.976C1154.49 125.103 1148.44 117.955 1142.53 110.807C1135.25 101.872 1127.96 92.6623 1120.81 83.7274L1116 77.6791C1114.49 75.8921 1113.25 73.8302 1111.88 72.0432C1109.27 68.3318 1106.79 64.8952 1103.63 62.0086C1102.53 61.0463 1102.39 59.5343 1103.08 58.4346C1106.65 52.7987 1111.33 47.8501 1115.73 43.1764C1116.69 42.0768 1117.79 40.9771 1118.75 39.8774C1119.85 38.7777 1121.5 37.2656 1123.7 37.2656C1126.04 37.2656 1127.82 38.7777 1129.06 40.1523L1129.2 40.2898L1129.75 40.8396C1130.02 41.1145 1130.3 41.5269 1130.57 41.8018L1328.1 270.536C1329.34 272.049 1330.71 273.561 1331.95 275.073C1333.05 276.31 1334.15 277.684 1335.39 279.059C1336.08 279.884 1336.21 280.984 1335.8 281.946C1333.74 286.894 1330.3 290.468 1326.87 293.767C1326.32 294.317 1325.77 294.867 1325.22 295.554C1298.69 323.321 1272.02 351.089 1245.49 378.856C1180.88 446.349 1119.71 514.942 1057.3 585.184C997.235 652.815 935.377 720.858 875.582 786.564C854.413 809.795 833.381 833.026 812.212 856.257C797.779 872.065 783.346 887.873 768.912 903.543C767.675 904.78 766.575 906.017 765.338 907.392C764.239 908.492 763.276 909.591 762.177 910.691C760.527 912.478 758.74 913.303 756.678 913.303Z" fill="#1F9C89"/>
<path d="M720.113 891.859H719.564C716.127 891.172 713.378 889.385 710.629 887.735C709.804 887.186 708.979 886.636 708.154 886.223C615.918 832.476 522.032 778.179 429.109 724.707C380.448 696.527 330.687 669.035 280.926 642.918C279.827 642.368 278.727 641.543 277.627 640.856L276.94 640.306C276.253 639.756 275.703 638.931 275.703 638.107C275.565 634.258 277.627 631.646 279.277 629.447C279.689 629.034 279.964 628.484 280.376 628.072L290.686 613.089C306.219 590.408 322.302 566.902 338.385 543.946C344.983 534.461 351.581 525.114 358.179 515.629C384.022 478.79 410.689 440.85 436.12 402.774C443.405 391.914 450.553 380.78 457.426 369.921C461 364.422 464.436 358.924 468.01 353.563C469.248 351.501 470.622 349.577 471.859 347.652L473.234 345.59C473.646 344.903 474.471 344.49 475.296 344.353H475.983C478.045 344.353 479.969 345.04 481.482 346.277C520.245 372.395 561.071 397 600.523 420.644C609.732 426.142 618.805 431.641 628.015 437.139C634.475 440.988 641.074 444.974 647.534 448.686C657.981 454.871 668.841 461.195 679.425 467.93C683.686 470.679 687.26 471.917 690.559 471.917C695.096 471.917 699.357 469.442 704.168 463.944C716.539 449.785 729.736 436.177 742.657 422.981C745.819 419.819 748.98 416.52 752.004 413.358C810.15 353.013 870.633 293.08 929.054 235.072C939.088 225.175 949.123 215.277 959.02 205.243C965.756 198.645 972.354 191.909 979.089 185.311C1016.48 148.197 1055.24 109.845 1091.81 70.6686C1095.11 67.0947 1098.41 63.6582 1101.7 60.3591L1103.9 58.1597C1104.45 57.6099 1105.14 57.335 1105.83 57.335C1106.52 57.335 1107.07 57.6099 1107.62 58.0223C1111.33 61.3213 1114.08 65.1702 1116.83 69.0191C1118.2 70.9436 1119.44 72.7306 1120.67 74.3801L1120.81 74.5176C1129.33 85.377 1138.13 96.5113 1147.07 107.371C1152.7 114.244 1158.61 121.117 1164.39 127.852C1167 130.876 1169.61 134.038 1172.22 137.062L1179.78 145.997C1185.69 152.87 1191.47 159.881 1197.38 166.754C1198.61 168.128 1199.71 169.64 1200.81 171.015C1202.05 172.665 1203.43 174.314 1204.8 175.964L1211.81 183.799C1215.66 188.06 1219.65 192.596 1223.49 197.133C1228.72 203.181 1233.94 209.504 1238.89 215.552C1244.11 221.738 1249.47 228.199 1254.84 234.522C1260.06 240.708 1265.42 246.893 1270.64 252.942C1274.77 257.753 1279.03 262.564 1283.15 267.375C1287.83 272.873 1287.69 276.172 1282.74 281.259C1268.44 295.967 1253.74 311.088 1239.3 326.621L1226.93 340.229C1217.17 351.226 1207 362.498 1196 372.67L1194.77 373.907C1188.72 382.155 1181.57 389.578 1174.7 396.863C1170.3 401.537 1165.62 406.21 1161.36 411.159C1152.56 421.331 1143.22 431.091 1134.01 440.576C1130.02 444.699 1125.9 448.961 1121.91 453.222C1121.36 453.772 1120.95 454.184 1120.54 454.734C1113.53 464.081 1105.28 472.741 1097.31 480.989C1093.59 484.838 1089.88 488.687 1086.31 492.673C1082.87 496.385 1079.44 500.371 1076.14 504.082C1067.2 514.254 1057.85 524.701 1047.68 534.049C1047.68 534.049 1047.54 534.049 1047.54 534.186C1047.13 534.461 1046.72 534.874 1046.45 535.286C1040.53 543.396 1033.52 550.682 1026.79 557.692C1022.66 561.953 1018.4 566.352 1014.55 570.888C1006.03 580.648 996.959 590.133 988.162 599.343C984.175 603.604 979.914 607.865 975.928 612.264C975.378 612.814 974.966 613.226 974.691 613.639C969.055 621.474 962.319 628.484 955.721 635.082C951.047 639.894 946.236 644.705 941.975 649.928C933.727 659.825 924.518 669.31 915.72 678.383C911.871 682.369 907.885 686.355 904.173 690.479L904.036 690.617C903.624 691.029 903.211 691.441 902.936 691.854C897.85 699.139 891.664 705.325 885.754 711.373C880.668 716.459 875.444 721.683 871.183 727.456C867.471 732.267 863.348 736.529 859.224 740.79C856.062 743.951 852.901 747.388 850.014 750.824C840.529 762.096 830.082 772.818 820.047 783.265L816.748 786.702C812.487 791.1 808.363 795.774 804.377 800.448C798.054 807.733 791.456 815.156 784.17 821.754L783.758 822.167C777.022 830.827 769.462 838.799 762.176 846.497C756.953 851.996 751.729 857.631 746.781 863.267C741.832 869.041 736.609 874.677 731.66 880.175C729.048 883.062 726.437 885.948 723.687 888.972C723.412 889.385 723.275 889.66 723.138 890.072C722.313 891.034 721.213 891.859 720.113 891.859Z" fill="#24B59F"/>
<path d="M1301.85 349.714H1299.65C1298.83 349.714 1298 349.302 1297.59 348.614C1295.94 346.415 1296.35 343.253 1298.28 341.466C1301.3 337.892 1304.19 334.318 1307.21 330.745C1313.53 323.184 1320.13 315.211 1326.46 307.376C1329.2 304.077 1333.19 301.878 1337.45 301.603C1368.24 297.754 1399.04 293.63 1428.86 289.644C1434.23 288.956 1439.59 288.132 1444.81 287.307C1449.48 286.62 1454.29 285.932 1458.97 285.245H1459.38C1459.79 285.245 1460.07 285.245 1460.48 285.382C1460.89 285.52 1461.44 285.52 1461.99 285.657C1463.5 285.795 1465.43 286.07 1467.08 287.719C1468.04 288.819 1468.04 290.469 1467.08 291.568C1464.19 294.73 1461.17 297.754 1458.28 300.916C1449.35 310.263 1440.14 319.885 1431.48 329.507C1427.35 334.318 1421.17 337.343 1414.71 337.755C1398.76 339.13 1382.4 340.917 1366.59 342.704L1363.02 343.116C1348.72 344.628 1334.29 346.278 1320.13 347.927L1311.34 348.889C1308.04 349.439 1305.01 349.714 1301.85 349.714ZM1352.71 270.949C1347.49 270.949 1343.78 269.162 1340.75 265.313C1338.83 262.839 1336.63 260.502 1334.43 258.028C1332.92 256.516 1331.54 254.866 1330.03 253.217C1328.93 251.842 1328.38 250.192 1328.38 248.543C1328.38 247.306 1328.93 244.557 1333.05 244.557H1333.47C1338.41 244.144 1343.36 243.869 1348.31 243.457C1352.02 243.182 1355.73 242.907 1359.58 242.632C1379.93 240.983 1400.68 239.196 1421.17 237.409L1425.02 237.134C1433.95 236.309 1443.3 235.622 1452.37 234.522C1453.19 234.385 1453.88 234.385 1454.43 234.385C1458.14 234.385 1460.89 235.759 1463.37 238.646C1466.39 242.357 1469.55 246.069 1473.26 250.193C1475.05 252.117 1476.84 254.316 1478.9 256.653C1479.59 257.478 1479.72 258.578 1479.31 259.54C1478.9 260.502 1478.08 261.189 1476.98 261.189C1475.05 261.327 1473.4 261.464 1471.89 261.602C1468.59 261.877 1466.12 262.014 1463.64 262.152C1434.09 263.526 1403.98 266.413 1374.98 269.025C1368.52 269.574 1362.06 270.262 1355.6 270.812C1354.5 270.812 1353.54 270.949 1352.71 270.949ZM579.357 388.89C577.845 388.89 576.333 388.478 574.958 387.516C570.697 385.042 555.851 376.519 555.851 376.519C555.164 376.107 554.751 375.419 554.476 374.732C554.339 373.907 554.476 373.22 554.889 372.533C557.5 368.959 560.525 367.172 563.274 365.66C563.961 365.247 564.511 364.972 565.061 364.56C578.532 356.312 591.866 348.065 605.337 339.817C616.884 332.806 628.293 325.658 639.839 318.648C646.987 314.249 652.898 310.4 658.809 306.414C660.871 305.039 662.795 304.352 664.857 304.352C666.782 304.352 668.569 304.902 670.631 306.139C674.205 308.201 677.779 310.125 681.215 312.05L684.377 313.837C685.064 314.249 685.476 314.799 685.614 315.486C686.851 319.748 683.827 321.397 682.865 321.947C682.727 321.947 682.59 322.084 682.59 322.084C651.524 342.704 620.595 363.185 589.529 383.667C588.842 384.079 588.292 384.492 587.604 384.904C586.367 385.729 585.268 386.416 584.168 387.241C582.793 388.341 581.006 388.89 579.357 388.89ZM682.04 447.999C680.665 447.999 679.291 447.586 678.053 446.899L659.084 435.765C658.259 435.352 657.847 434.527 657.709 433.703C657.572 432.878 657.984 431.916 658.672 431.366L661.971 428.479C664.72 426.005 667.194 423.943 669.668 421.881C690.7 403.599 711.869 385.179 732.625 366.897C736.749 363.46 740.598 359.749 744.172 355.9C746.784 352.876 749.121 350.539 752.557 350.539C754.619 350.539 756.544 351.364 759.43 352.876C762.042 354.388 764.929 355.625 767.678 356.862C768.915 357.412 770.29 358.099 771.527 358.649C772.352 359.061 772.901 359.886 773.039 360.711C773.589 364.697 771.389 366.622 770.152 367.721C770.015 367.859 769.877 367.996 769.602 368.134C743.622 392.877 717.642 417.482 691.525 442.225C690.425 443.187 689.463 444.012 688.501 444.837L687.401 445.799C686.026 447.174 683.964 447.999 682.04 447.999ZM1180.61 491.161C1178.55 491.161 1176.62 490.886 1174.56 490.474C1173.6 490.199 1172.91 489.512 1172.64 488.687C1172.36 487.725 1172.5 486.762 1173.19 486.075C1176.21 482.639 1179.1 479.34 1181.85 476.178C1185.56 471.917 1189.13 467.93 1192.71 463.806C1195.18 461.057 1198.62 459.545 1202.33 459.408C1217.59 458.171 1233.12 456.796 1248.1 455.559H1248.79C1255.25 455.009 1261.71 454.459 1268.03 453.909C1277.79 453.085 1287.69 452.122 1297.45 451.298C1301.3 451.023 1305.15 450.885 1308.59 450.748H1309C1309.96 450.748 1310.92 451.298 1311.47 452.26C1313.4 456.109 1311.2 458.446 1310.24 459.545L1307.07 462.982C1303.5 466.831 1299.79 470.817 1296.21 474.803C1293.47 478.102 1289.34 480.027 1284.94 480.302C1250.3 483.051 1216.49 487.037 1188.03 490.749C1187.48 490.749 1187.07 490.886 1186.52 490.886C1184.46 491.024 1182.67 491.161 1180.61 491.161ZM1241.23 145.31C1235.04 145.31 1230.92 143.248 1227.62 138.712C1225.83 136.375 1223.91 134.038 1221.44 131.289C1220.2 129.914 1218.96 128.402 1217.45 126.753C1216.76 125.928 1216.62 124.828 1217.04 123.866C1217.45 122.904 1218.41 122.217 1219.51 122.217H1228.31C1238.89 122.217 1249.34 122.217 1259.92 122.354C1281.92 122.354 1303.91 122.491 1325.91 122.491H1354.09C1358.48 122.491 1364.12 123.316 1368.38 129.227C1369.76 131.152 1371.13 132.801 1372.64 134.588C1373.33 135.413 1374.02 136.238 1374.57 136.925C1375.12 137.612 1375.39 138.574 1374.98 139.537C1374.15 142.148 1372.37 143.385 1369.89 143.385H1368.66C1356.01 143.66 1343.36 143.798 1330.72 143.935C1301.58 144.348 1271.47 144.898 1241.92 145.447L1241.23 145.31ZM894.554 803.609C894.004 803.609 893.455 803.472 892.905 803.06C892.217 802.51 891.667 801.685 891.805 800.723C891.942 796.461 894.279 794.262 896.066 792.613C896.479 792.2 896.891 791.925 897.166 791.513C898.678 789.863 900.053 788.076 901.565 786.289C905.551 781.478 909.537 776.392 914.898 772.956C920.122 769.519 926.308 767.87 932.218 766.083C934.418 765.533 936.617 764.846 938.679 764.158L1047.69 728.418C1048.1 728.281 1048.51 728.144 1048.79 728.006C1049.88 727.594 1051.4 727.044 1053.05 727.044C1054.15 727.044 1055.11 727.319 1056.21 727.731C1057.03 728.006 1057.58 728.693 1057.86 729.518C1058.13 730.343 1058 731.168 1057.58 731.855C1054.83 736.116 1051.4 739.553 1048.24 742.989C1047.27 744.089 1046.17 745.051 1045.21 746.151C1043.15 748.35 1040.54 749.175 1038.2 749.862C1037.65 750 1036.96 750.275 1036.41 750.412C994.626 766.22 952.7 781.891 910.912 797.699L895.654 803.472C895.242 803.609 894.967 803.609 894.554 803.609Z" fill="#1F9C89"/>
<path d="M1263.36 861.755C1253.46 861.755 1243.7 860.793 1233.94 858.869C1228.44 857.769 1223.08 856.394 1217.86 854.882C1208.65 852.133 1199.99 847.872 1192.15 842.099C1186.79 838.387 1182.25 833.301 1178.95 827.665C1174.14 819.005 1174.01 809.795 1178.95 800.585C1180.6 797.699 1182.53 794.949 1184.73 792.475C1188.71 787.802 1193.39 783.815 1198.89 780.929C1199.71 780.516 1200.4 780.241 1201.22 780.241C1202.87 780.241 1204.11 781.203 1204.66 782.715C1206.58 787.939 1207.13 793.437 1206.31 798.936C1206.03 800.723 1203.97 801.823 1202.6 801.823H1202.32C1201.64 801.685 1200.95 801.685 1200.26 801.548C1202.87 804.159 1206.45 805.809 1210.57 807.596C1224.32 813.919 1238.89 817.081 1254.01 817.081C1257.45 817.081 1260.88 816.943 1264.32 816.531C1275.31 815.431 1286.17 813.232 1296.76 810.208C1304.04 808.146 1311.19 805.671 1318.2 802.922C1321.23 801.685 1324.25 800.173 1327 798.386C1328.1 797.699 1329.06 796.737 1329.61 795.637C1329.61 795.637 1329.61 795.499 1329.47 795.499V795.362C1328.79 793.3 1327.69 792.888 1326.31 792.888H1324.39C1322.05 792.888 1320.81 791.925 1320.26 791.101C1318.89 789.314 1319.3 786.839 1319.85 785.19C1320.54 782.578 1322.46 781.066 1324.66 781.066C1325.49 781.066 1326.31 781.203 1327 781.616C1330.99 783.54 1335.39 785.74 1338.27 790.276C1341.43 792.888 1344.05 795.912 1346.24 799.211C1352.02 808.146 1352.57 817.631 1347.62 827.253C1345.14 831.789 1341.98 835.775 1338.13 838.937C1331.81 844.573 1324.53 848.972 1316.55 851.996C1299.65 858.456 1281.64 861.755 1263.36 861.755Z" fill="#F7F6F5"/>
<path d="M1262.12 1027.26C1257.45 1027.26 1252.77 1026.43 1248.37 1024.92C1247.41 1024.51 1246.45 1023.96 1245.76 1023.13C1244.39 1021.62 1244.11 1019.29 1245.35 1017.36C1246.04 1016.26 1246.73 1015.16 1247.28 1014.06C1248.37 1012.27 1249.47 1010.35 1250.57 1008.43C1253.46 1003.34 1255.39 997.704 1256.35 991.931C1256.9 988.632 1256.49 985.195 1255.25 982.171C1254.97 981.758 1254.7 981.346 1254.42 981.071C1254.29 981.346 1254.29 981.621 1254.29 981.896V982.858C1255.11 994.542 1249.61 1003.75 1244.66 1010.35C1241.23 1015.02 1236.97 1018.87 1232.29 1022.17C1227.76 1025.2 1222.53 1026.85 1217.03 1026.85C1211.67 1026.85 1206.45 1025.33 1201.91 1022.31C1195.59 1018.05 1190.37 1012.69 1186.38 1006.23C1183.63 1001.83 1181.71 997.017 1180.61 991.931C1178.96 985.058 1177.86 977.91 1177.31 970.899C1176.62 956.741 1173.6 942.995 1168.37 929.936C1167.41 927.599 1166.45 925.125 1165.21 922.925C1165.35 923.75 1165.62 924.437 1165.76 925.262V925.537C1166.04 928.011 1164.8 930.486 1162.6 931.86C1162.6 931.86 1162.46 931.86 1162.46 931.998C1159.71 933.51 1156.69 934.335 1153.53 934.335C1152.7 934.335 1151.88 934.335 1151.05 934.197C1150.92 934.197 1150.64 934.06 1150.5 934.06C1149.68 933.785 1148.99 933.372 1148.17 932.823C1147.75 932.685 1147.2 932.548 1146.79 932.41C1145.83 932.135 1145 931.86 1144.18 931.585C1138.54 929.661 1134.15 925.4 1131.95 919.901C1129.33 913.853 1128.1 907.117 1128.65 900.519C1129.61 881.687 1137.99 864.23 1151.88 851.583C1152.84 850.758 1153.94 849.934 1154.9 849.109L1155.73 848.559C1161.22 844.16 1168.37 841.686 1175.52 841.686C1177.72 841.686 1179.92 841.961 1182.12 842.373C1183.91 842.786 1185.69 843.473 1187.34 844.71C1199.3 853.508 1214.01 859.281 1233.39 862.718C1242.74 864.367 1252.36 865.192 1261.85 865.192C1279.03 865.192 1296.07 862.443 1312.43 857.082C1318.48 855.02 1324.39 852.271 1330.03 849.246C1330.16 849.109 1330.44 849.109 1330.58 848.971C1331.4 848.559 1332.23 848.422 1333.05 848.422C1335.52 848.422 1337.72 849.796 1338.69 851.996C1344.73 863.542 1349.27 875.776 1352.3 888.423C1355.59 902.031 1357.24 915.915 1357.11 929.936C1356.97 938.458 1356.14 946.981 1354.63 955.229C1352.71 966.638 1349.13 977.635 1343.91 987.944C1340.47 994.955 1335.8 1001.14 1330.03 1006.23C1326.04 1009.94 1320.95 1012.41 1315.46 1013.24C1314.91 1013.37 1314.22 1013.37 1313.81 1013.37H1313.39C1311.47 1013.37 1310.51 1012.41 1310.09 1011.72L1309.96 1011.59C1309.41 1010.63 1308.58 1008.98 1309.41 1007.33C1310.09 1005.95 1310.78 1004.71 1311.47 1003.34C1312.29 1001.83 1312.98 1000.45 1313.67 999.079L1314.49 997.429C1315.87 994.405 1317.24 991.518 1317.11 988.357C1317.11 987.532 1317.38 986.845 1317.93 986.295C1318.62 985.607 1318.75 984.645 1318.34 983.82C1317.93 982.996 1318.07 982.033 1318.48 981.346C1319.72 979.147 1319.44 976.535 1319.03 973.648C1318.89 972.686 1318.75 971.586 1318.62 970.487C1318.48 968.425 1318.07 966.363 1317.38 964.438C1317.93 968.287 1318.62 971.999 1319.17 975.848C1319.3 976.26 1319.17 976.672 1319.03 977.085C1318.21 979.834 1317.52 982.171 1316.97 984.645C1312.57 1003.61 1294.01 1024.23 1266.93 1026.85C1265.15 1027.26 1263.63 1027.26 1262.12 1027.26ZM606.846 615.426H606.571C605.471 615.288 604.509 614.463 604.234 613.364C602.997 608.415 601.072 603.329 599.285 598.518L595.986 589.446C595.849 588.896 595.299 587.384 594.749 585.459C593.237 580.373 588.838 565.527 586.914 561.816H585.539C576.192 561.816 566.57 562.778 557.085 563.878C552.549 564.29 548.012 564.84 543.476 565.252H543.201C542.102 565.252 541.002 564.565 540.59 563.465C540.177 562.366 540.59 560.991 541.552 560.304C541.552 560.304 571.243 539.272 571.381 539.135C568.632 530.75 565.607 522.64 560.384 516.042C555.023 509.169 547.6 504.77 540.59 504.22C539.49 504.082 538.528 503.395 538.115 502.295C537.703 501.196 538.115 499.959 539.078 499.271C548.562 491.986 559.972 488 571.931 487.587H572.343C613.169 487.587 634.338 520.853 637.087 589.171C637.087 590.408 636.4 591.508 635.163 591.92C631.451 593.02 627.877 594.807 624.578 596.868C621.554 598.793 618.805 601.13 616.33 603.741C613.856 606.353 611.794 609.24 610.007 612.401L609.87 612.676C609.595 613.089 609.32 613.639 609.183 614.051C608.77 614.738 607.808 615.426 606.846 615.426ZM835.305 592.607C835.03 592.607 834.618 592.607 834.343 592.47C820.872 587.246 806.714 584.634 792.28 584.634C790.768 584.634 789.668 583.535 789.531 582.023L789.393 580.098C788.569 565.802 787.881 552.331 786.507 538.585C777.297 536.111 767.4 534.461 757.778 532.949C753.379 532.262 748.843 531.575 744.306 530.75C743.069 530.475 742.107 529.513 742.107 528.276C742.107 527.038 742.794 525.939 743.894 525.526L778.259 512.88C777.709 504.082 776.885 495.422 773.723 487.725C771.936 483.188 769.049 479.202 765.475 475.903C764.788 475.216 764.376 474.253 764.651 473.291C764.925 472.329 765.613 471.504 766.575 471.229C767.262 471.092 767.95 470.817 768.637 470.68C771.799 469.992 775.098 469.58 778.534 469.58C794.067 469.58 809.738 477.14 820.735 489.787C842.728 515.217 844.103 558.517 838.055 590.545C837.917 591.37 837.367 592.057 836.68 592.47C836.268 592.47 835.718 592.607 835.305 592.607Z" fill="#F7F6F5"/>
<path d="M437.63 1005.13C437.768 1004.99 438.043 1004.85 438.18 1004.58C437.905 1004.85 437.63 1005.13 437.218 1005.4C437.355 1005.26 437.493 1005.13 437.63 1005.13ZM856.611 601.542C862.934 606.078 868.157 611.852 872.281 618.45C859.635 610.065 846.164 605.254 832.417 602.092C818.671 599.068 804.513 597.693 790.492 597.831C785.956 597.831 781.419 598.106 776.883 598.518C772.759 598.93 768.223 599.618 763.412 600.168C758.601 600.717 753.652 601.955 748.841 603.329C734.82 606.903 721.487 613.089 709.802 621.474C712.689 616.251 716.263 611.577 720.524 607.453C715.851 583.122 708.015 545.321 713.239 518.653C714.751 511.093 717.225 503.808 720.524 496.797C725.198 486.35 731.796 476.59 739.494 471.229C746.917 464.494 755.989 459.683 765.749 457.346C788.43 451.985 814.135 461.195 830.905 480.714C857.16 511.093 858.123 560.716 850.287 597.143C852.487 598.518 854.549 600.03 856.611 601.542ZM835.304 589.858C841.077 558.929 840.115 516.179 818.671 491.436C805.888 476.59 786.093 469.305 769.323 473.154C768.636 473.291 767.948 473.429 767.261 473.704C771.11 477.278 774.134 481.676 776.196 486.488C779.907 495.285 780.595 505.045 781.007 514.53L776.746 516.179L744.855 528.001C759.426 530.75 774.959 532.262 789.117 536.523C790.629 551.781 791.454 566.765 792.279 582.023C806.987 581.885 821.558 584.635 835.304 589.858ZM683.41 605.254C687.534 611.027 689.458 618.037 688.496 625.048C683.547 612.539 673.1 606.078 662.378 603.329C657.155 601.955 651.794 601.542 646.433 602.367C643.959 602.642 641.347 603.329 639.01 604.291C636.536 605.254 634.337 606.353 632.137 607.865C627.738 610.752 623.889 614.326 620.865 618.725C617.841 623.124 615.779 628.072 614.955 633.296C613.992 638.931 614.267 644.705 615.504 650.203C616.879 656.252 619.491 662.025 623.065 667.248C616.879 664.087 611.793 659.276 608.356 653.227C604.645 646.904 602.721 639.894 602.446 632.608C602.308 628.897 602.721 625.323 603.683 621.749C606.157 621.474 608.494 621.337 611.106 621.199C609.181 619.824 607.119 618.587 604.92 617.625V617.488C605.882 617.35 606.844 617.213 607.944 617.213C607.669 615.701 607.394 614.326 606.982 612.814C607.257 612.127 607.669 611.577 607.944 610.89C609.868 607.59 612.068 604.566 614.68 601.68C617.291 598.93 620.315 596.456 623.477 594.394C627.051 592.057 630.762 590.27 634.749 589.033C634.749 590.408 634.886 591.645 634.886 593.02L650.969 592.607C650.969 590.82 650.969 589.033 650.694 587.246H650.832C652.619 587.384 654.543 587.659 656.33 588.071C659.904 588.758 663.478 589.996 666.777 591.508C673.375 594.532 679.149 599.205 683.41 605.254Z" fill="#2C2729"/>
<path d="M572.204 473.979C621.003 473.704 647.258 511.78 650.557 587.109C648.633 586.971 646.846 586.971 644.921 587.109C641.485 587.246 637.911 587.933 634.612 588.896C631.862 522.09 611.518 489.787 572.204 489.924C560.795 490.199 549.936 494.048 540.863 500.921C549.386 501.608 557.359 506.969 562.72 513.842C568.493 521.402 571.792 530.612 574.679 539.685C573.442 540.51 572.204 541.472 570.967 542.297L543.2 561.953C558.046 560.716 573.304 558.242 588.15 558.654C590.212 558.654 597.497 585.184 598.597 588.208C601.209 596.044 604.92 604.291 606.845 612.401C606.02 613.914 605.332 615.563 604.783 617.075H604.508L604.783 617.213C604.37 618.45 603.958 619.687 603.683 621.062L603.546 621.336C601.071 621.611 598.734 621.886 596.398 622.436C591.724 623.261 587.188 624.086 582.651 625.323C573.854 627.385 565.194 630.271 556.946 633.845C548.836 637.419 541.138 641.818 534.128 647.317C526.98 652.815 520.794 659.551 514.333 667.661C514.608 657.076 518.457 646.767 525.055 638.519C525.468 638.107 525.743 637.694 526.155 637.144C516.12 619.412 506.636 600.167 502.1 578.999C496.876 554.256 499.9 530.2 510.622 511.23C523.543 488.824 547.736 474.116 572.204 473.979Z" fill="#2C2729"/>
<path d="M650.562 587.246C650.699 589.033 650.699 590.82 650.837 592.607L634.754 593.02C634.754 591.645 634.617 590.408 634.617 589.033C637.916 587.934 641.49 587.384 644.926 587.109C646.851 587.109 648.638 587.109 650.562 587.246ZM607.812 617.075C606.85 617.213 605.75 617.35 604.788 617.35C605.337 615.701 606.025 614.189 606.85 612.677C607.124 614.051 607.537 615.563 607.812 617.075ZM604.65 617.488C606.85 618.45 608.911 619.55 610.836 621.062C608.224 621.199 605.75 621.337 603.413 621.611L603.55 621.337C603.825 619.962 604.238 618.725 604.65 617.488ZM793.384 700.789C789.26 698.177 785.411 695.153 781.837 691.854C778.263 688.555 775.101 684.843 772.49 680.857C769.603 676.596 767.404 671.922 765.892 667.111C764.242 672.609 764.654 678.52 766.716 683.744C768.778 688.967 771.94 693.778 776.064 697.627C762.867 706.7 748.709 714.123 733.863 719.896C718.055 725.944 701.56 729.656 684.79 731.168C668.157 732.542 651.387 730.893 635.441 726.219C619.083 721.683 603.276 714.123 586.78 706.562C592.966 713.16 599.702 719.209 607.124 724.57C614.547 730.068 622.52 734.604 630.905 738.453C635.579 740.515 640.39 742.302 645.201 743.677C643.826 746.151 643.964 749.45 643.277 753.299C641.627 762.096 637.366 768.145 628.018 771.169C626.781 771.581 625.132 772.543 625.682 773.643C625.819 774.056 626.094 774.33 626.506 774.468L626.781 774.743C668.432 806.771 744.173 793.987 770.29 748.075C776.888 736.529 780.875 719.621 777.438 698.727C781.425 702.164 785.961 704.913 790.909 706.7C796.27 708.762 802.044 709.037 807.542 707.662C802.456 705.875 797.782 703.538 793.384 700.789Z" fill="#2C2729"/>
</g>
</svg>
