<svg width="150" height="150" viewBox="0 0 1500 1733" fill="none" xmlns="http://www.w3.org/2000/svg">
<mask id="mask0_1_1523" style="mask-type:luminance" maskUnits="userSpaceOnUse" x="0" y="0" width="1500" height="1733">
<path d="M1500 0H0V1732.54H1500V0Z" fill="white"/>
</mask>
<g mask="url(#mask0_1_1523)">
<path d="M1119.63 633.469C1119 633.469 1118.36 633.31 1117.73 632.834C1116.62 632.04 1116.14 630.77 1116.46 629.5C1118.05 623.31 1119.32 617.437 1120.74 611.722C1123.76 599.182 1126.46 587.436 1129.79 576.007C1131.54 569.975 1134.55 564.42 1137.57 559.023C1138.05 558.07 1138.68 557.118 1139.16 556.165C1169.95 500.45 1204.08 445.687 1240.59 393.464C1264.4 359.495 1289.16 322.669 1310.43 283.62C1311.07 282.033 1312.02 280.604 1312.97 279.334C1314.4 277.271 1316.62 276.001 1319.16 276.001C1320.27 276.001 1321.38 276.318 1322.34 276.795C1323.29 277.271 1324.4 277.747 1325.35 278.382C1353.77 297.112 1375.83 316.795 1392.65 338.542C1395.99 342.669 1398.69 346.955 1401.54 351.241C1405.35 356.955 1405.51 359.653 1399.48 365.527C1381.07 383.781 1375.19 405.051 1381.23 430.766C1383.29 439.179 1382.65 440.766 1375.51 445.211C1351.7 460.608 1328.69 478.069 1306.46 495.053C1300.43 499.656 1294.56 504.101 1288.53 508.704C1236.62 547.753 1183.76 587.277 1131.54 626.167C1129.95 627.278 1128.36 628.389 1125.98 629.818C1124.71 630.612 1123.13 631.564 1121.22 632.834C1120.9 633.31 1120.27 633.469 1119.63 633.469ZM1168.21 408.226C1167.57 408.226 1167.09 408.067 1166.46 407.75C1159.16 403.146 1151.06 401.4 1143.44 400.289C1135.51 399.019 1127.41 397.591 1119.63 396.003C1117.09 395.527 1114.55 395.051 1111.86 394.575C1106.14 393.464 1102.81 391.241 1104.08 383.781C1106.93 368.86 1108.36 353.463 1109.47 340.288C1115.51 267.271 1116.46 206.634 1112.17 149.49C1112.01 146.633 1112.01 143.776 1112.01 141.077V137.427C1112.01 136.315 1112.65 135.204 1113.6 134.728C1114.87 133.934 1116.3 133.617 1117.73 133.617C1119.63 133.617 1121.22 134.252 1122.65 134.887C1122.97 135.046 1134.55 140.125 1140.11 142.506C1160.59 151.395 1181.86 160.602 1202.97 169.332C1208.37 171.078 1212.33 175.681 1213.44 181.237C1213.76 182.348 1213.92 183.459 1214.24 184.57C1215.35 188.856 1216.3 192.983 1217.57 196.952C1226.62 223.778 1240.59 241.238 1261.54 251.397C1262.81 251.873 1263.45 252.985 1264.08 253.619C1264.24 253.778 1264.4 254.096 1264.56 254.254C1265.19 255.048 1265.51 256 1265.35 256.953C1264.56 261.874 1262.02 265.842 1259.64 269.652C1259 270.604 1258.37 271.715 1257.73 272.667C1245.83 293.144 1232.49 312.986 1220.59 330.446L1215.03 338.542C1201.22 359.019 1186.94 379.971 1174.24 401.559C1173.44 402.829 1172.65 403.94 1171.7 405.21L1170.27 407.115C1170.11 407.75 1169.16 408.226 1168.21 408.226ZM1042.97 383.305C1042.33 383.305 1041.7 383.305 1041.06 383.146C1037.09 382.67 1032.96 382.035 1029 381.559C1020.9 380.448 1012.96 379.336 1004.87 378.384C993.599 376.797 982.011 375.209 970.265 374.257C964.392 373.939 958.519 372.352 953.122 369.812C924.074 355.526 894.867 340.923 866.136 326.637C862.326 324.732 857.882 321.716 857.723 314.891C856.612 279.969 843.12 247.905 813.913 210.92C805.024 199.65 794.706 189.332 783.436 180.285C778.198 176.158 778.674 171.713 779.944 168.697C786.452 152.824 787.087 135.522 781.849 115.68C779.785 108.061 780.579 106.156 787.087 102.346C831.85 76.1554 882.962 62.3456 934.868 62.3456C942.011 62.3456 949.312 62.663 956.455 63.1392C967.249 63.9329 977.884 65.9965 988.361 69.0124C992.17 69.8061 995.028 73.1395 995.345 77.1078C997.726 101.553 1011.69 118.696 1040.74 132.823C1043.76 134.252 1046.93 135.363 1050.11 136.157C1061.54 139.014 1062.65 142.189 1062.49 149.966V152.982C1062.65 169.491 1062.49 186.316 1062.49 202.666V227.428C1062.97 278.858 1057.25 329.335 1050.9 376.162C1050.27 380.765 1047.41 383.305 1042.97 383.305Z" fill="#F3D164"/>
<path d="M1080.9 855.219C1079.63 855.219 1078.36 855.061 1077.09 854.902C1067.73 853.791 1058.2 852.68 1048.84 851.727C1044.23 851.251 1039.47 850.775 1034.87 850.14C1010.27 847.441 985.503 844.902 960.899 842.362L953.597 841.568C939.629 839.981 925.184 838.393 911.057 837.124C902.644 836.33 896.295 832.203 891.85 824.266C873.278 791.25 872.802 757.598 890.263 724.105C894.39 716.486 900.422 709.978 907.723 705.216C912.644 701.724 918.2 699.978 924.232 699.978C926.771 699.978 929.311 700.295 931.692 700.93C952.169 705.692 973.757 708.232 994.709 710.613L1000.42 711.248C1024.39 713.946 1048.84 716.645 1072.81 719.026C1078.52 719.661 1084.55 719.978 1090.27 720.296C1093.6 720.455 1096.78 720.772 1100.11 720.931C1112.49 721.883 1113.6 722.994 1116.3 735.376V735.534C1117.89 742.836 1117.89 750.296 1118.05 757.439C1118.05 758.868 1118.05 760.455 1118.2 761.884C1118.52 781.567 1115.51 802.044 1108.84 824.266C1106.93 830.774 1104.24 837.124 1100.74 842.997C1095.82 851.092 1089.31 855.219 1080.9 855.219ZM945.978 732.994C935.502 732.994 925.66 736.328 918.041 742.519C908.041 750.773 902.644 762.519 903.279 774.9C903.914 787.44 910.739 798.551 921.692 805.694C929.152 810.456 937.248 812.679 948.677 812.996C952.01 812.837 955.185 812.361 958.518 811.726C973.28 807.917 983.757 798.393 987.566 784.9C991.376 771.567 987.884 756.804 978.36 746.646C970.423 737.915 958.677 732.994 945.978 732.994Z" fill="#FC633F"/>
<path d="M572.639 400.765C570.893 400.765 569.147 400.13 567.083 399.019C528.035 375.209 488.351 351.241 448.985 327.431C448.827 327.272 448.668 327.272 448.509 327.113C447.557 326.319 446.604 325.208 445.969 324.256C445.652 323.938 445.493 323.462 445.493 322.986C444.858 318.065 448.509 316.16 450.255 315.367C450.573 315.208 451.049 315.049 451.366 314.732C456.287 311.24 461.208 307.271 464.382 302.033C468.192 295.525 473.748 294.097 479.303 293.462C488.986 292.509 498.828 291.398 508.193 290.446C520.415 289.017 533.114 287.747 545.654 286.477C583.115 282.985 614.227 281.398 643.593 281.398C650.577 281.398 657.561 281.557 664.387 281.715C697.562 282.826 730.42 288.541 762.167 298.859C767.881 300.605 773.595 302.668 779.31 304.732C781.691 305.525 784.072 306.319 786.294 307.113C788.199 307.43 790.262 307.906 792.167 308.541C792.326 308.541 792.326 308.541 792.485 308.7C793.913 309.335 794.866 310.605 795.659 311.557C795.818 311.875 796.135 312.192 796.294 312.351C797.088 313.145 797.247 314.256 797.088 315.367C796.929 316.478 795.977 317.272 795.024 317.589C794.548 317.748 794.231 317.907 793.755 318.065C792.802 318.383 791.85 318.7 790.897 318.859C790.58 319.018 790.262 319.018 789.945 319.018C789.31 319.018 788.675 318.859 788.358 318.7C769.468 320.605 750.738 324.256 732.483 329.812C714.07 335.367 696.292 342.986 679.466 352.352C663.911 361.082 652.323 369.971 642.958 380.13C640.418 382.987 637.085 385.844 632.005 385.844C630.259 385.844 628.513 385.527 626.449 384.892C620.894 382.987 615.656 382.035 610.576 382.035C599.147 382.035 588.988 386.956 580.417 396.797C578.512 398.543 576.131 400.765 572.639 400.765Z" fill="#F3D164"/>
<path d="M894.391 1273.96C893.28 1273.96 892.01 1273.64 890.264 1273.16C881.216 1269.99 872.01 1266.81 862.962 1263.64C741.689 1220.62 620.576 1177.61 499.303 1134.59C497.557 1133.95 495.811 1133.16 494.065 1132.21C493.748 1132.05 493.272 1131.89 492.954 1131.57H492.16C489.462 1131.57 487.081 1130.62 485.017 1128.88C484.382 1128.88 483.906 1128.72 483.43 1128.4H482.954C480.414 1128.4 477.874 1127.45 475.97 1125.7C475.493 1125.7 474.858 1125.54 474.382 1125.22H473.589C471.049 1125.22 468.668 1124.27 466.922 1122.68C466.287 1122.53 465.652 1122.37 465.017 1122.05H464.382C461.842 1122.05 459.461 1120.94 457.874 1119.19C447.715 1117.13 438.191 1113.64 428.984 1109.99C425.969 1108.88 422.794 1107.61 419.619 1106.49C411.841 1105.07 404.381 1102.37 397.555 1098.4L392.317 1097.13H392L373.745 1091.26L366.92 1089.03L355.491 1085.22L353.586 1084.59C351.364 1083.8 348.983 1083 346.761 1082.05C344.856 1081.26 344.38 1079.35 344.062 1078.24V1077.92C343.903 1077.6 343.903 1077.29 343.903 1076.97C343.903 1074.75 346.126 1073.32 347.872 1073.16C348.824 1073 349.618 1073 350.411 1073C353.427 1073 355.967 1073.95 358.031 1075.86C365.332 1076.65 372.475 1078.72 379.142 1082.05C385.492 1082.68 391.841 1084.75 397.555 1087.92C398.508 1087.92 399.46 1088.24 400.254 1088.72L400.73 1088.87C409.936 1090.78 419.46 1092.68 428.191 1097.45C441.048 1100.62 454.382 1103.95 467.081 1109.51H467.239C468.192 1109.51 468.985 1109.67 469.779 1110.14H470.731C473.112 1110.14 475.335 1110.94 477.081 1112.53C477.716 1112.53 478.351 1112.68 478.827 1113H479.938C482.954 1113 485.97 1114.11 488.351 1116.02H489.144C492.637 1116.02 495.494 1116.97 497.875 1118.88C498.51 1118.88 499.303 1119.03 499.938 1119.35H501.049C503.748 1119.35 506.288 1120.3 508.192 1122.05C513.272 1123.48 518.351 1124.75 523.59 1126.18C534.701 1129.19 546.13 1132.21 557.241 1135.38C665.18 1166.81 773.119 1198.08 881.057 1229.51C883.597 1230.31 886.296 1230.94 888.835 1231.73C893.439 1233 898.201 1234.43 902.963 1235.86C905.82 1236.81 907.725 1238.08 908.677 1239.99C909.629 1241.89 909.63 1244.12 908.836 1246.66C906.296 1253.8 903.756 1261.1 900.899 1268.24C900.582 1269.83 898.994 1273.96 894.391 1273.96Z" fill="#FC633F"/>
<path d="M1108.84 682.676C1108.2 682.676 1107.57 682.518 1107.09 682.041C1106.3 681.565 1105.82 680.613 1105.66 679.66C1104.39 663.311 1113.92 653.945 1122.49 647.755C1157.25 622.199 1192.33 596.008 1226.46 570.61C1249.16 553.785 1271.86 536.8 1294.56 519.974C1300.43 515.53 1306.46 511.244 1312.34 506.8C1331.7 492.514 1351.86 477.751 1370.75 462.354C1371.7 461.561 1372.81 460.608 1373.77 459.814C1375.83 458.068 1378.05 456.164 1380.43 454.576C1389.48 448.068 1392.65 440.766 1390.91 430.449C1389 418.861 1390.27 406.797 1394.4 395.845C1397.89 386.162 1403.29 375.368 1415.2 369.654C1416.78 368.86 1418.21 367.908 1419.48 366.797L1419.64 366.638C1421.39 365.209 1422.02 362.828 1421.23 360.765C1420.27 358.066 1419 355.527 1417.42 353.304C1396.31 322.034 1372.5 298.224 1344.88 280.446C1343.92 279.811 1342.81 279.176 1341.86 278.541C1339.8 277.271 1337.73 276.16 1335.83 274.572C1334.88 273.779 1333.29 273.303 1331.7 272.668C1328.21 271.398 1323.61 269.652 1322.65 264.572C1322.02 260.763 1323.92 257.271 1325.83 253.778C1326.46 252.509 1327.1 251.397 1327.57 250.445L1329.16 246.953L1330.75 243.461L1331.23 242.191C1331.7 241.238 1332.02 240.445 1332.49 239.492C1332.97 238.381 1333.61 237.27 1334.08 236L1334.4 235.207C1334.72 234.413 1335.35 233.778 1336.15 233.619C1336.46 233.46 1336.78 233.46 1337.26 233.46C1337.73 233.46 1338.21 233.619 1338.69 233.778C1341.07 234.889 1343.29 236.159 1345.51 237.429L1345.67 237.588C1381.86 264.096 1408.85 288.382 1430.75 314.256C1449.8 336.637 1465.83 363.146 1479.96 395.21C1482.97 402.194 1482.5 403.94 1475.99 409.02L1474.56 410.131C1466.47 416.639 1458.05 423.306 1449.48 429.655C1342.81 509.657 1233.6 591.563 1124.71 673.152C1123.6 673.946 1122.65 674.74 1121.7 675.533C1118.36 678.232 1114.71 681.248 1109.63 682.676H1108.84ZM1155.03 492.831H1154.4C1153.44 492.672 1152.81 492.196 1152.33 491.402C1152.17 491.244 1152.17 491.085 1152.01 490.926C1151.54 490.291 1150.75 489.339 1150.59 488.069C1149.95 484.577 1150.75 480.926 1152.97 478.228C1152.97 477.593 1153.13 477.116 1153.13 476.482C1153.44 473.307 1153.92 469.656 1156.46 466.481C1156.94 457.751 1159.63 449.179 1164.55 441.719C1167.89 436.322 1171.38 430.925 1174.71 425.687C1181.54 415.052 1188.52 403.94 1195.51 393.146C1203.13 381.4 1210.91 369.654 1218.52 358.225C1226.14 346.796 1233.92 334.891 1241.54 323.304C1251.22 308.7 1259.95 293.303 1267.57 277.43C1271.38 269.493 1274.24 260.921 1276.14 252.35C1277.26 247.27 1276.46 246.318 1272.97 244.731C1243.29 232.191 1232.33 205.682 1223.76 179.491C1222.97 177.428 1222.49 175.047 1222.33 172.824C1222.02 164.57 1217.89 159.808 1208.21 156.157C1189.48 149.014 1170.43 141.713 1152.17 134.57C1142.97 131.077 1133.76 127.427 1124.55 123.934C1122.01 122.982 1119.32 122.03 1116.3 121.077C1112.01 119.966 1108.84 116.156 1108.68 111.712C1108.05 105.363 1107.57 99.0132 1107.25 93.4575L1107.09 91.5527C1107.09 90.4416 1107.41 89.4892 1108.36 88.8543C1110.11 87.4257 1111.86 86.7907 1113.76 86.7907C1115.51 86.7907 1116.78 87.4257 1117.89 87.7431L1118.2 87.9019C1167.89 109.331 1219.32 129.014 1269 148.062C1280.27 152.348 1291.7 156.792 1302.97 161.078C1310.91 164.094 1319 167.269 1327.1 170.602C1335.03 173.935 1335.67 176.475 1334.56 184.412C1332.02 202.19 1326.15 220.444 1316.46 239.969C1301.54 270.445 1282.81 302.192 1257.57 339.653C1246.94 355.368 1236.14 371.4 1225.67 386.797C1214.56 403.147 1203.13 419.972 1192.02 436.639C1185.83 445.846 1179.79 455.37 1173.92 464.735C1171.06 469.338 1168.05 473.942 1165.19 478.545C1164.55 479.815 1164.08 481.085 1163.44 482.355L1162.49 484.418C1161.7 486.164 1160.9 487.91 1159.95 489.656C1159.95 489.815 1159.79 489.815 1159.79 489.815C1159.16 490.926 1158.21 491.402 1157.41 491.879C1157.25 492.037 1157.09 492.037 1156.94 492.196C1156.46 492.672 1155.82 492.831 1155.03 492.831ZM1080.11 388.702C1079.47 388.702 1078.68 388.702 1077.89 388.543C1075.82 388.384 1073.6 388.067 1071.54 387.591C1065.19 386.321 1062.97 383.146 1064.08 376.638C1075.66 304.732 1079 237.429 1074.39 171.237C1073.92 163.618 1072.65 155.84 1071.38 148.379C1070.74 144.094 1069.95 139.649 1069.31 135.204C1069 132.189 1067.09 129.808 1064.39 129.014C1064.24 129.014 1064.24 129.014 1064.08 128.855C1059 126.792 1053.6 124.411 1047.25 121.395C1036.3 116.156 1026.62 108.378 1019 98.8545C1012.96 91.8702 1009.47 82.6637 1009.47 73.1397C1009.63 62.187 1009.15 61.5521 997.885 58.2187C976.297 51.7106 954.074 48.3772 931.534 48.3772C926.931 48.3772 922.328 48.536 917.883 48.8534C883.12 50.5995 849.31 58.5362 817.405 72.1873C805.023 77.4255 793.118 83.9335 782.325 91.8702C779.467 94.0925 776.61 96.3147 774.388 98.3783C769.308 102.982 768.039 107.585 770.261 113.934C776.769 132.506 776.134 150.125 768.515 166.634C766.134 171.872 766.769 175.681 770.737 179.491L770.896 179.65C775.499 184.094 780.261 188.698 784.864 193.46C811.532 220.286 830.103 248.858 841.691 280.446C845.342 289.97 847.881 300.129 848.834 310.446C848.993 311.399 848.675 312.192 848.04 312.986C847.405 313.621 846.612 313.938 845.659 313.938H845.501C835.183 313.462 830.738 308.383 827.246 300.763C818.198 281.874 806.611 264.096 796.452 248.858C768.515 206.952 740.578 171.078 710.895 139.014C694.386 121.236 679.783 108.378 664.703 98.537C664.703 98.537 664.544 98.537 664.544 98.3783C663.274 97.4259 662.005 96.3148 660.893 95.0449C660.576 94.5687 660.259 94.0925 660.1 93.6163C659.306 90.1241 660.893 87.5844 664.862 86.1558C665.021 86.1558 665.338 85.9971 665.497 85.9971C704.704 69.1713 751.372 49.8058 801.849 37.7421C838.834 28.853 876.93 22.9799 914.867 20.1227C934.709 18.6941 952.646 17.9004 969.63 17.9004H977.408C1007.57 18.0591 1037.73 22.0275 1066.93 29.6467C1068.2 29.9641 1069.31 30.2816 1070.43 30.5991C1071.7 30.9165 1072.81 31.3927 1073.92 31.5515C1079.47 32.3451 1083.6 37.1072 1083.92 42.6628C1084.55 48.536 1085.51 54.4091 1086.3 60.2822C1087.41 68.8539 1088.68 77.5842 1089.63 86.4733C1092.81 116.633 1095.66 147.268 1098.05 177.428C1099 189.65 1099.16 201.714 1099.32 214.095C1099.95 263.779 1098.84 301.875 1095.51 337.59C1094.39 349.653 1092.49 361.717 1090.59 373.463L1089.63 379.971C1088.84 384.099 1087.09 388.702 1080.11 388.702ZM606.924 472.037C604.067 472.037 601.368 470.45 597.083 467.751C589.305 462.989 581.368 457.91 572.638 452.195L350.411 309.018C349.141 308.224 348.03 307.272 346.919 306.478C346.442 306.16 345.966 305.843 345.649 305.525C344.855 304.891 344.379 304.097 344.379 303.144C344.22 300.922 345.014 299.494 345.807 298.7C347.395 296.954 349.617 296.954 350.411 296.954C357.236 297.113 364.221 297.113 370.887 297.113C396.285 297.113 422 296.478 447.238 295.208H450.889C452.794 295.208 454.064 296.001 454.54 296.795C455.175 297.589 455.81 298.859 455.334 300.763V300.922C455.175 302.192 454.857 304.097 453.27 305.367C448.667 309.176 442.952 312.034 437.079 313.145C435.651 313.462 434.381 313.78 433.111 314.097C431.524 314.415 429.777 314.891 428.19 315.208C424.222 316.002 423.428 316.954 423.111 318.7C422.793 320.923 423.746 322.827 426.444 324.891C428.19 326.32 430.254 327.589 432.317 328.701C474.223 353.463 516.128 378.225 558.034 402.829C562.32 405.369 566.606 407.75 571.209 409.655C572.796 410.448 574.384 410.766 576.13 410.766H576.923C577.558 410.766 578.352 410.448 578.987 410.131L579.939 409.496C580.416 409.178 580.892 408.861 581.209 408.226L581.527 407.909C581.685 407.75 581.844 407.432 582.162 407.274C585.971 402.035 590.892 397.591 596.606 394.575C596.606 394.575 596.765 394.575 596.765 394.416L597.4 394.099L600.733 392.67C604.86 391.242 609.305 390.448 613.908 390.448C618.67 390.448 623.591 391.242 628.829 392.829C630.417 393.305 631.686 393.464 632.956 393.464C635.337 393.464 637.242 392.511 639.464 390.448C654.385 376.321 671.211 364.257 689.624 355.05C729.942 334.891 769.15 325.05 809.468 325.05H812.96C826.77 325.05 840.739 328.066 853.279 333.939C859.628 336.955 866.295 339.971 872.644 342.828C875.184 343.939 877.882 345.209 880.422 346.32C885.025 346.955 888.994 349.018 892.644 350.923C893.755 351.558 894.867 352.034 895.978 352.511C898.835 353.463 901.851 354.415 904.708 355.527C905.661 355.844 906.454 356.638 906.772 357.749C907.089 358.86 906.772 359.812 905.978 360.606L903.121 363.781C902.486 364.416 901.692 364.892 900.74 364.892H900.105C899.787 364.892 899.47 364.733 899.311 364.733C897.406 364.416 894.867 363.939 892.962 361.717C885.978 360.765 878.676 359.336 871.85 355.844C867.088 355.05 862.168 354.415 857.406 353.622C846.612 352.034 835.342 350.288 824.389 348.384C817.722 347.114 810.738 346.637 803.912 346.637C782.801 346.637 761.372 352.193 736.609 364.098C730.419 367.114 724.387 370.606 718.831 374.575C687.402 396.162 661.846 417.75 640.576 440.766C634.068 447.909 626.607 455.529 617.242 464.894C613.273 469.338 610.575 472.037 606.924 472.037Z" fill="#24B59F"/>
<path d="M973.917 1171.26C972.806 1171.26 971.536 1171.1 969.79 1170.78C951.06 1167.61 932.17 1164.12 913.916 1160.78L909.948 1159.99C846.454 1148.4 782.008 1136.5 718.674 1124.75C692.165 1119.83 665.181 1114.59 638.99 1109.67C621.688 1106.34 604.544 1103 587.242 1099.83C529.781 1088.88 471.367 1077.76 413.905 1066.97L393.905 1063.16C355.968 1056.02 316.76 1048.56 278.03 1041.57C254.854 1037.45 231.203 1033.64 208.346 1029.99L195.329 1027.92C189.297 1026.97 183.107 1026.02 176.916 1022.84C175.646 1022.21 175.011 1020.78 175.329 1019.35C204.377 887.443 235.806 753.789 266.125 624.739C289.3 526.007 313.268 423.941 336.126 323.304C336.285 322.351 336.92 321.558 337.872 321.082C338.824 320.605 339.936 320.447 341.047 320.447C343.745 320.447 345.809 322.034 347.396 323.304C347.872 323.621 348.19 323.939 348.666 324.256C426.128 373.94 504.383 424.258 581.369 473.783C587.877 477.91 593.592 481.879 599.147 485.847C601.211 487.434 603.274 488.069 605.179 488.069C607.402 488.069 609.624 487.117 612.005 485.212C623.91 476.006 635.339 466.005 646.133 455.37C670.895 431.243 697.88 409.179 726.452 389.654C743.436 377.908 762.008 369.019 781.691 362.829C792.167 359.654 803.12 357.908 814.231 357.908C819.311 357.908 824.549 358.225 829.628 359.019C852.327 361.876 875.026 366.479 896.932 372.511C904.392 374.575 912.487 376.638 922.17 379.019C922.488 379.019 922.646 379.178 922.964 379.337C934.869 385.845 976.774 409.972 1016.93 447.91C1068.68 496.8 1096.62 548.071 1099.79 600.453C1100.27 608.072 1100.9 614.58 1101.7 619.501V620.612C1096.46 644.104 1091.06 667.438 1085.82 690.931L1084.87 694.264L1084.55 695.534C1082.97 701.566 1081.7 705.852 1074.87 705.852C1073.92 705.852 1072.65 705.852 1070.9 705.534C1059.63 704.423 1048.36 702.994 1037.41 701.566L1028.2 700.455C998.203 696.804 967.25 692.994 936.774 691.883H925.186C910.106 691.883 897.566 698.391 886.931 711.725C878.201 722.677 872.645 736.17 869.788 753.313C866.137 775.536 869.629 797.758 879.63 817.917C881.217 820.933 882.963 823.791 884.868 826.648C893.281 840.14 904.709 846.966 920.9 848.236C948.044 850.299 975.505 852.998 1002.01 855.696C1014.24 856.966 1026.62 858.236 1038.84 859.347C1039.32 859.347 1039.79 859.506 1040.27 859.506C1042.97 859.664 1046.62 859.982 1049.63 863.157C1050.27 863.791 1050.43 864.585 1050.43 865.379C1050.43 867.442 1050.27 869.506 1049.79 871.569V871.728C1030.11 956.016 1010.43 1040.46 990.584 1124.75C988.838 1131.89 987.41 1139.19 985.981 1146.18C984.87 1151.26 983.759 1156.65 982.648 1161.73C982.013 1166.5 980.425 1171.26 973.917 1171.26Z" fill="#FC633F"/>
<path d="M925.819 1712.38C921.851 1712.38 918.359 1710.79 915.184 1707.78C913.755 1706.35 911.851 1705.08 910.104 1703.81C906.612 1701.43 902.644 1698.73 900.422 1694.13C899.945 1693.17 899.945 1692.22 900.422 1691.43C902.485 1687.14 905.977 1685.55 908.835 1684.28C909.47 1683.97 910.104 1683.81 910.581 1683.49C931.216 1672.54 949.47 1656.03 966.614 1633.01C989.63 1601.9 1008.2 1567.62 1021.54 1531.11C1029 1511.42 1034.23 1490.95 1037.09 1470.15C1036.93 1470.79 1036.61 1471.42 1036.46 1472.06C1021.06 1520.31 1003.44 1560.47 982.169 1594.76C964.709 1623.01 942.01 1646.98 914.866 1665.87C910.422 1669.05 905.819 1672.22 901.215 1675.24L895.977 1678.73C894.231 1680 892.485 1680.47 890.739 1680.47C888.199 1680.47 885.977 1679.21 883.913 1676.98C875.818 1667.46 868.992 1657.14 863.278 1646.03C851.373 1624.12 844.389 1600.31 842.643 1575.39C840.262 1539.84 847.722 1509.52 865.5 1482.38C875.977 1466.34 890.263 1452.53 906.771 1442.85C917.882 1436.34 927.724 1427.14 937.565 1413.49C955.82 1389.04 968.36 1360.47 974.074 1330.63C974.233 1329.67 974.392 1328.72 974.709 1327.61C974.868 1326.5 975.185 1325.23 975.503 1323.64C975.82 1322.05 977.09 1321.1 978.677 1321.1H979.154L988.201 1322.37C1005.19 1324.75 1021.22 1327.13 1037.41 1329.52C1039.31 1329.83 1041.22 1330.31 1042.96 1330.79C1044.08 1331.1 1045.19 1331.42 1046.46 1331.58C1051.22 1332.21 1054.71 1336.66 1054.08 1341.42C1053.76 1345.55 1053.76 1349.99 1053.76 1354.12C1053.6 1362.53 1053.6 1371.1 1051.85 1379.68C1050.58 1386.02 1049.95 1392.85 1049.15 1399.36C1049 1400.95 1048.84 1402.53 1048.68 1403.96C1049.15 1403.17 1049.63 1402.22 1049.95 1401.26C1051.22 1396.98 1052.65 1392.69 1054.08 1388.56C1058.04 1376.82 1062.01 1364.75 1063.12 1352.21C1063.6 1348.4 1064.39 1344.75 1065.35 1341.26C1066.3 1337.61 1069 1335.39 1072.96 1335.39C1073.44 1335.39 1073.92 1335.39 1074.55 1335.55C1083.44 1336.66 1086.62 1340.15 1086.93 1349.36C1087.41 1362.69 1085.35 1375.71 1083.28 1388.25C1082.49 1393.48 1081.54 1398.72 1080.9 1404.12C1080.27 1408.72 1077.41 1412.69 1073.28 1414.76C1070.27 1416.5 1067.09 1418.09 1064.08 1419.83C1062.33 1420.79 1060.43 1421.74 1058.68 1422.69C1055.98 1423.96 1053.44 1425.39 1051.06 1426.98C1049.15 1428.25 1048.04 1429.99 1047.89 1431.58C1047.73 1433.17 1048.2 1434.91 1049.63 1436.66C1051.85 1439.2 1054.39 1441.42 1056.93 1443.64C1058.36 1444.91 1059.95 1446.03 1061.54 1447.14C1070.9 1453.49 1074.08 1462.38 1071.22 1474.28C1062.96 1508.25 1055.35 1533.96 1046.14 1557.46C1036.77 1581.9 1025.66 1605.71 1012.96 1628.25C1003.44 1644.6 992.646 1660.32 980.582 1674.76C966.772 1691.43 951.534 1703.17 933.914 1710.63C930.899 1711.75 928.2 1712.38 925.819 1712.38ZM593.749 1672.06C591.368 1672.06 589.145 1670.79 587.717 1668.89C585.812 1666.35 586.129 1662.7 588.51 1660.63C589.939 1659.52 591.368 1658.41 592.637 1657.3C602.161 1649.68 612.003 1641.9 623.273 1636.03C623.749 1635.71 624.384 1635.71 624.86 1635.71C626.289 1635.71 627.241 1636.51 628.035 1637.14C628.194 1637.3 628.352 1637.46 628.511 1637.46C629.622 1638.09 630.099 1639.2 630.099 1640.47V1641.11C630.099 1642.06 630.099 1643.65 629.146 1644.92C627.559 1647.14 625.813 1649.2 623.749 1650.95C616.606 1656.66 609.304 1662.22 602.32 1667.62L599.939 1669.52C598.987 1670.32 597.876 1670.95 596.764 1671.59C595.971 1671.74 594.86 1672.06 593.749 1672.06ZM681.211 1642.38C671.845 1642.38 663.115 1641.74 654.544 1640.32C652.163 1640.16 649.781 1639.2 648.035 1637.46C647.877 1637.3 647.718 1637.14 647.718 1636.98C647.401 1636.66 647.242 1636.19 647.083 1635.87C646.924 1635.71 646.924 1635.55 646.924 1635.39C646.289 1633.33 646.289 1630.95 646.924 1628.89C648.035 1623.65 648.67 1618.41 648.67 1613.17C648.829 1610.16 647.718 1607.62 645.972 1605.71C644.385 1603.97 642.162 1603.01 639.94 1603.01C637.876 1603.01 635.813 1603.81 633.908 1605.39C629.94 1608.73 625.971 1611.9 622.003 1614.92C620.733 1615.87 619.622 1616.82 618.352 1617.78C613.432 1621.58 610.574 1623.97 606.765 1623.97C603.749 1623.97 600.892 1622.38 596.13 1619.68C581.526 1611.27 568.192 1600.79 555.176 1590.63L551.367 1587.62C545.335 1582.85 539.144 1578.09 533.112 1573.33C509.779 1554.92 485.81 1535.87 460.73 1519.2C443.428 1507.77 424.697 1496.03 404.062 1488.57C384.538 1481.42 368.347 1478.09 353.109 1478.09H348.188C343.585 1478.09 338.981 1477.93 335.172 1477.93C333.267 1477.93 331.521 1477.77 329.616 1477.77C312.314 1477.77 295.171 1480.79 278.821 1486.66C278.504 1486.82 278.186 1486.82 277.71 1486.82C276.916 1486.82 276.282 1486.5 275.647 1486.03C272.313 1483.33 271.837 1479.99 274.535 1476.5L274.853 1476.19C284.218 1462.85 296.123 1450.63 312.79 1437.77C318.346 1433.49 325.33 1431.1 332.473 1431.1C333.267 1431.1 334.061 1431.1 334.854 1431.26C365.331 1432.69 395.649 1438.25 424.856 1447.45C448.031 1455.07 469.301 1466.66 488.191 1482.06C503.905 1494.6 519.938 1508.73 538.509 1526.5C558.351 1545.55 574.066 1559.36 589.463 1571.58C596.447 1576.98 604.066 1581.43 612.479 1584.44C613.114 1584.76 613.908 1585.08 614.543 1585.39C615.495 1585.87 616.924 1586.5 617.559 1586.5C617.082 1586.03 616.13 1585.39 615.495 1584.92C614.86 1584.44 614.066 1583.97 613.432 1583.49C611.209 1581.74 608.828 1580.16 606.289 1578.57C588.669 1566.98 572.32 1553.49 557.716 1538.57C533.43 1514.44 507.874 1491.11 481.683 1468.88C454.222 1445.71 421.205 1429.04 386.284 1420.63L379.141 1418.72C377.712 1418.41 376.125 1417.93 374.696 1417.61L372.792 1417.29C371.522 1417.14 370.411 1416.66 369.458 1415.71L369.299 1415.55C368.03 1414.12 367.871 1412.85 367.871 1411.9C368.188 1409.68 369.934 1408.41 371.045 1407.77C371.045 1407.77 371.363 1407.61 371.363 1407.45C373.744 1406.02 376.601 1405.23 379.3 1405.23H380.887C388.982 1402.06 397.395 1400.31 406.126 1399.68C417.554 1398.56 427.872 1398.09 437.714 1398.09C458.508 1398.09 477.079 1400.47 494.381 1405.23C525.017 1413.64 553.748 1429.2 577.558 1450.31C588.352 1459.99 597.717 1471.26 605.177 1483.65C611.844 1494.6 620.257 1504.28 630.257 1512.22C633.749 1514.92 637.242 1517.93 640.575 1520.63C650.099 1528.57 659.94 1536.66 670.893 1542.85C690.259 1553.81 707.084 1561.58 725.974 1564.12C727.72 1564.44 729.307 1564.76 730.736 1565.23C731.688 1565.55 732.482 1565.71 733.434 1565.87C737.402 1566.5 740.418 1569.52 741.053 1573.49C741.212 1574.28 741.212 1575.08 741.371 1575.87C741.53 1576.98 741.529 1578.25 741.847 1579.2C743.593 1587.46 743.275 1592.22 740.895 1595.55C738.037 1599.36 732.64 1600.16 726.45 1600.47C717.085 1601.11 707.56 1602.85 698.354 1604.44C694.386 1605.08 690.259 1605.87 686.29 1606.35H685.655C684.544 1606.35 683.592 1606.19 682.481 1606.19C693.116 1608.73 705.338 1611.43 717.561 1611.43C722.958 1611.43 728.037 1610.95 732.958 1610C733.91 1609.84 734.863 1609.68 735.656 1609.68C738.831 1609.68 741.212 1611.27 742.323 1613.97C742.482 1614.44 742.641 1614.76 742.799 1615.24C742.958 1616.03 743.117 1616.66 743.275 1617.46V1618.89C743.434 1621.9 743.276 1625.24 742.958 1628.41C742.641 1632.54 739.466 1635.71 735.339 1636.35C718.196 1639.52 699.941 1642.38 681.211 1642.38ZM617.241 1586.19C617.082 1586.19 617.082 1586.19 617.241 1586.19V1586.19Z" fill="#755F59"/>
<path d="M944.074 806.171C937.089 806.171 930.423 803.948 924.232 799.345L924.073 799.186C921.692 797.282 919.629 795.059 917.565 792.678C916.137 791.567 915.184 789.98 914.549 788.234C914.232 787.599 913.914 786.805 913.756 786.17C912.803 785.377 912.327 784.265 912.327 783.154C912.327 781.408 913.121 779.98 914.867 779.027C915.819 778.551 916.93 778.234 917.883 778.234C919.946 778.234 921.692 779.503 922.645 781.408C925.661 782.678 928.835 783.789 932.169 784.583C934.232 784.9 936.137 785.218 938.042 785.218C948.518 785.218 957.249 779.503 962.011 769.344C963.281 766.646 964.233 763.789 965.185 760.773C965.662 759.503 966.138 758.074 966.614 756.805C966.931 755.852 967.884 755.059 968.836 754.741H969.471C970.265 754.741 971.058 755.059 971.693 755.693C978.201 762.202 980.424 770.456 978.36 779.821C976.297 789.345 970.265 797.282 961.534 801.567C955.661 804.583 949.788 806.171 944.074 806.171ZM880.263 1430.31C871.691 1430.31 863.12 1427.29 854.866 1421.26C854.072 1420.63 853.596 1419.68 853.596 1418.72C853.596 1417.77 854.072 1416.82 854.866 1416.18C884.39 1394.28 902.327 1363.17 911.375 1318.24C913.756 1306.66 918.994 1298.56 927.883 1293.01C932.328 1290.15 936.772 1288.72 941.217 1288.72C945.185 1288.72 949.153 1289.83 952.804 1292.21C961.693 1297.93 965.503 1306.34 963.439 1316.18C955.82 1353.8 940.74 1384.75 917.407 1410.79C912.327 1416.18 906.454 1420.95 900.105 1424.6C893.755 1428.41 887.088 1430.31 880.263 1430.31ZM843.913 1399.52C841.532 1399.52 839.468 1398.56 838.199 1396.82C837.087 1395.39 836.929 1393.48 837.564 1391.74C838.04 1390.31 838.675 1388.72 839.31 1387.29C850.897 1362.69 862.643 1338.25 874.231 1313.64C874.39 1313.17 875.183 1311.42 875.501 1310.94C876.453 1309.04 878.993 1303.96 884.549 1303.96C885.501 1303.96 886.612 1304.12 887.723 1304.44C890.581 1305.07 893.596 1306.02 896.454 1307.29C896.612 1307.29 896.771 1307.45 896.93 1307.61C898.993 1308.88 900.422 1311.1 900.422 1313.64V1314.28C899.946 1316.82 899.311 1319.51 898.517 1321.9C893.438 1342.37 884.39 1361.42 871.85 1378.4C867.405 1384.91 861.85 1390.63 855.342 1395.23C852.167 1397.77 848.199 1399.2 843.913 1399.52ZM763.594 1464.12C734.228 1464.12 707.72 1453.64 685.021 1433.01C681.529 1429.68 678.354 1425.87 675.814 1421.9C668.354 1411.58 667.401 1401.9 672.639 1390.94C694.862 1344.28 713.275 1295.7 728.831 1253.8C728.831 1253.64 728.99 1253.64 728.99 1253.48C729.942 1251.58 731.053 1249.67 732.323 1247.93C732.958 1246.97 733.911 1246.5 735.022 1246.5C735.498 1246.5 735.974 1246.66 736.45 1246.81C755.816 1256.02 771.53 1269.99 784.229 1289.36C806.452 1323.17 815.182 1361.9 810.103 1404.44C809.15 1412.85 806.611 1420.95 802.801 1428.56C798.674 1436.66 794.547 1445.07 790.102 1454.28C787.824 1459.61 782.715 1463.18 776.927 1463.49C772.165 1463.96 767.721 1464.12 763.594 1464.12Z" fill="#F7F6F5"/>
<path d="M748.356 1548.41C743.594 1548.41 738.832 1547.62 734.229 1546.19C687.243 1531.74 648.354 1503.96 618.512 1463.65C612.639 1455.71 610.893 1446.18 613.274 1436.66C615.972 1426.34 623.433 1417.29 632.798 1413.01C635.972 1411.74 639.147 1410.95 642.481 1410.47C643.274 1410.31 644.068 1410.31 644.862 1410.31C649.465 1410.31 652.481 1412.85 653.909 1417.77C659.306 1436.18 671.211 1450.31 692.482 1463.8C699.942 1468.41 708.037 1472.22 716.45 1475.07C729.467 1479.68 743.118 1481.9 756.927 1481.9C759.467 1481.9 762.007 1481.74 764.547 1481.74C766.293 1481.58 768.039 1481.58 769.785 1481.42C772.007 1481.26 774.388 1481.11 776.61 1480.95H777.404C781.372 1480.95 784.706 1483.8 785.499 1487.77C789.627 1507.93 784.547 1525.87 770.42 1540.79C765.182 1546.19 758.832 1548.41 748.515 1548.41H748.356ZM676.926 1315.39C676.608 1315.39 676.449 1315.39 676.132 1315.23C665.497 1312.69 656.132 1307.45 646.608 1301.74C600.734 1273.96 563.273 1235.55 535.494 1187.61C535.494 1187.45 535.335 1187.45 535.335 1187.29C534.859 1186.18 534.383 1185.07 534.224 1183.8C533.907 1182.37 534.701 1180.78 535.97 1180.15C536.129 1180.15 536.288 1179.99 536.447 1179.83C537.24 1179.35 538.193 1178.88 539.304 1178.88C539.939 1178.88 540.574 1179.04 541.05 1179.35C563.749 1190.78 588.511 1198.4 610.099 1204.59C622.004 1208.08 633.75 1212.05 645.179 1216.02C661.052 1221.42 677.402 1226.97 693.91 1230.94C695.021 1231.26 696.291 1231.58 697.244 1232.05C708.831 1236.66 709.942 1239.35 705.339 1251.58C698.513 1269.51 691.529 1287.61 684.704 1305.39L684.386 1306.18C683.434 1308.88 682.164 1312.21 678.672 1314.59C678.196 1315.23 677.561 1315.39 676.926 1315.39ZM727.72 1114.59C694.863 1114.59 662.481 1105.86 634.226 1089.19C622.321 1082.68 612.004 1073.8 603.75 1062.84C596.289 1052.53 592.797 1043.16 592.956 1033.32C593.114 1025.22 595.813 1017.76 601.527 1010.62C602.162 1009.83 603.115 1009.35 604.067 1009.35H604.226C605.178 1009.35 606.131 1009.98 606.766 1010.78C607.242 1011.41 607.559 1012.05 608.035 1012.68C608.829 1013.95 609.464 1015.06 610.258 1016.02C625.496 1037.76 645.814 1048.87 670.418 1048.87C673.116 1048.87 675.973 1048.72 678.989 1048.4C682.799 1048.08 686.608 1046.81 689.942 1044.91C686.45 1043.8 683.116 1042.68 679.624 1041.57C672.481 1039.19 665.021 1036.81 657.719 1034.11C626.131 1022.52 607.242 992.524 610.575 959.666C611.369 952.047 613.75 944.904 617.242 938.237C617.877 937.126 618.829 936.65 620.099 936.65H620.575C624.067 937.126 624.861 939.825 625.179 940.777C625.179 940.936 625.179 940.936 625.337 941.094C635.02 962.206 657.878 976.492 682.164 976.492C689.783 976.492 697.085 975.063 703.91 972.365C688.196 970.619 672.957 965.222 659.624 956.968C653.751 953.476 648.354 949.031 643.909 943.634C635.496 932.999 632.798 920.3 636.449 908.554C639.941 897.125 649.147 888.395 661.687 884.585C671.211 881.728 680.577 880.299 689.783 880.299C703.91 880.299 717.72 883.792 730.736 890.617C732.8 891.728 735.022 892.998 736.927 894.109C740.102 895.855 742.959 897.601 745.975 899.03C749.308 900.617 752.8 901.411 756.61 901.411C768.832 901.411 779.944 892.998 782.96 881.569C783.277 880.141 783.595 878.553 783.595 876.966C783.595 876.331 783.753 875.22 783.595 874.903H783.436C783.277 875.22 782.96 875.696 782.801 876.014C782.642 876.331 782.484 876.49 782.325 876.807C777.563 884.903 769.309 890.3 759.943 891.728C759.15 891.887 758.356 891.887 757.721 891.887C755.816 891.887 754.229 891.252 753.118 890.141C751.372 888.236 751.53 885.538 751.689 883.633C754.388 861.251 759.308 844.743 767.563 829.981C776.452 814.266 786.928 802.838 799.468 795.06C808.04 789.663 816.135 787.123 824.072 787.123C825.183 787.123 826.294 787.123 827.405 787.282C836.612 788.075 844.231 792.679 850.739 801.409C853.437 804.901 851.533 808.076 850.739 809.663L850.421 810.139C836.294 835.537 831.373 863.474 836.135 893.474C837.246 900.617 838.358 907.443 832.802 914.745C829.31 919.507 828.199 925.539 829.786 931.253C833.437 945.698 832.326 960.301 831.215 973.317C829.151 1002.05 822.802 1030.3 812.325 1057.29C810.103 1063.64 806.928 1069.67 803.119 1075.38C803.119 1075.38 803.119 1075.54 802.96 1075.54C800.262 1079.03 798.992 1083.32 799.15 1087.76C799.627 1094.43 795.817 1097.61 792.007 1099.99C779.15 1107.76 764.07 1112.37 745.975 1113.96C739.943 1114.27 733.911 1114.59 727.72 1114.59Z" fill="#F7F6F5"/>
<path d="M835.182 1105.86C831.214 1105.86 827.404 1105.22 823.594 1104.11C817.245 1102.05 812.642 1098.4 810.578 1093.48C808.515 1088.56 808.991 1082.68 812.166 1076.65C828.991 1043.48 837.722 1007.13 838.515 965.857C838.515 963.952 838.674 962.047 838.674 960.142C838.992 950.46 839.309 940.301 837.88 930.618C837.246 926.015 837.88 921.253 839.944 916.808C840.896 914.903 843.595 908.872 849.944 908.872C852.008 908.872 854.23 909.506 856.929 910.776C861.373 912.999 865.183 916.491 867.881 920.777C878.834 938.555 885.342 954.587 888.358 971.095C888.675 973.159 889.151 975.063 889.469 977.127C890.897 984.27 892.326 991.73 891.85 999.508C891.374 1028.08 886.77 1052.68 878.04 1074.43C874.23 1083.64 867.564 1096.65 852.325 1102.53C846.293 1104.59 840.738 1105.86 835.182 1105.86ZM80.0869 702.042C69.293 702.042 58.1816 699.82 47.229 695.375C43.2607 694.105 40.5622 690.454 40.5622 686.327C40.086 681.883 39.4511 677.279 38.8162 672.835C38.1812 667.914 37.3876 662.993 36.9114 657.914C33.8954 620.77 41.8321 587.277 60.5626 558.705C65.1659 551.404 71.039 545.054 78.0233 539.657C87.7061 532.197 98.9762 528.546 112.31 528.546C114.691 528.546 117.23 528.705 119.929 528.864H132.469C134.215 528.864 134.374 528.705 134.532 528.229C134.691 527.911 134.691 527.594 132.786 526.165C125.485 520.927 119.294 518.546 112.945 518.546H111.04C110.246 518.546 107.548 518.546 106.437 516.324C105.167 513.943 106.754 511.562 107.23 510.609C119.929 490.45 133.58 477.751 150.088 470.608C156.279 467.91 161.517 466.64 166.438 466.64C169.93 466.64 173.263 467.275 176.597 468.545C181.359 470.45 183.105 473.307 183.899 475.37C184.692 477.434 185.01 480.926 182.311 485.529C169.295 508.069 161.358 527.117 157.549 545.372C152.469 569.499 146.755 601.405 148.818 634.263V635.374C149.136 639.818 149.295 643.945 151.199 647.596C152.946 651.247 151.199 653.946 150.088 655.692C144.056 665.057 137.072 673.787 130.247 682.2L127.389 685.851C124.374 689.661 120.088 691.565 116.437 693.153L115.484 693.629C103.897 699.185 91.9919 702.042 80.0869 702.042Z" fill="#F7F6F5"/>
<path d="M83.1026 756.646C55.3242 755.376 31.673 740.455 16.2758 714.582C13.5773 710.296 11.8313 705.375 11.3551 700.137V699.502C11.1963 697.121 10.8789 692.994 14.8472 690.454C16.4345 689.502 18.0219 689.025 19.7679 689.025C21.8315 689.025 23.895 689.66 26.1173 690.93C28.8158 692.518 31.5142 694.105 34.054 695.851L35.1651 696.486C49.9273 705.851 67.0705 710.772 84.6899 710.772C105.96 710.772 125.961 703.47 141.04 690.137C147.707 684.263 153.263 677.279 157.231 669.343C159.136 665.057 161.993 660.93 165.485 657.596C168.501 654.739 171.835 653.469 175.327 653.469C177.073 653.469 178.66 653.787 180.406 654.422C186.914 657.12 187.232 663.469 187.549 666.644C187.867 671.247 186.914 676.009 185.01 680.295C170.723 710.137 154.056 730.296 132.627 743.63C117.865 752.519 102.786 756.646 83.1026 756.646ZM75.6421 526.324C74.0548 526.324 72.6262 525.054 72.4675 523.466C72.3087 522.355 72.3087 521.403 72.4675 520.292V519.974C73.5786 515.212 74.531 510.609 75.6421 505.847C77.7057 496.958 79.7692 487.593 81.8327 478.545C82.1502 477.275 82.4677 476.005 82.9439 474.735C83.7375 472.354 84.3725 470.132 84.055 468.068C84.055 467.592 84.055 467.275 84.2137 466.799C86.1185 459.656 87.8646 452.671 89.7694 445.528C95.96 421.56 102.309 396.797 110.881 372.987C117.23 355.368 129.135 340.447 148.183 326.002C156.755 319.494 166.279 316.319 176.914 316.319C181.676 316.319 186.597 316.954 191.518 318.383C191.676 318.383 191.994 318.383 192.311 318.541C193.581 318.7 195.645 318.859 196.915 320.605C197.549 321.399 198.026 322.669 197.708 324.732C197.708 324.891 197.708 325.208 197.549 325.367C197.232 327.589 196.597 331.875 191.835 333.145L190.406 333.621C188.502 334.097 186.597 334.574 184.851 335.209C173.422 338.859 164.85 346.32 158.818 358.225C143.421 388.067 131.675 419.655 123.897 452.195C123.103 455.528 122.627 458.862 122.31 462.513C121.834 466.64 121.199 470.926 120.088 475.211C119.611 477.275 118.5 479.497 117.072 481.243C106.436 492.672 97.7061 505.371 91.0393 519.339C91.0393 519.498 90.8806 519.657 90.8806 519.657C90.2456 520.609 89.6107 521.403 88.6583 522.038C88.0233 522.514 87.3884 522.831 86.5947 522.831H85.8011C84.8487 522.831 83.7375 523.466 82.4677 524.101C80.7216 525.054 78.6581 526.165 75.9596 526.324H75.6421Z" fill="#F7F6F5"/>
<path d="M131.041 468.068C130.565 468.068 130.089 467.91 129.613 467.91C128.819 467.592 128.184 467.116 127.708 466.322C127.39 465.529 127.232 464.735 127.549 463.941C130.406 455.687 133.105 447.274 135.803 439.02C144.375 412.512 153.423 385.051 167.867 360.129C177.868 342.828 194.376 339.812 210.725 339.018H211.36C214.218 339.018 215.646 340.288 216.281 341.399C217.71 343.78 216.281 346.478 215.805 347.431C198.185 381.241 187.55 418.543 178.82 450.766C178.82 451.084 178.661 451.243 178.661 451.56C178.344 452.83 177.709 456.957 173.106 456.957C172.788 456.957 172.312 456.957 171.836 456.798C169.772 456.481 167.709 456.322 165.486 456.322C155.962 456.322 146.597 459.497 134.851 466.481C134.692 466.481 134.692 466.64 134.533 466.798C134.057 467.116 132.787 468.068 131.041 468.068ZM519.303 652.834C518.827 652.834 518.351 652.675 518.033 652.517C516.764 652.04 516.129 650.771 516.129 649.342C516.446 643.786 516.287 637.913 515.97 632.199C515.811 629.024 515.652 625.691 515.652 622.516C515.652 621.881 515.652 620.294 515.811 618.071C515.97 612.516 516.287 596.484 515.652 591.722C505.811 588.388 495.176 586.166 484.858 584.102C480.255 583.15 475.493 582.198 470.89 581.087C469.461 580.769 468.509 579.499 468.509 578.071C468.509 576.642 469.302 575.372 470.731 574.896L505.176 564.102L507.557 563.308C507.557 553.943 507.081 544.895 504.065 536.641C501.049 528.07 495.017 521.244 488.033 518.387C486.763 517.911 485.969 516.641 486.128 515.371C486.128 514.101 486.922 512.831 488.192 512.514C494.7 510.133 501.525 509.022 508.351 509.022C514.065 509.022 519.779 509.815 525.335 511.403C567.082 524.577 577.876 565.213 558.352 635.532C558.034 636.961 556.764 637.913 555.336 637.913H554.86C550.891 637.913 546.923 638.389 542.955 639.5C539.304 640.453 535.812 641.881 532.478 643.786C529.303 645.532 526.129 647.755 523.43 650.294L522.637 651.088L521.843 651.882C520.891 652.517 520.097 652.834 519.303 652.834ZM757.404 704.105C756.61 704.105 755.975 703.788 755.34 703.47C743.435 693.946 729.943 686.644 715.339 681.882C713.752 681.406 712.799 679.66 713.276 678.073L713.911 675.692C717.72 661.247 721.212 647.596 724.387 633.469C715.974 627.913 706.45 623.151 697.402 618.548L684.545 611.881C683.275 611.246 682.64 609.817 682.958 608.389C683.275 606.96 684.545 606.008 685.974 605.849L724.546 604.103C726.927 595.055 728.832 586.325 728.038 577.436C727.72 572.356 726.133 567.277 723.593 562.832C722.958 561.88 723.117 560.61 723.593 559.658C724.228 558.705 725.181 558.07 726.292 558.07H728.832C748.038 559.658 766.769 574.261 775.34 594.42C789.309 627.278 776.61 671.565 760.102 702.041C759.626 702.835 758.832 703.47 757.88 703.629C757.88 704.105 757.562 704.105 757.404 704.105Z" fill="#F7F6F5"/>
<path d="M948.836 819.187C936.137 818.87 926.93 816.489 918.359 810.933C905.66 802.838 897.882 789.821 897.088 775.218C896.295 760.773 902.485 746.963 914.073 737.439C922.803 730.296 934.073 726.487 945.978 726.487C960.264 726.487 973.915 732.201 983.122 742.043C994.233 753.948 998.202 770.932 993.757 786.329C989.313 801.726 976.931 813.155 960.106 817.6C956.455 818.393 952.645 818.87 948.994 819.028C948.994 819.187 948.994 819.187 948.836 819.187ZM928.042 794.266C933.121 797.917 938.518 799.822 944.074 799.822C948.836 799.822 953.598 798.552 958.677 795.853C965.503 792.361 970.423 786.171 972.169 778.71V778.234C973.439 772.837 972.963 768.392 970.582 764.265C969.63 766.964 968.836 769.345 967.566 771.885C961.852 784.266 950.899 791.409 937.883 791.409C935.502 791.409 933.121 791.091 930.74 790.774H930.581C927.406 789.98 924.391 788.869 921.375 787.758C921.375 787.758 921.533 787.917 921.692 787.917L922.168 788.393C923.914 790.456 925.978 792.52 928.042 794.266ZM785.34 745.059C784.388 745.059 783.435 744.582 782.959 743.947C773.435 732.36 762.006 722.677 748.99 715.217C736.291 707.756 722.64 701.883 708.672 697.597C703.91 696.169 699.465 694.899 694.862 693.946C693.751 693.788 692.481 693.47 691.211 693.153C687.878 692.518 684.544 691.724 680.893 691.248C675.496 690.454 670.417 689.978 665.496 689.661C662.957 689.502 660.417 689.343 657.877 689.343C645.496 689.343 633.115 691.248 621.368 695.057C621.051 695.216 620.733 695.216 620.416 695.216C619.305 695.216 618.194 694.581 617.717 693.629C616.924 692.359 617.241 690.772 618.194 689.661C622.479 685.533 627.4 682.041 632.797 679.184L633.115 676.644C636.289 650.93 641.051 612.04 654.385 587.754C658.512 580.452 663.591 573.626 669.306 567.436C675.814 560.134 686.29 550.61 697.878 546.959C706.608 543.15 715.815 541.086 725.18 541.086C726.926 541.086 728.514 541.086 730.26 541.245C756.133 543.308 780.102 561.721 791.213 587.912C808.039 627.437 793.436 677.914 773.911 712.677C775.34 714.264 776.451 715.852 777.721 717.598C782.8 724.582 786.451 732.519 788.515 740.932C788.832 742.36 788.197 743.789 786.769 744.582C786.292 744.9 785.816 745.059 785.34 745.059ZM720.259 676.803C733.275 681.248 745.339 687.756 756.292 696.01C771.213 666.962 782.165 626.802 769.625 597.119C762.482 580.293 747.561 567.753 731.688 565.055C733.117 568.864 734.069 572.991 734.387 576.96C735.18 587.436 732.799 597.595 730.101 607.913C729.783 609.183 728.513 610.135 727.244 610.294L722.323 610.453L698.195 611.564C698.989 611.881 699.624 612.357 700.418 612.675C710.418 617.754 720.736 622.992 729.942 629.183C731.053 629.977 731.529 631.247 731.212 632.517C727.879 647.596 724.228 661.723 720.259 676.803ZM517.715 713.153C516.922 713.153 516.128 712.836 515.493 712.201C509.779 706.645 505.969 699.502 504.223 691.565C502.477 683.629 502.794 675.057 505.017 667.279C505.81 664.739 506.763 662.358 507.874 659.977C506.922 659.819 505.81 659.66 504.858 659.501C499.779 658.708 495.017 658.231 490.255 657.914C486.127 657.596 482 657.438 478.032 657.438C472.635 657.438 467.238 657.755 462 658.231C452.952 659.184 443.904 661.089 435.333 664.263C425.809 667.597 416.92 673.152 409.459 678.073C408.983 678.391 408.348 678.549 407.713 678.549C407.078 678.549 406.285 678.391 405.808 677.914C404.697 677.121 404.38 675.692 404.856 674.422C408.824 663.311 416.443 653.628 426.285 647.12C422.317 627.755 418.824 604.897 421.205 581.881C424.063 554.42 435.174 530.292 452.793 514.101C467.873 500.292 488.191 492.355 508.35 492.355C515.969 492.355 523.271 493.466 530.255 495.688C580.891 511.72 596.13 559.182 575.494 636.644C576.606 637.12 577.717 637.755 578.669 638.39C582.32 640.453 585.653 642.834 588.828 645.691C594.86 651.247 599.463 658.39 602.003 666.327C604.543 674.263 604.066 682.676 600.574 690.295C600.098 691.407 598.987 692.2 597.717 692.2H597.082C595.654 691.883 594.542 690.772 594.542 689.343C593.59 675.216 584.225 666.327 576.606 661.406C572.161 658.549 567.082 656.485 561.843 655.692C560.097 655.374 558.351 655.215 556.605 655.215H554.542C552.002 655.374 549.462 655.692 547.081 656.485C542.002 657.755 537.398 660.136 533.271 663.311C529.144 666.485 525.811 670.454 523.43 675.057C520.89 680.137 519.303 685.533 518.827 691.089C518.35 697.28 518.985 703.47 520.731 709.502C521.208 710.931 520.573 712.359 519.303 713.153C518.827 712.994 518.35 713.153 517.715 713.153ZM486.127 578.071C497.08 580.293 508.509 582.674 518.985 586.325C521.684 587.277 522.954 587.754 522.16 619.024V622.516C522.16 625.532 522.319 628.707 522.477 632.04C522.636 635.532 522.795 639.025 522.795 642.358C524.858 640.771 526.922 639.342 529.303 638.072C533.113 636.009 537.081 634.421 541.208 633.31C545.018 632.358 548.827 631.723 552.796 631.564C570.415 566.642 560.732 529.34 523.43 517.593C518.509 516.165 513.43 515.371 508.35 515.371C504.541 515.371 500.89 515.689 497.239 516.482C502.794 520.768 507.239 526.959 509.937 534.578C513.43 544.261 513.747 554.42 513.906 565.69C513.906 567.118 512.953 568.388 511.684 568.706L507.08 570.134L484.064 577.436C484.54 577.753 485.334 577.912 486.127 578.071ZM587.082 892.046C544.541 892.046 503.588 870.617 485.175 838.711L485.016 838.394C484.54 837.6 484.223 836.807 484.064 835.854V835.695C484.064 834.584 484.54 833.473 485.334 832.521C486.762 831.092 488.667 830.775 490.255 830.775H493.27C501.048 830.775 506.604 827.441 511.366 820.139C512.16 819.028 512.795 817.917 513.271 816.806C513.906 815.536 514.699 814.266 515.493 813.155C512.001 810.139 508.509 806.965 505.334 803.631C498.191 796.012 491.683 787.758 486.286 778.869C480.889 770.138 476.445 760.932 472.794 751.408C472.318 749.979 472.794 748.392 474.064 747.598C474.54 747.281 475.175 747.122 475.81 747.122C476.603 747.122 477.556 747.44 478.191 748.075L480.572 750.614C493.429 764.424 505.652 777.599 519.461 788.234C533.589 799.663 549.621 808.234 566.923 813.631C584.542 819.187 602.797 822.203 621.21 822.679H626.13C640.575 822.679 655.179 821.251 669.306 818.393C667.56 813.314 666.607 807.917 666.766 802.52C666.766 795.536 669.306 788.71 673.592 783.155C674.227 782.361 675.179 781.885 676.131 781.885C676.449 781.885 676.925 781.885 677.243 782.043C678.512 782.52 679.306 783.789 679.306 785.218C678.83 790.615 679.147 796.012 680.259 801.25C681.37 806.171 682.957 811.092 685.021 815.695C687.243 820.457 689.782 824.901 692.798 829.187C695.973 833.632 699.624 837.759 703.592 841.41C704.545 842.362 704.862 843.791 704.386 845.061C703.91 846.172 702.799 846.807 701.529 846.807H701.053C694.227 845.854 687.878 842.838 682.798 838.076C680.1 835.695 677.719 832.997 675.655 830.14C670.258 847.759 660.893 862.363 648.353 872.204C631.845 885.22 610.733 892.046 587.082 892.046Z" fill="#2C2729"/>
<path d="M1487.26 375.368C1457.74 307.748 1410.59 255.524 1348.69 216.158C1346.31 214.571 1344.88 212.984 1345.35 210.127C1345.67 207.587 1345.99 205.047 1346.62 202.666C1349.16 191.714 1348.69 180.443 1349 169.332C1349.16 163.935 1346.62 161.078 1341.54 159.491C1332.81 156.633 1324.4 153.459 1315.83 150.125C1249 123.617 1182.81 95.6797 1114.71 72.5046C1108.36 70.2824 1106.14 66.6315 1105.19 60.4409C1103.6 48.8533 1100.27 37.5833 1095.35 27.1068C1092.97 22.0274 1088.52 18.2178 1083.13 16.6304C1058.52 8.8525 1032.97 3.93176 1007.25 2.02696C981.377 0.439621 955.503 0.43962 929.788 1.70949C873.756 4.09049 818.992 12.8208 765.499 29.8053C728.356 41.7103 692.006 55.8376 657.878 75.2031C652.164 78.3778 646.767 82.0286 641.528 85.997C636.449 89.9653 636.766 95.0448 642.163 98.5369C650.735 104.093 658.195 110.918 665.815 117.585C683.752 133.3 699.307 151.395 714.863 169.491C745.658 205.206 773.912 242.984 799.627 282.509C802.008 286.16 805.183 289.493 805.341 294.255C799.627 295.525 795.182 292.351 790.738 290.604C741.054 271.08 689.307 262.985 635.973 263.461C596.924 263.778 558.035 267.429 519.304 271.715C490.573 274.89 462.16 279.493 433.111 280.446C405.809 281.239 378.348 282.192 351.046 282.985C335.808 283.461 320.728 283.62 305.648 279.969C304.22 279.652 302.632 279.652 301.204 279.811C297.712 280.128 294.854 284.89 296.759 287.747C298.347 290.287 300.251 292.668 302.632 294.573C308.029 299.176 313.744 303.303 319.458 307.589C322.157 309.176 323.268 312.51 321.839 315.367C318.982 323.939 316.442 332.669 314.061 341.558C302.474 384.099 292.791 427.115 282.791 469.973C263.901 551.404 244.853 632.834 225.647 714.105C223.266 724.423 222.155 735.058 217.393 744.741C217.393 745.535 217.234 746.487 217.234 747.281C207.392 734.741 197.71 722.201 188.662 709.026C186.598 706.01 186.122 704.264 187.551 700.772C191.995 690.137 198.027 679.978 199.297 668.231C201.36 650.136 187.392 637.278 169.773 641.088C166.28 641.882 165.328 641.088 164.852 637.596C161.518 616.008 161.995 594.262 164.058 572.674C165.487 556.801 168.503 541.245 175.804 526.8C181.678 514.895 187.551 502.99 192.789 490.926C196.757 481.402 199.297 471.561 191.202 462.513C190.249 461.402 190.09 459.656 190.725 458.386C196.44 438.385 202.472 418.385 207.71 398.067C212.631 379.019 221.996 361.4 224.536 341.717C225.17 336.637 223.583 333.304 219.456 330.923C216.281 329.335 212.948 328.383 209.456 328.224C202.63 327.431 202.313 326.796 204.694 320.605C206.916 315.208 205.805 312.033 200.884 309.018C195.964 306.16 190.567 304.414 185.011 303.621C165.804 300.763 149.931 308.541 135.962 320.605C120.248 334.256 109.93 351.717 101.993 370.765C96.2789 384.892 91.3582 399.337 86.7549 413.782C77.5484 443.147 67.8656 472.354 60.0877 502.196C57.8654 510.768 57.8654 519.657 55.3257 527.911C50.8811 542.515 44.2143 556.166 37.3888 569.817C21.0392 602.674 17.0709 637.755 22.4678 673.946C22.7853 676.009 24.3726 678.39 19.9281 678.39C6.91195 678.549 -0.0723236 686.327 0.880077 699.502C1.83248 709.502 5.32463 719.026 11.039 727.122C24.0552 746.487 43.7381 756.646 64.691 764.583C70.4054 766.805 74.8499 769.027 78.0246 774.742C87.7073 791.885 96.1202 809.663 104.851 827.282C108.343 833.632 111.994 839.981 115.486 846.33C131.359 875.22 151.677 901.57 175.646 924.11C175.487 925.062 175.169 926.015 175.011 926.967L174.058 930.777C173.582 932.205 172.788 933.475 171.995 934.745C171.836 937.761 171.36 940.777 170.725 943.793C166.439 962.047 161.677 980.143 157.55 998.397C155.645 1006.81 154.693 1015.38 153.264 1023.95C152.312 1029.99 155.328 1033.64 160.249 1036.18C161.995 1037.13 163.899 1037.76 165.963 1038.08C178.027 1040.3 188.979 1045.54 200.408 1049.67L427.556 1131.57C450.413 1139.83 473.271 1147.92 496.287 1155.86C497.716 1156.34 499.145 1156.97 500.573 1157.77C504.065 1159.67 506.446 1163 507.399 1166.81C509.145 1172.69 511.367 1178.4 514.065 1183.8C533.59 1227.29 563.273 1262.69 599.782 1292.69C619.464 1308.88 640.894 1322.21 665.18 1330.63C667.243 1331.58 669.148 1332.53 671.053 1333.8C665.18 1350.94 660.259 1367.93 652.957 1383.96C650.894 1388.56 648.195 1389.52 643.592 1389.68C619.782 1389.83 603.75 1402.06 593.273 1422.69C592.004 1425.23 592.321 1428.72 588.353 1430.15C586.924 1429.2 585.337 1428.25 583.749 1426.98C548.193 1397.93 507.399 1381.74 461.842 1377.14C413.587 1372.21 367.872 1380.63 325.49 1404.28C291.204 1423.17 265.171 1450.15 248.663 1485.87C244.536 1494.6 241.679 1503.8 240.091 1513.33C238.822 1521.42 240.568 1529.68 245.012 1536.66C255.171 1553.01 266.6 1568.41 280.727 1581.9C302.95 1603.01 328.347 1619.52 355.649 1633.33C410.889 1661.59 469.938 1676.82 531.05 1685.24C537.558 1686.35 544.225 1685.24 550.098 1682.22C556.765 1678.73 563.59 1675.55 571.527 1671.59C573.432 1674.13 575.337 1676.51 577.241 1678.89C582.638 1685.71 589.94 1688.25 598.512 1689.05C609.623 1690.16 620.734 1690 631.846 1688.73C640.894 1687.62 649.941 1686.51 658.989 1685.24C686.609 1681.27 713.752 1675.08 739.784 1664.76C756.134 1658.25 765.023 1646.82 764.864 1628.89C764.706 1611.58 765.341 1594.44 762.483 1577.3C761.372 1570.95 761.69 1570.31 767.563 1568.41C781.373 1563.81 791.055 1554.6 798.04 1542.38C808.04 1524.28 811.532 1505.23 804.865 1485.23C803.119 1479.99 803.437 1474.12 805.976 1469.2C812.167 1455.87 817.881 1442.37 823.755 1428.88C825.342 1425.23 827.088 1421.42 828.834 1417.77C829.469 1416.5 830.58 1414.91 832.167 1415.55C833.437 1416.18 834.39 1417.29 834.866 1418.72C838.834 1431.74 848.517 1438.25 860.581 1442.53L870.581 1445.87C869.628 1450.79 865.66 1452.53 862.962 1455.39C836.136 1483.17 821.215 1516.19 818.992 1554.6C815.659 1612.85 836.136 1661.74 878.041 1702.06C889.946 1713.17 902.963 1722.86 916.772 1731.27H918.042C920.423 1731.43 922.963 1731.59 925.344 1731.75H925.661L937.249 1731.59H938.043C960.742 1723.97 978.996 1709.84 995.028 1692.38C1012.49 1673.17 1026.62 1651.59 1038.84 1628.89C1058.84 1591.74 1072.81 1552.22 1083.76 1511.58C1088.05 1495.39 1091.38 1479.04 1095.51 1463.01C1097.25 1456.34 1095.51 1451.26 1090.74 1446.66C1087.89 1443.96 1084.08 1442.06 1082.33 1438.09C1084.24 1435.39 1087.41 1435.07 1090.11 1434.44C1097.09 1432.85 1100.27 1428.41 1101.22 1421.74C1101.54 1419.2 1102.01 1416.82 1102.49 1414.28C1106.3 1389.2 1106.62 1363.8 1105.98 1338.56C1105.98 1336.02 1105.82 1333.48 1105.51 1330.94C1104.55 1322.69 1101.54 1319.67 1093.13 1318.25C1072.17 1314.75 1051.22 1311.42 1030.27 1307.93C1016.77 1305.71 1003.28 1303.48 989.79 1301.42C984.552 1300.63 979.948 1299.36 977.726 1293.8C977.091 1292.37 976.297 1291.1 975.345 1289.99C965.186 1275.86 943.44 1264.91 921.534 1277.61L916.296 1280.63L915.344 1282.05C915.185 1282.37 914.867 1282.69 914.709 1282.85C913.915 1283.64 912.804 1284.75 911.693 1283.8L911.375 1283.48C910.899 1282.69 910.899 1281.74 911.217 1280.94L912.645 1279.04C913.121 1278.56 913.439 1278.24 913.756 1277.77C925.026 1252.05 936.297 1226.18 947.567 1200.31C948.995 1197.13 949.313 1193.32 952.964 1191.1C961.535 1192.53 970.424 1194.43 979.472 1195.23C989.472 1196.18 994.076 1192.37 997.091 1182.69C997.409 1181.73 997.726 1180.78 997.885 1179.83C1002.33 1160.15 1006.77 1140.46 1011.7 1120.94C1014.39 1110.3 1015.35 1099.19 1019.95 1088.88C1019.79 1087.13 1019.79 1085.38 1020.11 1083.64C1020.27 1082.53 1020.58 1081.57 1020.74 1080.46C1032.33 1074.91 1043.28 1068.4 1053.76 1060.94C1103.76 1025.06 1133.28 976.333 1141.06 914.903C1144.55 889.03 1140.11 862.68 1128.05 839.664C1126.14 836.013 1123.92 832.362 1121.54 829.029C1121.7 828.711 1121.7 828.552 1121.86 828.235C1122.33 826.806 1122.81 825.219 1123.13 823.79C1123.6 821.251 1124.55 819.028 1126.3 817.123C1128.05 803.631 1130.11 790.139 1131.22 776.488C1132.49 760.773 1131.06 745.058 1127.09 729.82C1124.55 719.661 1120.43 711.248 1108.84 707.597L1108.68 707.439C1108.68 707.439 1108.84 707.439 1108.84 707.28C1113.76 703.312 1117.73 700.137 1121.7 697.121C1219.95 622.675 1318.05 548.07 1416.15 473.465C1442.02 453.783 1467.26 433.465 1492.66 413.305C1500.28 407.274 1500.59 405.369 1496.94 396.48C1493.45 389.178 1490.28 382.352 1487.26 375.368ZM1117.09 90.6003C1178.05 116.95 1240.11 139.966 1302.02 163.776C1309.96 166.792 1318.05 169.967 1325.99 173.3C1332.34 175.999 1332.5 176.951 1331.54 183.777C1328.84 202.984 1322.18 221.079 1313.76 238.381C1296.78 272.985 1276.62 305.684 1255.19 337.748C1233.45 370.13 1211.38 402.353 1189.64 434.734C1180.27 448.544 1171.54 462.83 1162.49 476.799L1159.63 482.989C1158.84 484.736 1158.05 486.482 1157.25 488.069C1156.78 488.863 1155.82 489.18 1155.03 489.656C1154.56 488.863 1153.76 488.228 1153.76 487.434C1153.13 484.577 1154.08 481.561 1156.14 479.497C1156.78 475.37 1156.62 470.926 1159.79 467.592C1159.95 458.862 1162.65 450.449 1167.41 443.306C1177.73 427.115 1187.89 410.766 1198.37 394.575C1213.6 371.241 1229.16 348.066 1244.4 324.732C1254.24 309.97 1262.97 294.573 1270.59 278.699C1274.56 270.445 1277.41 261.715 1279.32 252.826C1280.59 246.794 1279.64 243.937 1274.4 241.715C1246.14 229.81 1235.67 204.73 1226.94 178.38C1226.3 176.475 1225.83 174.412 1225.67 172.348C1225.35 161.554 1218.84 156.475 1209.48 152.983C1181.54 142.347 1153.76 131.553 1125.82 120.76C1122.97 119.648 1120.11 118.696 1117.09 117.902C1114.08 117.267 1111.86 114.569 1111.7 111.394C1111.06 104.41 1110.59 97.4258 1110.11 91.2352C1113.44 88.8542 1115.35 89.9653 1117.09 90.6003ZM1378.37 431.719C1380.12 438.862 1380.12 439.02 1374.08 442.83C1343.77 462.354 1315.67 484.736 1286.78 506.323C1234.56 545.53 1182.17 584.738 1129.79 623.786C1127.41 625.532 1124.87 626.961 1119.79 630.294C1124.71 610.135 1128.36 593.468 1132.97 576.96C1134.87 570.293 1138.68 564.102 1142.02 557.753C1172.81 501.879 1206.62 447.751 1243.29 395.369C1268.21 359.654 1292.49 323.462 1313.29 285.208C1313.92 283.779 1314.72 282.509 1315.67 281.398C1316.78 279.652 1319 278.858 1320.91 279.811C1321.86 280.287 1322.65 280.763 1323.61 281.239C1348.84 297.747 1371.7 316.795 1390.12 340.605C1393.29 344.574 1395.99 348.86 1398.85 353.145C1402.02 358.066 1401.86 358.86 1397.26 363.463C1378.05 382.67 1372.02 405.369 1378.37 431.719ZM799.151 247.588C773.277 208.857 745.181 171.713 713.276 137.427C699.149 122.188 684.069 107.902 666.45 96.4734C665.339 95.6797 664.227 94.5686 663.275 93.6162C662.64 90.4415 665.339 90.1241 666.767 89.4891C710.736 69.9649 755.499 52.1867 802.484 40.9167C839.469 32.0276 877.089 26.1544 915.026 23.2972C935.82 21.7099 956.456 20.7575 977.25 21.075C1007.25 21.2337 1036.93 25.202 1065.98 32.6625C1068.36 33.2975 1070.74 34.0911 1073.28 34.7261C1077.41 35.361 1080.59 38.8531 1080.74 42.9802C1082.49 57.5837 1084.87 72.0284 1086.3 86.7906C1089.32 117.109 1092.17 147.268 1094.71 177.586C1095.67 189.65 1095.82 201.872 1095.98 214.095C1096.62 255.207 1095.98 296.319 1092.17 337.272C1090.9 351.399 1088.52 365.368 1086.3 379.336C1085.35 385.051 1083.44 386.162 1078.05 385.686C1075.98 385.527 1074.08 385.21 1072.01 384.892C1067.25 383.94 1066.3 382.352 1066.93 377.59C1078.05 309.335 1082.17 240.603 1077.25 171.396C1076.46 159.332 1073.92 147.268 1072.33 135.204C1072.01 131.077 1069.16 127.585 1065.19 126.474C1059.47 124.252 1054.08 121.712 1048.52 119.172C1037.89 114.093 1028.68 106.791 1021.38 97.5845C1015.66 91.0765 1012.65 82.6636 1012.65 73.9332C1012.81 61.3933 1011.22 59.6472 998.838 55.8376C972.646 47.9009 945.186 44.7263 917.725 46.3136C882.803 48.0597 848.358 56.1551 816.135 69.8062C803.437 75.0444 791.532 81.7112 780.42 89.8066C777.563 91.8701 774.865 94.2511 772.166 96.4734C766.293 101.712 764.388 107.426 767.245 115.521C773.119 132.347 773.277 149.49 765.658 165.84C762.642 172.348 763.436 177.427 768.515 182.348C773.277 186.951 777.88 191.555 782.484 196.317C807.087 221.079 826.612 249.175 838.675 282.192C842.326 291.557 844.707 301.398 845.66 311.399C836.771 311.081 833.279 306.795 830.104 300.128C821.374 281.715 810.421 264.572 799.151 247.588ZM1047.73 375.686C1047.25 379.654 1044.87 380.606 1041.54 380.13L1005.35 375.368C993.917 373.781 982.329 372.193 970.742 371.241C965.186 370.924 959.789 369.495 954.71 367.114C925.661 352.828 896.772 338.383 867.724 323.938C863.755 322.034 861.216 319.653 861.057 314.891C859.787 273.937 841.215 240.127 816.612 209.015C807.564 197.428 797.087 186.951 785.658 177.904C782.96 175.84 781.69 173.3 783.119 169.967C790.579 151.871 789.944 133.458 785.024 114.886C783.277 108.537 783.595 108.061 788.833 105.045C839.469 75.5206 897.883 62.0282 956.297 66.314C966.932 67.1077 977.409 69.1712 987.568 72.1872C990.107 72.6634 992.012 74.8856 992.171 77.4254C995.187 107.267 1014.55 123.776 1039.31 135.839C1042.49 137.427 1045.82 138.538 1049.31 139.331C1060.9 142.189 1059.16 144.252 1059.16 152.983C1059.31 177.745 1059.16 202.666 1059.16 227.429C1059.63 277.112 1054.24 326.478 1047.73 375.686ZM467.239 303.462C470.255 298.382 474.382 296.954 479.779 296.478C501.843 294.255 524.066 291.557 546.13 289.493C585.495 285.842 624.861 283.62 664.386 284.731C697.244 285.842 729.943 291.557 761.214 301.716C769.468 304.256 777.404 307.271 785.658 309.97C787.563 310.129 789.309 310.605 791.214 311.24C792.325 311.716 793.119 313.145 794.071 314.256C792.801 314.732 791.373 315.208 790.103 315.526C789.627 315.684 789.151 315.367 788.674 315.208C769.309 317.113 750.102 320.923 731.53 326.478C712.8 332.193 694.863 339.812 677.878 349.336C664.069 357.114 651.211 366.003 640.576 377.749C636.766 381.876 633.433 383.622 627.56 381.559C608.512 375.051 591.686 379.019 578.035 394.416C575.178 397.591 572.956 398.543 569.146 396.162C529.463 372.352 490.097 348.542 450.731 324.732C449.937 324.097 449.302 323.304 448.667 322.51C448.191 319.176 451.366 318.542 453.112 317.43C458.667 313.462 463.906 309.176 467.239 303.462ZM350.411 300.128C382.793 300.446 415.333 299.97 447.715 298.382C448.667 298.382 449.778 298.541 450.731 298.382C452.159 298.224 452.794 298.7 452.636 300.128C452.477 301.081 452.318 302.192 451.683 302.827C447.397 306.478 442.318 308.859 436.762 310.129C433.746 310.764 430.889 311.557 427.873 312.033C424.222 312.827 420.889 313.938 420.254 318.224C419.619 322.192 421.841 325.05 424.698 327.431C426.762 329.018 428.826 330.447 431.048 331.558C472.953 356.32 514.859 380.924 556.606 405.686C560.892 408.385 565.495 410.766 570.098 412.671C572.321 413.782 574.86 414.099 577.4 413.94C578.67 413.782 579.781 413.464 580.892 412.829C581.21 412.671 581.686 412.353 582.003 412.194C582.797 411.718 583.432 411.083 584.067 410.289C584.384 409.972 584.702 409.496 585.019 409.02C588.511 404.099 593.115 400.131 598.353 397.273C599.623 396.638 600.893 396.162 602.163 395.686C610.099 392.829 618.83 392.988 628.354 395.845C634.068 397.591 637.878 396.638 642.005 392.829C656.767 378.86 673.275 367.114 691.371 357.907C729.626 338.859 769.626 327.748 812.643 328.383C826.294 328.224 839.945 331.24 852.327 336.955C861.533 341.399 870.74 345.526 879.946 349.653C885.502 350.288 890.264 353.463 895.185 355.685C898.201 356.638 901.216 357.749 904.074 358.701L901.216 361.876C898.994 361.4 896.613 361.4 895.343 358.86C887.724 357.907 880.264 356.479 873.279 352.828C857.247 350.288 841.215 348.066 825.342 345.209C793.436 339.653 764.071 347.431 735.657 361.082C729.308 364.257 723.276 367.908 717.403 371.876C688.831 391.4 662.164 412.988 638.671 438.544C631.211 446.798 623.433 454.735 615.496 462.672C607.559 470.608 607.56 470.291 598.829 464.894C590.575 459.814 582.48 454.576 574.384 449.338C500.256 401.559 426.286 353.939 352.157 306.16C350.411 305.049 348.983 303.779 347.554 302.827C347.395 300.446 348.983 300.128 350.411 300.128ZM211.043 341.875C213.742 341.717 214.535 342.828 213.107 345.526C195.964 378.543 185.487 413.94 175.963 449.655C175.487 451.402 175.804 453.941 172.63 453.465C158.185 451.243 145.645 456.322 133.581 463.624C132.629 464.259 131.835 465.211 130.724 464.894C142.947 429.972 151.994 393.94 170.884 361.558C179.931 345.685 194.852 342.669 211.043 341.875ZM85.3263 473.148C85.8025 471.243 85.9612 469.18 87.2311 467.592C95.4852 436.322 102.628 404.575 113.74 374.098C120.724 355.05 134.216 340.605 150.09 328.542C162.153 319.335 176.122 317.43 190.725 321.399C192.313 321.875 195.17 321.24 194.535 323.938C194.059 326.161 194.059 329.018 191.043 329.97C188.662 330.605 186.281 331.24 183.9 332.034C170.884 336.002 161.995 344.891 155.963 356.638C140.407 386.638 128.661 418.544 120.883 451.401C119.137 458.862 119.137 466.799 117.073 474.418C116.756 476.164 115.803 477.751 114.692 479.18C104.057 490.767 95.009 503.784 88.1835 517.911C87.7073 518.546 87.2311 519.181 86.5962 519.657L76.4372 525.371C75.3261 525.371 74.215 526.006 73.4213 524.578C77.5484 507.434 80.4056 490.132 85.3263 473.148ZM63.4211 560.451C67.8656 553.467 73.58 547.277 80.0881 542.197C91.9931 533.149 105.485 530.768 119.93 532.197H131.835C134.216 532.197 136.756 532.197 137.708 529.498C138.661 526.8 136.756 525.213 134.851 523.784C128.184 519.022 120.883 515.371 112.311 515.689C110.089 515.689 108.025 515.847 110.089 512.673C120.565 496.164 133.105 481.878 151.518 473.942C159.296 470.608 167.233 468.545 175.646 471.878C181.36 474.1 183.106 478.545 179.773 484.259C168.661 503.307 159.137 523.466 154.534 545.054C148.185 574.579 143.899 604.421 145.804 634.739C146.121 639.659 146.28 644.739 148.502 649.342C149.455 651.406 148.502 652.834 147.55 654.263C140.724 664.739 132.788 674.263 125.168 683.946C122.311 687.438 118.184 689.026 114.375 690.93C92.628 701.089 70.5641 701.407 48.3414 692.359C45.6429 691.565 43.7381 689.026 43.8969 686.168C43.1032 676.644 41.0397 667.12 40.246 657.596C37.3888 622.675 44.0556 589.976 63.4211 560.451ZM130.724 740.931C117.708 749.027 103.422 753.471 83.104 753.471C57.7067 752.36 34.3728 739.185 18.817 712.994C16.2772 709.026 14.8486 704.581 14.3724 699.978C14.2137 697.438 13.8962 694.74 16.436 693.153C18.9757 691.565 21.8329 692.2 24.3726 693.629C27.3886 695.375 30.2458 697.28 33.2617 699.184C68.0244 721.248 113.74 718.391 142.947 692.676C149.931 686.645 155.804 679.184 160.09 670.93C161.995 666.803 164.534 663.152 167.709 659.977C171.042 656.961 174.852 655.85 179.138 657.438C183.424 659.025 184.059 662.993 184.059 666.962C184.217 671.089 183.582 675.216 181.836 679.025C169.931 703.788 154.693 726.01 130.724 740.931ZM648.354 1299.04C601.845 1270.94 565.495 1233.01 538.352 1186.02C537.875 1185.07 537.558 1184.12 537.399 1183.16C538.193 1182.85 539.304 1181.89 539.78 1182.21C562.003 1193.48 585.654 1200.94 609.464 1207.77C637.719 1215.86 664.703 1227.29 693.276 1234.12L696.133 1235.07C706.133 1239.04 706.609 1239.99 702.482 1250.47C695.657 1268.4 688.672 1286.34 681.847 1304.28C680.736 1307.13 679.942 1309.99 676.926 1312.05C666.608 1309.83 657.402 1304.59 648.354 1299.04ZM626.607 1642.86C625.179 1644.92 623.592 1646.66 621.687 1648.41C613.909 1654.6 605.972 1660.79 598.035 1666.82C597.242 1667.46 596.448 1667.93 595.496 1668.41C593.591 1669.36 591.369 1668.57 590.258 1666.82C589.305 1665.55 589.464 1663.81 590.575 1662.86C601.528 1654.28 612.321 1645.24 624.861 1638.73C625.179 1638.57 626.29 1639.52 627.084 1640C626.925 1641.11 627.084 1642.22 626.607 1642.86ZM739.626 1628.09C739.467 1630.79 737.404 1632.85 734.705 1633.17C708.197 1637.93 681.688 1641.43 654.862 1636.82C653.116 1636.82 651.529 1636.03 650.259 1634.92C650.1 1634.76 649.941 1634.44 649.783 1634.28C649.306 1632.7 649.306 1631.11 649.941 1629.52C651.052 1624.12 651.687 1618.57 651.687 1613.01C652.005 1601.9 640.259 1595.55 631.687 1602.85C626.607 1607.14 621.369 1611.11 616.29 1615.24C607.401 1622.22 607.083 1622.22 597.559 1616.82C581.686 1607.62 567.559 1596.19 553.114 1584.92C523.272 1561.58 493.906 1537.3 462.318 1516.19C444.223 1504.12 425.651 1492.69 405.016 1485.23C387.714 1478.88 370.253 1474.44 351.681 1474.6C346.125 1474.6 340.57 1474.6 335.014 1474.44C315.49 1473.8 295.966 1476.82 277.553 1483.33C274.537 1480.95 276.283 1479.2 277.235 1477.61C287.394 1462.85 300.41 1450.95 314.379 1439.99C320.093 1435.55 327.077 1433.49 334.22 1433.96C364.538 1435.39 394.539 1440.79 423.587 1449.99C446.286 1457.45 467.398 1469.04 485.97 1484.12C503.43 1498.09 519.939 1513.01 536.129 1528.41C552.638 1544.12 569.463 1559.52 587.242 1573.65C594.385 1579.36 602.48 1583.81 611.052 1586.98C613.909 1588.09 618.195 1591.43 620.258 1587.14C621.845 1584.12 617.401 1582.38 615.179 1580.47C612.798 1578.57 610.258 1576.98 607.56 1575.39C590.258 1563.96 574.067 1550.63 559.622 1535.87C535.177 1511.58 509.78 1488.25 483.43 1466.03C455.493 1442.37 422.318 1425.71 386.761 1417.14C382.793 1416.18 378.983 1415.07 375.015 1414.12L372.951 1413.8C372.316 1413.8 371.682 1413.49 371.205 1413.01C369.777 1411.58 371.523 1410.63 372.634 1409.83C375.174 1408.41 378.031 1407.77 380.888 1408.25C388.825 1405.07 397.396 1403.17 405.968 1402.69C435.175 1399.99 464.382 1400.15 493.113 1408.09C523.431 1416.5 551.527 1431.58 575.019 1452.38C585.496 1461.9 594.702 1472.85 602.004 1484.92C608.829 1496.19 617.401 1506.19 627.719 1514.44C641.211 1525.07 653.751 1536.98 668.831 1545.39C686.45 1555.23 704.546 1564.28 725.022 1566.98C727.562 1567.3 729.943 1568.25 732.324 1568.73C734.864 1569.04 736.927 1571.11 737.245 1573.65C737.562 1575.71 737.562 1577.77 738.038 1579.68C741.213 1594.44 737.562 1596.35 725.657 1597.14C712.165 1598.09 698.672 1600.95 685.18 1603.01C685.021 1603.49 684.704 1603.97 684.069 1604.12C684.386 1603.81 684.863 1603.49 685.18 1603.01C681.688 1602.85 678.355 1602.54 674.862 1602.7C671.37 1602.85 668.037 1601.27 665.338 1604.6C663.91 1606.51 668.037 1608.41 674.704 1608.73C676.132 1608.73 677.72 1608.57 679.148 1608.57C696.926 1613.01 714.705 1616.51 733.118 1612.85C736.292 1612.22 738.038 1612.85 738.991 1614.92C739.15 1615.24 739.149 1615.39 739.308 1615.71C739.467 1616.35 739.626 1616.98 739.626 1617.62V1618.73C739.943 1622.06 739.943 1625.08 739.626 1628.09ZM768.198 1538.57C763.436 1543.65 757.563 1545.23 748.674 1545.23C744.07 1545.23 739.626 1544.6 735.181 1543.17C688.196 1528.73 650.417 1501.42 621.052 1461.9C608.353 1444.6 618.988 1423.01 634.068 1416.18C636.925 1415.07 639.782 1414.28 642.798 1413.96C647.243 1413.33 649.465 1414.6 650.735 1418.88C657.084 1440.63 672.164 1455.07 690.577 1466.82C698.355 1471.58 706.609 1475.55 715.181 1478.41C731.054 1483.96 747.721 1486.19 764.547 1485.23C768.515 1485.07 772.642 1484.6 776.611 1484.44C779.309 1484.12 781.69 1485.87 782.166 1488.57C786.452 1507.46 781.69 1524.44 768.198 1538.57ZM806.611 1404.12C805.659 1412.22 803.437 1419.99 799.627 1427.3C795.182 1435.87 790.897 1444.44 786.928 1453.17C785.182 1457.45 781.055 1460.31 776.452 1460.47C742.324 1463.8 712.482 1453.8 687.244 1430.79C683.91 1427.61 681.053 1424.12 678.513 1420.31C672.323 1411.58 670.418 1403.33 675.497 1392.37C696.768 1347.61 714.705 1301.26 731.848 1254.91C732.8 1253.16 733.753 1251.26 734.864 1249.67C754.864 1259.2 769.785 1273.48 781.214 1291.1C803.754 1325.55 811.373 1363.48 806.611 1404.12ZM500.414 1131.42C498.033 1130.62 495.811 1129.19 493.589 1128.24C490.89 1128.72 488.192 1127.76 486.446 1125.7H485.335L484.382 1125.07C481.843 1125.54 479.144 1124.59 477.557 1122.53H476.446L475.334 1121.89C472.795 1122.53 470.096 1121.57 468.668 1119.35C467.874 1119.51 466.922 1119.35 466.287 1118.72C465.81 1118.72 465.493 1118.88 465.017 1118.88C462.953 1118.88 461.207 1117.92 460.096 1116.34C446.445 1113.8 433.905 1108.08 421.048 1103.48C413.428 1102.05 406.127 1099.35 399.301 1095.54L393.745 1094.27L375.491 1088.4C369.301 1086.34 363.269 1084.43 357.237 1082.37C354.38 1081.41 351.522 1080.46 348.665 1079.35C348.189 1079.19 347.871 1078.08 347.713 1077.29C347.713 1077.13 348.506 1076.65 348.983 1076.65C352.157 1076.18 355.014 1076.49 357.237 1079.19C364.856 1079.83 372.158 1081.89 378.983 1085.38C385.491 1086.02 391.841 1087.92 397.396 1091.26H397.873C398.666 1091.26 399.301 1091.41 399.936 1091.89C409.46 1093.95 419.143 1095.7 427.873 1100.62C441.366 1103.95 454.699 1107.29 467.398 1113C468.35 1112.84 469.303 1113 469.938 1113.64C472.477 1113 475.176 1113.8 476.763 1115.86C477.557 1115.54 478.35 1115.7 478.985 1116.34C482.319 1115.7 485.811 1116.81 488.192 1119.19C491.843 1118.88 495.176 1119.35 497.716 1122.05C498.668 1121.73 499.621 1122.05 500.256 1122.53C502.795 1121.89 505.653 1122.69 507.399 1124.75C524.066 1129.35 540.574 1133.64 557.082 1138.4C665.021 1169.67 772.96 1201.1 880.899 1232.53C888.2 1234.59 895.502 1236.66 902.804 1238.88C906.772 1240.15 907.883 1242.05 906.613 1245.55C904.074 1252.69 901.534 1259.83 898.835 1266.97C897.248 1270.94 895.82 1271.58 891.851 1270.15C882.803 1266.97 873.597 1263.8 864.549 1260.62C742.8 1217.61 621.687 1174.59 500.414 1131.42ZM695.022 1044.11C694.863 1042.68 693.117 1042.53 692.006 1042.05C681.053 1038.4 669.942 1035.06 658.989 1030.94C628.671 1019.83 610.575 991.095 613.75 959.825C614.544 952.682 616.766 945.856 620.099 939.507C621.845 939.824 621.845 941.094 622.163 942.047C636.449 973.159 675.497 988.079 706.927 974.111C708.355 973.476 711.054 973.317 710.736 970.936C710.419 968.555 707.879 969.349 706.133 969.19C690.101 967.603 674.704 962.523 660.894 953.952C655.18 950.618 650.1 946.333 645.973 941.253C630.1 921.253 637.719 894.744 662.164 887.284C685.021 880.458 707.403 881.728 728.832 893.157C734.07 895.855 738.991 899.189 744.388 901.728C760.737 909.348 781.214 899.665 785.817 882.204C786.293 880.458 786.452 878.712 786.611 876.966C786.77 874.744 786.611 872.363 784.23 871.569C781.849 870.775 780.579 873.156 779.468 874.744C775.023 882.045 767.722 886.966 759.309 888.236C755.817 888.712 754.229 888.236 754.705 883.633C756.928 865.22 761.055 847.6 770.261 831.251C777.88 817.758 787.563 805.853 801.056 797.44C808.992 792.52 817.405 789.345 827.088 790.139C836.294 790.932 842.803 795.853 848.2 802.996C849.787 805.218 848.517 806.488 847.565 808.234C832.644 834.902 828.199 863.632 832.961 893.633C834.072 900.617 834.866 906.173 830.104 912.364C826.135 917.919 824.707 925.062 826.612 931.729C829.945 945.38 828.993 959.031 828.04 972.682C825.977 1001.1 819.786 1029.19 809.468 1055.7C807.246 1061.89 804.23 1067.76 800.579 1073.16C797.405 1077.29 795.817 1082.37 796.135 1087.45C796.452 1092.21 794.071 1094.59 790.579 1096.81C776.769 1105.07 761.69 1109.03 745.816 1110.46C707.562 1114.11 669.148 1105.7 635.973 1086.18C624.385 1079.83 614.385 1071.1 606.448 1060.62C600.416 1052.37 596.131 1043.48 596.289 1033C596.289 1025.38 599.147 1018.71 604.226 1012.21C605.655 1014.43 606.607 1016.02 607.718 1017.76C625.179 1042.53 648.83 1054.27 679.307 1051.41C684.069 1050.94 688.672 1049.35 692.641 1046.81C693.752 1046.18 695.339 1045.54 695.022 1044.11ZM841.215 929.983C840.58 925.856 841.215 921.729 842.961 917.919C845.819 911.57 849.469 910.3 855.501 913.475C859.47 915.538 862.803 918.554 865.184 922.364C874.708 937.602 882.01 953.634 885.184 971.571C886.772 980.778 889.153 989.667 888.677 999.191C888.2 1024.59 884.708 1049.35 875.025 1073C870.263 1084.75 863.438 1094.75 851.057 1099.51C842.485 1102.84 833.596 1103.95 824.548 1101.1C813.278 1097.45 809.627 1088.56 815.024 1078.08C832.802 1042.84 840.898 1005.22 841.85 965.857C842.168 953.793 842.961 941.888 841.215 929.983ZM843.755 1396.18C841.533 1396.18 839.787 1394.6 840.422 1392.69C840.898 1391.26 841.533 1389.83 842.168 1388.56C853.755 1363.96 865.501 1339.52 877.089 1314.91C877.565 1313.96 877.883 1313.01 878.359 1312.21C880.105 1308.72 882.168 1306.18 886.772 1307.45C889.629 1308.09 892.486 1309.04 895.343 1310.15C896.613 1310.94 897.407 1312.21 897.407 1313.64C897.089 1316.18 896.454 1318.56 895.661 1320.94C890.581 1340.94 881.692 1359.83 869.47 1376.5C865.184 1382.69 859.787 1388.09 853.596 1392.69C850.739 1394.6 847.406 1396.02 843.755 1396.18ZM977.091 1331.42C977.409 1329.52 977.885 1327.61 978.52 1324.44C998.838 1327.29 1017.89 1329.99 1036.77 1332.85C1039.79 1333.32 1042.65 1334.28 1045.66 1334.91C1048.84 1335.23 1051.06 1338.09 1050.74 1341.26V1341.42C1049.95 1354.12 1051.06 1366.82 1048.52 1379.36C1046.78 1388.25 1046.14 1397.45 1045.03 1406.5C1044.87 1407.45 1045.35 1408.56 1045.98 1409.2C1047.41 1409.83 1049.16 1409.36 1049.79 1407.93C1050.9 1406.34 1051.85 1404.44 1052.65 1402.53C1057.57 1386.02 1064.39 1370.15 1065.98 1352.69C1066.46 1349.2 1067.09 1345.71 1068.2 1342.37C1069 1339.36 1071.22 1338.56 1074.08 1338.88C1081.54 1339.83 1083.44 1342.21 1083.76 1349.67C1084.39 1368.09 1079.95 1385.87 1077.73 1403.96C1077.25 1407.61 1075.03 1410.63 1071.7 1412.22C1066.93 1415.07 1061.85 1417.61 1057.09 1420.15C1054.39 1421.42 1051.7 1423.01 1049.16 1424.6C1043.92 1428.41 1042.97 1434.12 1047.09 1439.04C1049.47 1441.74 1052.01 1444.12 1054.71 1446.34C1056.3 1447.61 1057.89 1448.88 1059.47 1449.99C1068.05 1455.87 1070.27 1463.49 1067.89 1473.65C1061.06 1501.74 1053.44 1529.52 1042.97 1556.5C1033.76 1580.63 1022.81 1604.12 1010.11 1626.66C1000.74 1642.85 989.948 1658.25 978.043 1672.7C965.662 1687.62 950.9 1699.84 932.646 1707.62C926.773 1710.16 921.852 1710 917.407 1705.55C912.963 1701.11 906.137 1698.73 903.28 1692.7C905.344 1688.57 908.994 1687.78 912.01 1686.19C935.344 1673.81 953.599 1655.71 969.154 1634.76C992.33 1603.33 1011.06 1568.73 1024.39 1532.06C1032.17 1511.74 1037.41 1490.47 1040.27 1468.88C1040.43 1466.98 1040.27 1464.91 1039.79 1463.01C1039.79 1462.69 1039.16 1461.9 1038.84 1462.06C1037.89 1462.06 1036.46 1462.22 1036.3 1462.69C1035.03 1465.39 1033.92 1468.25 1033.12 1471.11C1019.63 1513.8 1002.81 1554.92 979.155 1593.01C962.011 1620.79 939.471 1644.6 912.804 1663.33C906.613 1667.78 900.264 1671.9 894.073 1676.35C891.057 1678.41 888.359 1677.78 886.137 1675.08C878.359 1665.71 871.533 1655.55 865.978 1644.76C854.39 1623.33 847.406 1599.68 845.66 1575.39C843.437 1542.38 849.946 1512.06 868.041 1484.44C878.359 1468.72 892.169 1455.39 908.359 1445.87C921.376 1438.25 931.376 1427.45 940.106 1415.71C958.678 1390.79 971.377 1361.9 977.091 1331.42ZM914.391 1318.72C916.455 1308.4 921.058 1300.94 929.471 1295.55C936.455 1291.1 943.916 1290.31 950.9 1294.75C958.361 1299.51 962.011 1306.34 960.107 1315.55C953.122 1350.47 938.836 1381.9 914.868 1408.56C909.947 1413.8 904.391 1418.25 898.201 1421.74C884.867 1429.83 870.422 1428.72 856.454 1418.72C890.264 1393.64 906.296 1358.4 914.391 1318.72ZM987.726 1124.11C984.869 1136.5 982.488 1148.88 979.789 1161.26C978.361 1167.61 976.774 1168.88 970.107 1167.77C950.106 1164.43 930.265 1160.78 910.264 1157.13C854.231 1146.81 798.04 1136.5 742.007 1126.18C750.102 1125.23 758.198 1123.8 766.134 1122.05C777.88 1119.35 788.833 1114.27 798.516 1106.97C800.103 1105.86 801.373 1104.59 803.437 1106.65C812.961 1116.18 824.866 1118.56 837.723 1117.76C851.692 1116.81 863.438 1110.46 873.914 1101.57C876.93 1098.56 879.629 1095.38 881.851 1091.73C882.962 1089.67 885.502 1088.88 887.724 1089.67C893.597 1091.1 899.629 1092.21 905.502 1093.48C937.249 1099.83 967.408 1098.4 995.822 1089.67C993.123 1101.26 990.425 1112.69 987.726 1124.11ZM992.806 869.823C992.171 871.728 991.536 873.791 991.06 875.855C991.218 877.601 990.901 879.188 990.107 880.776C990.107 882.998 989.948 885.22 989.314 887.442C989.314 887.919 989.155 888.236 988.996 888.712V888.554C988.837 893.633 989.79 898.713 987.885 903.633C986.615 909.03 985.187 914.586 983.917 919.983C984.234 922.681 982.488 924.586 981.059 926.65C963.123 951.571 939.471 966.968 908.042 968.396C906.931 968.396 905.82 968.555 904.55 968.714C901.851 969.508 900.899 968.714 900.264 966.016C897.248 952.682 891.534 940.301 885.661 928.237C879.153 914.586 870.581 902.84 854.549 899.189C852.803 898.713 852.485 897.443 852.327 895.855C850.739 868.712 852.961 842.045 865.501 817.441C870.581 807.599 868.517 799.187 863.279 791.25C850.422 771.726 825.659 765.059 802.167 773.948C788.833 779.186 777.087 787.599 767.722 798.552C755.023 813.155 745.816 830.616 741.213 849.346C740.896 850.458 740.419 851.41 740.102 852.521V852.362C739.149 861.093 737.562 869.823 738.515 878.553C736.292 879.188 735.181 877.76 733.753 876.966C711.53 864.902 688.037 861.886 663.434 866.648C638.83 871.41 624.385 887.284 618.83 911.252C617.56 916.332 615.655 920.3 611.528 923.157C605.972 929.983 601.845 937.761 597.559 945.539C596.924 947.444 596.289 949.507 595.813 951.412C592.48 966.174 592.956 981.571 597.401 996.016C598.035 998.08 597.083 998.873 595.654 1000.14C575.813 1017.45 571.844 1041.57 585.178 1064.27C592.321 1076.65 602.321 1087.13 614.385 1095.07C620.099 1098.88 625.973 1102.37 631.846 1105.54C617.083 1102.69 602.321 1099.83 587.559 1097.13C529.939 1086.02 472.16 1075.07 414.54 1064.27C369.301 1055.7 324.061 1047.13 278.664 1038.87C251.203 1033.95 223.742 1029.67 196.122 1025.38C190.09 1024.43 184.217 1023.48 178.503 1020.62C229.615 787.917 286.759 556.801 339.3 324.573C342.475 323.145 344.697 325.843 346.919 327.272L579.781 476.799C585.813 480.608 591.686 484.577 597.401 488.704C603.115 492.831 608.671 492.355 614.068 488.069C626.131 478.704 637.56 468.703 648.354 458.068C673.116 433.941 699.784 412.194 728.197 392.67C744.864 381.241 763.277 372.193 782.643 366.162C797.722 361.558 813.596 360.288 829.151 362.511C851.85 365.368 874.073 369.812 896.137 376.003C904.55 378.384 912.963 380.448 921.376 382.511C944.233 395.051 1089.16 478.862 1096.62 601.087C1097.09 609.183 1097.73 615.532 1098.52 620.453C1093.28 643.945 1087.89 667.279 1082.65 690.772C1082.33 692.2 1081.86 693.629 1081.38 695.216C1079.32 702.994 1078.68 703.788 1071.22 702.994C1058.2 701.724 1045.03 699.978 1032.01 698.391C1000.27 694.422 968.678 690.454 936.773 689.343C933.281 689.184 929.63 689.343 926.138 689.184C908.518 688.867 895.026 696.803 884.232 710.137C874.232 722.677 868.994 737.439 866.454 753.154C862.803 775.853 866.295 799.028 876.613 819.663C878.2 822.838 880.105 825.854 882.01 828.87C890.899 843.156 903.121 850.457 920.423 851.886C945.821 853.791 971.059 856.331 996.457 858.87C995.345 862.204 993.917 866.013 992.806 869.823ZM1112.97 736.328C1114.71 744.9 1114.55 753.471 1114.71 762.043C1114.87 779.662 1112.65 797.282 1107.89 814.266C1097.73 806.171 1085.35 801.409 1070.27 800.774C1054.87 800.139 1041.38 805.695 1029.16 814.584C1018.68 822.219 1009.96 832.017 1003.6 843.315C989.472 841.886 975.345 840.299 961.059 838.87C944.551 837.124 927.884 835.378 911.217 833.791C903.28 833.156 898.201 829.187 894.391 822.52C876.295 790.456 875.819 758.075 892.804 725.375C896.613 718.232 902.328 712.042 909.153 707.597C915.344 703.153 923.28 701.724 930.582 703.788C953.281 709.185 976.456 711.566 999.631 714.105C1023.76 716.804 1047.89 719.502 1072.17 721.883C1081.22 722.836 1090.43 723.153 1099.47 723.788C1110.59 724.899 1110.59 725.058 1112.97 736.328ZM1107.41 384.416C1110.11 369.971 1111.54 355.368 1112.81 340.605C1118.05 276.953 1120.27 213.143 1115.51 149.173C1115.19 145.205 1115.51 141.077 1115.51 137.268C1118.21 135.681 1120.27 136.95 1122.65 137.903C1149.16 149.332 1175.67 160.919 1202.18 172.031C1206.46 173.459 1209.79 177.11 1210.75 181.555C1212.18 186.951 1213.29 192.507 1215.03 197.745C1223.29 222.032 1236.62 242.349 1260.59 254.096C1261.38 254.413 1262.02 255.524 1262.65 256.318C1261.7 261.874 1258.21 266.318 1255.51 271.08C1244.08 290.763 1231.38 309.811 1218.52 328.701C1202.65 352.193 1186.46 375.527 1172.02 399.972C1171.06 401.718 1169.63 403.147 1168.21 405.21C1160.59 400.448 1152.49 398.543 1143.92 397.273C1133.44 395.686 1122.97 393.464 1112.49 391.559C1107.57 390.607 1106.46 389.337 1107.41 384.416ZM1474.09 406.48C1465.36 413.464 1456.62 420.29 1447.74 426.957C1339.48 508.228 1231.38 589.341 1123.13 670.454C1118.68 673.628 1114.87 677.755 1109.16 679.502C1108.05 666.168 1114.55 657.755 1124.71 650.295C1182.17 607.913 1239.32 565.055 1296.78 522.514C1322.5 503.466 1348.53 485.053 1373.13 464.894C1376.31 462.354 1379.32 459.497 1382.66 457.116C1392.02 450.29 1396.46 442.195 1394.4 429.972C1392.66 418.861 1393.77 407.591 1397.73 396.956C1401.54 386.638 1406.47 377.59 1416.94 372.511C1418.69 371.559 1420.43 370.447 1422.02 369.178C1424.88 366.955 1425.99 362.987 1424.56 359.654C1423.45 356.796 1422.18 354.098 1420.43 351.558C1400.59 322.351 1376.78 296.954 1346.78 277.747C1343.77 275.842 1340.59 274.255 1337.73 272.033C1333.77 269.175 1326.78 269.175 1325.83 263.937C1325.19 260.128 1328.69 255.683 1330.43 251.397L1332.02 247.905L1333.61 244.413C1334.24 243.143 1334.72 241.873 1335.35 240.603C1335.99 239.334 1336.62 237.905 1337.42 236.318C1339.64 237.429 1341.86 238.54 1343.92 239.81C1374.72 262.35 1403.61 286.795 1428.37 316.002C1448.85 340.129 1464.4 367.273 1477.1 396.321C1479.48 402.035 1479.48 402.194 1474.09 406.48Z" fill="#2C2729"/>
</g>
</svg>
