<svg width="150" height="150" viewBox="0 0 1229 1432" fill="none" xmlns="http://www.w3.org/2000/svg">
<mask id="mask0_1_2857" style="mask-type:luminance" maskUnits="userSpaceOnUse" x="269" y="241" width="960" height="1191">
<path d="M1229 241.887H269.73V1431.78H1229V241.887Z" fill="white"/>
</mask>
<g mask="url(#mask0_1_2857)">
<path d="M306.768 566.351C305.567 570.177 305.232 574.223 305.786 578.195C307.073 574.334 305.405 570.212 306.768 566.351Z" fill="#F4DD90"/>
<path d="M306.77 566.351C305.45 570.212 307.076 574.334 305.789 578.195C307.817 574.4 307.217 570.364 306.77 566.351ZM883.449 1160.13C882.358 1157.28 883.961 1155.87 886.164 1154.68C884.365 1155.06 883.852 1154.23 884.223 1152.57C881.976 1154.08 881.224 1156.52 880.362 1158.89C881.856 1158 882.358 1159.75 883.449 1160.13Z" fill="#F4DD90"/>
<path d="M880.318 1158.93L883.405 1160.13C882.358 1159.75 881.856 1158 880.318 1158.93ZM886.121 1154.72C885.466 1154.02 884.823 1153.31 884.179 1152.62C883.808 1154.27 884.321 1155.1 886.121 1154.72Z" fill="#F4DD90"/>
<path d="M1190.66 476.166C1184.51 440.043 1172.4 406.113 1152.92 375.379C1111.39 309.831 1051.56 272.684 975.346 262.901C939.802 258.342 904.53 261.81 870.001 271.135C818.424 285.106 772.999 310.922 732.318 345.648C713.919 361.353 697.668 379.207 681.341 396.996C679.716 398.763 677.753 400.867 675.386 398.937C673.336 397.257 676.008 395.665 676.586 394.04C677.308 392.291 678.226 390.63 679.323 389.089C695.977 363.742 716.787 342.191 739.581 322.559C743.551 319.124 743.29 317.935 739.014 315.361C724.661 306.712 710.101 298.565 694.298 292.915C694.298 294.737 693.207 295.98 692.117 297.278C678.977 311.916 667.566 328.018 658.11 345.266C643.463 372.456 638.119 401.98 634.89 432.049C634.247 438.015 633.691 445.551 640.224 448.529C646.757 451.506 651.686 445.802 655.853 441.341C667.021 429.399 677.753 417.031 688.997 405.165C705.182 388.085 723.603 373.536 742.101 359.216C749.932 353.152 758.46 347.928 767.753 341.558L767.905 341.449V341.613C766.935 346.444 766.259 349.629 765.659 352.825C762.987 366.905 768.353 377.517 781.811 382.174C795.589 387.019 809.603 391.161 823.801 394.585C855.811 402.1 881.889 419.845 905.948 441.407C924.151 457.766 936.126 479.645 954.864 495.71C969.533 508.285 983.22 519.29 1004.41 515.342C1021.94 512.07 1035.79 504.097 1043.24 488.01C1051.29 470.636 1050.87 451.692 1046.51 433.478C1044.55 425.156 1040.22 416.682 1031.85 411.938C1032.07 412.788 1032.28 413.628 1032.48 414.479C1035.76 428.025 1037.77 441.658 1035.21 455.694C1030.69 480.528 1008.79 491.162 986.711 479.099C976.895 473.723 969.129 466.012 961.288 457.919C936.203 432.114 909.962 407.509 877.81 390.43C853.218 377.435 827.613 366.457 801.246 357.602C796.589 356.02 791.594 355.42 786.763 354.33C778.256 352.367 774.766 346.444 777.176 337.883C782.127 320.062 795.411 309.526 809.895 300.277C840.182 280.973 871.909 282.162 904.258 294.137C910.725 296.536 917.149 299.078 923.584 301.553L924.042 301.728C924.587 301.292 925.133 300.441 925.689 300.485C937.37 301.575 949.334 302.131 960.35 306.101C974.583 311.238 987.3 319.658 999.7 328.394C1017.04 340.62 1031.96 355.486 1045.35 371.889C1052.68 380.876 1060.13 389.994 1064.43 400.955C1069.86 415.177 1074.43 429.717 1078.1 444.493C1086.04 475.249 1089.71 506.66 1091.31 538.169C1092.58 563.144 1091.12 588.164 1088.84 613.096C1086.37 639.926 1082.37 666.298 1072.48 691.622C1060.42 722.673 1047.25 753.167 1031.82 782.648C1019.92 805.369 1007.24 827.629 993.778 849.428C971.801 885.157 945.659 917.571 919.014 949.669C908.86 961.906 897.921 973.412 887.146 985.093C873.534 999.904 860.327 1014.98 842.767 1025.51C829.058 1033.76 815.327 1041.22 798.891 1041.47C801.072 1042.71 803.471 1042.56 805.816 1042.56C833.246 1042.17 857.513 1034.15 879.086 1015.91C915.851 984.853 950.654 951.785 982.348 915.575C1017.91 874.96 1054.33 835.118 1089.09 793.794C1115.11 762.885 1139 730.766 1156.71 694.131C1174.31 657.965 1186.65 620.163 1192.1 580.289C1196.93 545.711 1196.44 510.597 1190.66 476.166ZM415.943 580.169C399.409 568.626 384.996 554.309 373.343 537.852C358.27 516.868 349.436 493.136 340.962 469.142C334.047 487.486 330.666 506.649 328.212 526.019C327.918 528.375 327.852 530.556 329.663 532.694C338.933 543.731 347.713 555.194 357.267 565.98C376.898 588.186 398.799 608.046 420.993 627.645C436.666 641.486 448.892 658.041 447.529 681.163C446.961 690.804 442.959 698.952 438.749 707.186C441.934 707.382 444.398 706.913 446.503 703.685C455.872 689.288 459.068 673.147 460.104 656.406C460.442 650.952 460.704 645.499 459.133 640.046C451.869 614.786 437.429 595.035 415.943 580.169Z" fill="#E6639A"/>
<path d="M617.679 1244.36C616.174 1243.27 614.265 1242.65 613.425 1240.75C602.846 1238.44 592.18 1236.31 582.189 1231.93C566.517 1225.05 551.248 1217.55 544.017 1200.3C542.621 1197.03 540.21 1196.26 536.633 1196.58C527.33 1197.41 518.528 1200.16 510.01 1203.56C464.029 1221.93 428.616 1253.18 401.971 1294.96C418.669 1320.76 443.623 1335.8 470.529 1348.02C499.863 1361.3 531.992 1367.25 564.139 1365.34C585.614 1364.24 606.423 1359.26 627.037 1353.34C634.06 1351.33 641.03 1349.11 648.108 1347.3C651.173 1346.52 654.564 1345.28 657.444 1348.12C657.673 1353.92 653.877 1357.33 649.907 1360.35C625.531 1378.98 598.004 1390.99 568.927 1399.9C541.92 1408.38 513.778 1412.69 485.471 1412.69C484.041 1412.53 482.61 1412.98 481.534 1413.93C502.889 1417.29 524.2 1416.29 545.642 1414.38C579.201 1411.4 611.353 1403.09 642.633 1390.81C653.812 1386.45 665.133 1382.47 666.507 1367.4C666.943 1362.63 669.659 1357.98 671.742 1353.48C673.509 1349.64 673.018 1343.57 678.886 1343.17C684.753 1342.78 684.71 1349.14 687.436 1352.39C688.952 1343.42 685.79 1335.17 683.008 1327.08C670.913 1291.74 647.148 1265.72 617.679 1244.36ZM1025.45 1282.52C1011.27 1268.34 994.333 1257.94 976.13 1249.8C967.328 1245.86 958.593 1241.7 949.3 1238.99C938.237 1239.69 927.133 1239.22 916.166 1237.61C894.539 1234.2 875.311 1226.8 862.049 1207.72C860.38 1205.32 862.169 1199.44 856.694 1200.55C853.2 1201.23 849.894 1202.65 846.998 1204.72C845.111 1206.09 842.712 1206.74 840.759 1208.05C795.181 1238.87 766.454 1282.39 748.142 1333.74C767.283 1344.5 788.419 1348.16 809.698 1350.9C833.103 1353.91 856.683 1354.39 880.252 1353.79C917.748 1352.83 953.412 1344.81 985.891 1324.85C992.926 1320.49 1000.46 1317.07 1007.7 1313.06C1010.91 1311.28 1014.08 1310.39 1016.6 1313.58C1018.88 1316.47 1018 1319.68 1016.54 1322.96C1010.91 1335.65 1000.76 1344.23 990.068 1351.97C955.476 1377.32 915.197 1393.8 872.759 1399.96C828.042 1406.51 785.038 1401.15 743.223 1384.39C742.542 1384.19 741.845 1384.05 741.14 1383.97C743.005 1392.88 750.639 1395.92 757.303 1399.54C774.35 1408.8 793.229 1412.3 811.977 1415.65C849.299 1422.31 885.628 1417.69 921.216 1404.9C964.329 1389.42 1000.83 1364.62 1029.19 1328.05C1030.35 1326.55 1031.74 1325.25 1031.98 1323.18C1033.01 1314.46 1034.09 1305.73 1035.16 1296.94C1034.69 1290.24 1029.36 1286.44 1025.45 1282.52Z" fill="#FFCC5C"/>
<path d="M871.711 1191.78C871.645 1199.79 874.863 1205.71 880.905 1210.8C892.215 1220.36 905.783 1224.03 919.732 1226.07C932.492 1227.88 945.482 1228.35 958.21 1224.91C972.388 1217.28 987.548 1211.26 1000.93 1199.18C980.208 1205.51 960.576 1208.58 940.552 1204.76C913.711 1199.64 889.466 1190.58 878.756 1161.79C872.91 1170.92 871.798 1181.18 871.711 1191.78ZM551.17 1176.84C550.08 1184.76 549.164 1192.85 554.442 1200.09C563.538 1212.46 575.688 1219.85 590.248 1223.63C603.336 1223.56 616.424 1225.91 629.588 1223.51C650.103 1219.77 668.426 1211.61 686.159 1197.78C683.64 1197.98 682.669 1197.78 681.917 1198.15C663.496 1206.43 644.028 1206.55 624.385 1206.26C592.408 1205.81 567.574 1189.49 555.566 1160.38C554.071 1165.86 551.89 1171.25 551.17 1176.84Z" fill="#FFCC5C"/>
<path d="M1006.69 385.206C984.878 360.448 959.979 338.984 930.564 323.486C904.389 309.689 876.937 300.103 847.173 298.478C824.848 297.267 810.091 310.606 796.262 325.744C792.39 328.743 790.209 333.04 788.322 337.326C786.544 341.394 785.257 346.052 792.957 344.503C795.072 344.25 797.215 344.357 799.294 344.819C822.776 348.495 844.458 357.591 865.823 367.505L894.42 382.959C912.23 394.596 928.077 408.578 943.15 423.618C955.333 435.757 965.716 449.619 978.607 461.049C985.751 467.386 993.287 472.948 1003.23 473.744C1014.26 475.925 1023.48 469.382 1025.67 455.836C1029.97 429.54 1024.14 405.023 1006.69 385.206ZM844.185 349.411C839.452 349.16 833.802 343.107 834.216 338.177C834.696 332.418 838.579 330.215 843.88 330.106C849.18 329.997 853.041 334.403 852.997 340.391C852.91 345.277 848.668 349.64 844.185 349.411ZM855.811 316.331C854.481 322.265 851.154 326.245 844.796 326.071C837.892 325.864 836.485 320.225 835.056 314.87V314.75C836.649 309.384 840.728 306.308 845.756 306.232C851.634 306.156 854.263 311.009 855.877 316.179L855.811 316.331ZM863.151 335.963L862.061 335.363C858.789 333.444 856.313 331.001 857.48 326.54C858.276 323.519 859.956 320.803 863.457 320.214C868.016 319.451 871.506 320.945 873.807 324.762C874.014 325.111 874.232 325.449 874.418 325.853C873.632 334.654 872.444 335.701 863.119 336.018L863.151 335.963ZM963.207 383.559C957.754 389.121 951.973 394.367 947.142 400.42C942.659 406.026 938.918 405.721 934.316 401.184C932.495 399.384 930.466 397.792 928.535 396.112L928.459 396.047C915.033 380.865 898.554 370.406 879.576 363.829C871.309 360.961 870.142 357.056 876.305 350.741C883.852 342.965 891.693 335.472 899.546 328.023C903.222 324.533 907.432 323.541 912.568 325.286C934.782 332.616 955.14 344.68 972.238 360.644C976.906 365.007 977.145 368.606 972.51 373.045C969.315 376.11 966.632 379.72 963.709 383.09L963.207 383.559ZM980.036 447.209C974.07 447.405 967.973 441.548 968.039 435.648C968.039 430.195 973.372 424.938 979.054 424.742C985.391 424.567 990.898 429.366 991.051 435.212C991.16 440.818 985.391 447.089 980.003 447.263L980.036 447.209ZM992.033 420.466C992.938 412.221 996.864 407.978 1002.99 408.611C1008.65 409.2 1013.71 414.773 1013.51 420.183C1013.26 427.261 1007.36 432.092 999.449 431.711L999.264 431.558C995.686 428.722 992.415 425.669 992.055 420.652C992.033 420.641 992.011 420.586 992.011 420.521L992.033 420.466ZM1006.45 459.228C1006.05 459.288 1005.65 459.328 1005.25 459.348C998.326 459.817 995.174 454.985 993.68 449.063C992.229 443.326 995.152 439.127 1000.1 436.444L1000.77 436.084C1005.44 436.39 1010.25 436.248 1013.46 440.687C1019.08 448.561 1017.23 453.436 1006.43 459.282L1006.45 459.228ZM424.439 642.576C416.805 635.585 408.505 629.292 400.511 622.683C392.876 615.277 385.187 608.003 377.76 600.434C360.059 582.383 342.925 563.788 328.932 542.553C323.991 535.06 322.584 534.635 315.844 541.037C309.551 548.279 306.89 556.851 306.77 566.351C307.217 570.364 307.86 574.4 305.788 578.195C305.69 580.017 304.927 581.893 306.05 583.441C310.238 576.897 314.328 570.266 318.658 563.81C321.755 559.207 324.635 560.418 327.383 564.42C330.043 568.335 332.911 572.103 335.977 575.709C349.294 590.978 362.578 606.345 378.207 619.334C380.127 620.948 384.315 622.661 381.479 626.696C373.332 638.421 368.784 652.054 361.716 664.356C355.969 674.368 353.319 675.263 343.775 668.882C342.937 668.385 342.074 667.93 341.191 667.519C340.471 671.075 341.605 673.518 343.884 676.004C358.886 692.668 378.1 704.98 399.507 711.647C413.882 716.162 426.893 710.709 434.877 698.079C443.722 684.14 436.284 653.362 424.439 642.576ZM378.632 664.389C378.807 658.107 382.373 654.322 388.099 654.355C394.329 654.394 399.403 659.372 399.562 665.6C399.638 671.696 395.134 675.775 388.383 675.732C382.068 675.633 378.48 671.467 378.665 664.4L378.632 664.389ZM395.297 702.3C390.073 702.736 384.849 696.846 384.805 691.099C384.751 685.068 388.743 682.657 393.64 681.916C398.537 681.174 403.957 687.183 404.088 694.229C403.804 698.744 400.685 701.853 395.33 702.311L395.297 702.3ZM414.471 684.446C407.589 684.293 403.434 680.28 403.772 674.128C404.11 667.977 408.418 663.495 413.915 663.658C419.662 663.822 424.919 669.504 424.821 675.448C424.745 681.076 420.699 684.599 414.471 684.446Z" fill="#F7B520"/>
<path d="M1091.34 538.125C1089.73 506.562 1086.06 475.206 1078.12 444.449C1074.46 429.674 1069.91 415.134 1064.5 400.911C1060.2 389.95 1052.75 380.832 1045.42 371.845C1032.03 355.486 1017.06 340.576 999.765 328.35C987.365 319.625 974.68 311.194 960.415 306.058C949.399 302.088 937.435 301.564 925.754 300.441C925.242 300.441 924.664 301.248 924.107 301.684C958.79 318.545 987.245 343.194 1010.9 373.558C1019.9 385.147 1026.98 398.105 1031.87 411.937C1040.24 416.682 1044.57 425.156 1046.53 433.478C1050.89 451.724 1051.29 470.669 1043.26 488.01C1035.81 504.097 1021.96 512.091 1004.43 515.341C983.297 519.257 969.533 508.252 954.885 495.71C936.148 479.645 924.173 457.734 905.97 441.407C881.91 419.845 855.8 402.143 823.823 394.585C809.625 391.161 795.61 387.019 781.833 382.174C768.374 377.517 763.008 366.905 765.68 352.824C766.28 349.629 766.956 346.444 767.927 341.613L767.807 341.558C758.471 347.927 749.986 353.152 742.155 359.216C723.614 373.568 705.237 388.085 689.052 405.164C677.807 417.031 667.075 429.399 655.907 441.341C651.741 445.802 646.974 451.571 640.278 448.528C633.581 445.486 634.301 438.015 634.945 432.049C638.217 401.925 643.517 372.456 658.164 345.266C667.62 328.018 679.031 311.916 692.171 297.278C693.261 296.002 694.352 294.758 694.352 292.915C647.222 273.749 598.644 268.481 548.62 277.112C514.144 283.092 481.331 296.322 452.349 315.928C414.678 341.111 385.602 374.299 363.81 414.086C354.235 431.536 346.044 449.728 340.994 469.163C349.468 493.158 358.303 516.923 373.375 537.874C385.029 554.331 399.441 568.648 415.976 580.191C437.462 595.057 451.902 614.808 459.165 640.067C460.736 645.521 460.474 650.974 460.136 656.427C459.1 673.158 455.904 689.31 446.536 703.707C444.431 706.979 441.966 707.404 438.781 707.208C437.091 708.854 435.509 710.578 433.699 712.137C426.272 718.757 417.339 722.651 407.752 720.862C394.762 718.453 382.309 713.732 370.987 706.924C364.094 702.801 357.267 698.57 348.509 693.236C352.969 703.27 356.492 711.407 360.189 719.466C376.549 755.196 399.453 786.236 426.566 814.352C464.292 853.528 504.689 889.4 549.645 919.992C577.737 939.021 606.771 956.621 636.635 972.725C671.667 991.702 706.971 1010.15 743.246 1026.56C760.86 1034.53 779.433 1039.97 798.869 1041.49C815.305 1041.24 829.036 1033.78 842.745 1025.53C860.305 1014.98 873.512 999.904 887.178 985.082C897.954 973.401 908.893 961.895 919.047 949.658C945.691 917.56 971.834 885.146 993.81 849.417C1007.25 827.56 1019.93 805.3 1031.85 782.637C1047.28 753.189 1060.45 722.651 1072.51 691.611C1082.33 666.254 1086.37 639.882 1088.87 613.085C1091.14 588.164 1092.6 563.079 1091.34 538.125Z" fill="#F08CB6"/>
<path d="M1007.62 1313.06C1000.41 1317.07 992.871 1320.54 985.803 1324.85C953.324 1344.81 917.66 1352.83 880.164 1353.79C856.595 1354.39 833.015 1353.91 809.61 1350.9C788.331 1348.16 767.195 1344.5 748.054 1333.74C745.174 1336.35 745.872 1340.38 744.204 1343.48C742.121 1347.44 743.517 1349.91 747.018 1352.2C765.995 1364.58 786.39 1373.67 808.726 1377.15C861.339 1385.33 910.822 1374.69 957.817 1350.37C975.835 1341.05 992.369 1329.34 1008.98 1317.76C1009.99 1316.67 1010.79 1314.05 1012.51 1315.79C1014.24 1317.52 1011.91 1318.47 1010.58 1319.32C1009.75 1320.46 1008.85 1321.56 1007.89 1322.59C965.561 1363.78 913.777 1383.67 856.387 1389.6C815.074 1393.83 775.189 1387.94 738.892 1365.47C737.398 1373.41 737.714 1376.03 741.074 1384.01C741.779 1384.08 742.476 1384.22 743.157 1384.42C784.972 1401.18 828.02 1406.58 872.693 1400C915.131 1393.83 955.41 1377.35 990.002 1352.01C1000.69 1344.26 1010.84 1335.65 1016.47 1323C1017.93 1319.72 1018.82 1316.45 1016.54 1313.62C1014 1310.39 1010.82 1311.26 1007.62 1313.06ZM691.177 1338.13C699.476 1332.34 706.446 1325.05 713.306 1317.77C730.069 1299.7 746.374 1281.29 742.273 1253.5C741.477 1248.05 741.739 1242.46 740.616 1237.14C738.587 1227.6 737.42 1217.73 732.905 1208.23C714.865 1229.81 691.242 1237.29 665.743 1240.95C648.292 1243.46 630.842 1242.13 613.392 1240.75C614.232 1242.65 616.14 1243.27 617.645 1244.36C647.093 1265.72 670.88 1291.74 682.975 1327.03C685.756 1335.12 688.919 1343.39 687.403 1352.35C688.383 1354.22 689.261 1356.15 690.031 1358.13C691.515 1362.59 693.783 1362.91 697.197 1360.05C706.816 1351.95 715.836 1343.32 723.002 1332.86C728.989 1324.13 734.093 1314.97 735.642 1302.7C721.42 1316.71 709.848 1332.17 691.177 1338.13ZM1048.38 1276.57C1047.22 1272.62 1048.82 1271.29 1049.72 1269.72C1057.22 1256.55 1065.09 1243.6 1071.21 1229.66C1073.55 1224.35 1074.97 1219.24 1073.39 1213.18C1069.66 1199.4 1064.92 1186.01 1059.75 1172.08C1056.65 1179.29 1055.77 1186.93 1050.41 1192.21C1031.31 1211.23 1009.19 1224.93 983.099 1232.27C971.941 1235.38 960.49 1236.39 949.289 1238.95C958.581 1241.66 967.317 1245.81 976.118 1249.76C994.321 1257.94 1011.22 1268.37 1025.44 1282.48C1029.35 1286.39 1034.68 1290.2 1035.02 1296.9C1038.55 1286.57 1040.74 1285.07 1046.94 1288.47C1050.02 1290.16 1052.04 1295.51 1055.6 1293.77C1058.53 1292.35 1059.97 1287.8 1062.07 1284.66C1063.92 1281.92 1065.87 1279.21 1067.69 1276.49C1075.95 1264.07 1079.76 1250.69 1076.23 1234.76C1067.35 1249.24 1059.39 1263.27 1048.38 1276.57ZM648.074 1347.25C640.996 1349.06 634.027 1351.29 627.003 1353.29C606.39 1359.17 585.559 1364.11 564.106 1365.29C531.959 1367.21 499.83 1361.26 470.496 1347.97C443.589 1335.76 418.635 1320.71 401.938 1294.91C397.782 1300.37 395.394 1307.06 391.598 1312.6C385.36 1321.59 388.435 1327.73 394.739 1334.85C418.286 1361.41 448.443 1375.39 482.34 1381.31C533.971 1390.33 583.083 1380.45 630.46 1359.09C638.848 1355.3 646.482 1349.6 655.862 1348.18H656.069C656.074 1348.23 656.074 1348.29 656.069 1348.34C655.643 1351.09 653.124 1351.72 651.27 1352.96C599.312 1387.41 542.554 1400.89 480.868 1392.39C455.486 1388.99 431.254 1379.69 410.107 1365.25C399.626 1358.13 390.606 1349.24 380.932 1338.75C380.354 1349.11 373.635 1357.64 380.605 1366.66C383.637 1370.57 386.374 1374.82 389.897 1378.24C415.494 1402.97 447.581 1410.96 481.511 1413.89C482.587 1412.94 484.019 1412.48 485.448 1412.65C513.743 1412.66 541.874 1408.35 568.872 1399.89C597.948 1390.98 625.476 1378.97 649.863 1360.34C653.822 1357.32 657.617 1353.91 657.388 1348.11C654.531 1345.27 651.139 1346.51 648.074 1347.25Z" fill="#F7B520"/>
<path d="M624.431 1206.26C644.062 1206.55 663.541 1206.43 681.962 1198.15C682.715 1197.81 683.685 1197.98 686.205 1197.78C668.471 1211.61 650.148 1219.77 629.633 1223.51C616.425 1225.91 603.458 1223.56 590.294 1223.63C592.562 1225.48 595.332 1226.13 598.07 1226.8C615.271 1231.23 633.072 1232.86 650.792 1231.64C671.852 1230 692.236 1225.89 710.832 1214.82C727.344 1205 730.278 1197.71 724.268 1179.5C722.985 1175.43 721.297 1171.49 719.23 1167.75C712.544 1156.04 703.808 1146.57 690.404 1141.22C690.862 1148.58 691.254 1155.03 691.68 1161.85C693.937 1160.76 695.552 1159.78 697.286 1159.15C699.02 1158.52 701.376 1156.65 703.001 1159.15C704.626 1161.65 702.695 1163.86 700.819 1165.22C697.612 1167.63 694.229 1169.79 690.698 1171.69C662.265 1187.1 631.433 1190.31 599.989 1188.57C586.814 1187.85 573.814 1184.21 564.325 1173.58C562.318 1171.4 559.428 1168.72 562.035 1165.54C564.903 1162.03 566.779 1166.63 569.211 1167.19C569.582 1167.26 570.029 1167 570.706 1166.83C570.284 1158.95 569.141 1151.12 567.292 1143.45C560.748 1147.71 558.163 1154.07 555.535 1160.37C567.619 1189.49 592.453 1205.81 624.431 1206.26ZM940.554 1204.7C960.622 1208.52 980.199 1205.46 1000.93 1199.12C987.55 1211.21 972.434 1217.27 958.212 1224.86C990.124 1221.23 1017.82 1208.28 1041.44 1186.37C1044.78 1183.28 1045.8 1179.14 1046.31 1174.82C1047.86 1160.74 1043.45 1147.93 1037.09 1135.89C1032.34 1126.88 1026.55 1118.37 1017.19 1111.05C1019.72 1125.92 1024.94 1138.43 1027.89 1151.74C1028.69 1151.35 1029.52 1151.03 1030.37 1150.76C1032.55 1150.31 1034.07 1145.96 1036.8 1148.96C1039.54 1151.96 1036.37 1154.42 1034.87 1156.43C1029.85 1163.18 1022.88 1167.78 1015.7 1171.78C993.025 1184.31 968.453 1186.93 943.106 1186.34C919.646 1185.84 899.775 1177.8 883.731 1160.48C882.935 1159.46 881.67 1156.95 886.6 1154.94C888.781 1155.93 890.352 1158.34 893.078 1158.45C893.711 1156.48 893.217 1154.33 891.791 1152.83C889.883 1150.76 892.217 1146.12 888.727 1146.29C886.676 1146.36 885.455 1149.15 884.56 1151.61C883.328 1152.7 879.205 1156.79 879.107 1160.12C878.832 1160.63 878.725 1161.21 878.802 1161.79C889.468 1190.57 913.713 1199.59 940.554 1204.7Z" fill="#F7B520"/>
<path d="M1132.44 916.96C1124.06 915.139 1115.4 914.113 1107.25 919.97C1102.59 923.369 1096.81 924.877 1091.09 924.191C1086.86 923.646 1082.87 922.501 1084.54 916.556C1110.48 907.744 1127.93 888.778 1142.86 866.79C1147.66 862.602 1149.15 856.331 1152.49 851.227C1155.6 846.472 1154.28 843.232 1149.9 839.928C1135.34 829.009 1120.03 819.115 1104.1 810.317C1101.03 808.605 1099.4 808.888 1097.05 811.713C1086.87 823.906 1076.52 835.943 1066 847.824C1046.17 870.153 1025.93 892.086 1005.26 913.623C1003.83 915.117 1001 916.48 1002.21 919.512C1008.29 934.781 1016.39 948.218 1033.54 954.751C1029.44 943.212 1027.1 932.12 1024.88 920.941C1021.01 901.375 1029.77 892.748 1047.86 884.721C1049.24 884.099 1050.69 883.63 1051.64 885.179C1052.13 885.878 1052.31 886.749 1052.13 887.585C1051.96 888.421 1051.45 889.149 1050.72 889.596C1047.9 891.777 1044.89 893.675 1042.2 895.987C1036.63 900.775 1031.36 906.708 1032.68 914.255C1038.06 944.859 1044.95 957.685 1078.62 959.375C1080.8 959.484 1082.87 959.484 1085 959.452C1111.24 959.048 1135.67 951.544 1159.16 940.267C1162.94 938.457 1162.21 936.177 1160.33 933.407C1153.66 923.493 1143.31 919.316 1132.44 916.96ZM1000.77 1126.63C994.432 1101.39 990.866 1075.68 988.161 1049.84C987.867 1046.98 987.07 1045.82 984.409 1047.14C976.393 1051.03 967.766 1052.16 959.074 1053.08C957.045 1053.3 954.853 1053.28 955.976 1056.91C958.79 1065.96 958.648 1075.75 962.302 1084.64C962.76 1098.24 967.471 1111.32 967.122 1124.99C967.122 1126.99 967.875 1129.81 964.887 1130.21C961.898 1130.62 962.106 1127.66 961.528 1125.75C957.241 1111.64 954.024 1097.25 950.85 1082.86C950.403 1076.95 950.087 1071.02 949.476 1065.14C948.385 1054.23 948.276 1054.23 937.173 1054.68C933.651 1054.8 930.128 1054.96 926.594 1054.96C924.173 1054.96 922.515 1055.38 922.831 1058.47C923.846 1068.12 923.268 1077.92 925.405 1087.46C925.498 1089.81 925.864 1092.14 926.496 1094.41C928.874 1104.33 931.557 1114.22 932.473 1124.44C932.691 1126.9 933.88 1130.7 930.848 1131.41C927.456 1132.21 927.576 1128.24 926.932 1125.89C922.679 1109.62 918.469 1093.34 914.303 1077.06C913.495 1070.7 912.612 1064.36 911.936 1057.99C911.674 1055.57 910.485 1054.72 908.282 1054.65C899.11 1054.65 890.145 1052.47 880.591 1051.49C881.283 1057.47 883.018 1063.28 885.717 1068.66C890.712 1087.47 895.794 1106.26 900.68 1125.11C903.832 1137.3 907.715 1149.43 907.944 1162.14C908.01 1165.89 908.751 1167.46 912.143 1168.68C937.741 1177.85 963.491 1177.04 989.372 1170.19C996.559 1168.79 1003.23 1165.97 1009.88 1162.98C1012.35 1161.89 1012.58 1161.13 1011.16 1158.37C1006.05 1148.43 1003.5 1137.48 1000.77 1126.63ZM673.379 1153.46C668.548 1120.45 663.563 1087.46 661.557 1054.12C661.36 1050.85 660.749 1049.14 657.052 1050.26C651.867 1051.9 646.457 1052.71 641.02 1052.67C638.086 1052.67 637.366 1054 637.846 1056.68C638.806 1062.06 639.656 1067.47 640.551 1072.86C642.808 1092.83 647.585 1112.55 647.454 1134.81C643.975 1131.11 643.79 1128.52 643.168 1126.08C638.806 1109.01 636.515 1091.54 633.189 1074.27C632.295 1068.23 631.346 1062.19 630.539 1056.14C630.244 1053.89 628.848 1053.52 627.07 1053.65C618.345 1054.32 609.751 1053.16 601.113 1052.56C598.19 1052.34 597.263 1053.16 597.841 1056.05C599.226 1062.74 600.491 1069.43 601.811 1076.13C602.171 1078.71 602.564 1081.29 602.902 1083.87C605.083 1100.65 608.758 1117.21 609.369 1134.17C609.446 1136.35 610.58 1139.71 607.613 1140.29C604.341 1140.93 604.548 1137.2 603.992 1135.19C598.474 1115.2 595.954 1094.6 591.93 1074.31C592.104 1067.34 589.639 1060.76 588.887 1053.92C588.85 1052.2 587.631 1050.72 585.942 1050.36C579.944 1048.86 573.945 1047.31 567.161 1045.58C568.939 1053.21 570.488 1059.94 572.025 1066.6C572.025 1066.83 572.135 1067.04 572.178 1067.27C575.287 1083.63 578.537 1099.85 581.46 1116.19C584.622 1133.94 589.301 1151.57 588.8 1169.73C588.647 1175.07 590.425 1175.63 594.362 1176.06C616.578 1178.52 638.489 1176.56 660.204 1171.57C666.279 1171.67 671.492 1168.54 677.109 1166.94C676.018 1163.15 674.862 1159.38 673.761 1155.58C673.588 1154.88 673.46 1154.17 673.379 1153.46ZM368.282 839.317C378.949 832.064 389.462 824.67 398.144 814.876C401.1 811.527 401.209 809.019 398.297 805.692C394.763 801.635 391.633 797.218 388.328 792.965C384.555 786.966 380.694 781.033 377.051 774.958C374.87 771.239 372.939 773.071 371.358 775.198C367.41 780.499 363.374 785.777 359.928 791.405C349.021 809.259 342.881 828.487 345.324 849.744C346.873 863.253 353.417 873.796 364.956 881.372C361.193 872.004 366.984 863.235 366.352 853.343C365.552 854.186 364.676 854.953 363.734 855.633C361.738 856.724 362.098 862.079 358.575 859.57C356.143 857.836 357.888 854.292 358.914 851.63C360.844 846.646 365.479 843.669 368.282 839.317Z" fill="#F7F6F5"/>
<path d="M1132.72 771.043C1131.05 769.876 1129.76 770.138 1128.55 771.861C1125.44 776.289 1120.98 779.659 1118.61 784.687L1107.88 798.309C1123.23 807.228 1137.75 817.522 1151.24 829.065C1156.47 834.835 1161.75 840.561 1166.89 846.396C1168.14 847.814 1169.15 849.668 1167.84 851.565C1167.47 852.1 1166.16 852.231 1165.33 852.111C1159.23 851.282 1158.08 852.732 1158.92 860.41C1177.06 854.695 1183.83 842.284 1177.91 824.223C1170.08 800.36 1152.34 784.818 1132.72 771.043ZM656.036 1348.26C656.041 1348.2 656.041 1348.15 656.036 1348.09H655.828L656.036 1348.26ZM525.823 930.692C525.095 927.985 523.379 925.651 521.014 924.148C480.927 894.876 444.398 861.022 412.167 823.274C411.407 822.396 410.718 821.458 410.106 820.471C407.39 815.312 405.613 816.108 402.908 820.82C399.723 826.339 394.99 830.712 390.289 835.064C386.526 838.554 381.335 840.517 378.892 845.381C368.247 866.453 378.815 903.742 398.709 916.099C402.744 918.607 404.511 918.28 405.962 913.274C407.532 907.821 407.739 902.28 408.056 896.663C411.829 904.396 413.084 911.932 410.444 920.2C407.456 929.536 402.984 938.108 398.589 946.746C391.14 961.415 386.101 976.597 388.915 993.349C390.006 999.653 391.805 1005.85 397.825 1009.51C402.581 1011.69 404.587 1007.12 407.14 1005.07C435.365 982.41 450.351 952.145 455.99 916.666C456.96 916.371 457.957 916.174 458.967 916.077C461.148 916.251 461.628 918.455 461.639 921.53C461.81 932.751 459.906 943.906 456.022 954.435C447.035 978.036 433.206 998.061 412.157 1012.18C406.976 1015.65 407.718 1017.26 412.233 1019.82C423.567 1026.46 437.911 1024.91 447.559 1015.99C469.961 1002.38 484.521 982.421 493.3 957.892C494.271 955.166 494.598 952.788 498.219 953.988C499.364 957.631 499.6 961.499 498.906 965.254C496.856 977.655 490.301 987.732 483.256 997.614C477.715 1005.38 470.321 1011.41 462.828 1018.51C478.021 1022.03 490.847 1018.99 502.811 1011.21C514.644 1004.8 522.279 994.462 528.277 982.792C531.549 976.411 535.912 969.933 534.2 962.298C531.822 951.676 528.561 941.249 525.823 930.692ZM816.829 522.452C818.108 524.578 819.13 526.848 819.872 529.214C822.152 536.653 821.934 544.483 821.519 552.205C820.276 552.467 819.032 552.751 817.778 553.034L790.13 559.262C802.127 562.85 814.855 565.74 826.329 570.484C826.329 585.753 825.369 600.553 824.682 615.833C829.536 617.47 834.254 619.483 838.795 621.854C846.604 596.529 849.789 560.701 834.214 537.874C829.77 531.387 823.8 526.091 816.829 522.452ZM614.918 561.563C627.352 562.839 640.418 563.199 652.6 565.74C654.291 566.089 656.297 589.156 656.657 591.774C657.344 596.758 658.49 602.037 659.198 607.261C660.289 606.585 661.38 605.974 662.47 605.396C665.203 604.056 668.079 603.032 671.043 602.342C675.231 546.218 661.325 517.086 628.606 513.389C632.79 516.25 636.17 520.137 638.422 524.677C642.097 531.843 643.34 539.946 644.387 547.93L640.865 549.555C632.234 553.554 623.585 557.557 614.918 561.563Z" fill="#F7F6F5"/>
<path d="M1216.75 556.95C1217 554.343 1217.7 551.769 1217.84 549.162C1219.92 500.65 1213.16 453.655 1194.47 408.655C1178.54 370.329 1156.1 336.672 1125.17 309.046C1079.69 268.496 1026.29 247.054 965.931 243.062C921.4 240.117 878.494 247.577 836.952 263.926C810.125 274.485 784.749 288.411 761.435 305.371C758.273 307.661 756.353 307.552 752.983 305.371C713.393 279.98 670.443 263.632 623.698 258.615C578.88 253.682 533.546 260.305 492.013 277.854C442.127 298.641 401.948 331.688 370.723 376.012C339.28 420.543 321.491 470.374 315.22 524.612C314.991 526.608 314.587 528.124 312.81 529.411C304.379 535.497 300.933 544.843 298.719 554.31C293.595 575.551 294.575 597.807 301.543 618.516C303.075 622.543 302.673 627.051 300.453 630.743C293.898 642.57 288.152 654.828 283.253 667.432C272.063 696.159 267.144 725.825 272.347 756.483C278.269 791.624 294.356 822.02 317.15 848.882C324.643 857.717 333.597 865.395 340.359 874.731C347.285 884.307 354.799 892.181 366.317 895.453C368.381 895.934 370.084 897.385 370.886 899.347C377.049 912.02 383.68 924.333 399.341 927.463C392.896 939.984 385.228 951.076 381.695 964.022C377.572 979.149 374.355 995.149 383.985 1008.85C389.875 1017.23 398.763 1024.12 407.543 1029.66C422.485 1039.11 437.427 1035.2 451.169 1025.83C454.953 1023.24 458.062 1022.93 462.13 1024.99C477.715 1032.89 492.908 1029.8 507.555 1022.26C520.643 1015.54 529.292 1004.31 536.566 991.855C537.297 990.612 537.722 988.888 539.282 988.888C541.212 988.888 540.896 990.862 541.125 992.16C548.941 1036.21 556.783 1080.29 564.65 1124.41C564.956 1126.07 565.447 1127.48 563.44 1128.65C546.284 1138.73 540.983 1155.3 539.762 1173.84C539.467 1178.46 537.984 1179.98 533.611 1180.29C518.978 1181.41 504.631 1184.94 491.152 1190.74C462.086 1203.02 436.077 1221.53 414.97 1244.98C392.361 1269.82 376.002 1298.15 370.254 1331.77C368.662 1341.02 366.229 1350.6 368.531 1360.12C372.173 1375.11 381.368 1386.49 393.441 1395.45C419.158 1414.53 449.064 1422.05 480.005 1425.58C508.962 1428.85 537.919 1428.09 566.93 1424.28C598.546 1420.24 629.471 1411.94 658.86 1399.6C662.339 1398.13 664.641 1396.07 665.611 1392.12C668.382 1380.87 673.071 1370.31 678.187 1359.4C682.713 1365.27 684.73 1371.87 687.141 1378.25C688.766 1382.52 690.533 1383.46 694.775 1380.56C706.969 1372.32 718.475 1363.32 729.141 1351.27V1366.13C729.305 1386.22 737.07 1401.03 755.928 1410.05C779.333 1421.2 804.243 1426.03 829.415 1429.79C854.806 1433.59 879.781 1429.35 904.474 1423.41C947.906 1413.22 987.893 1391.78 1020.42 1361.25C1033.74 1348.83 1043.32 1335.68 1040.4 1316.37C1040.22 1315.42 1040.22 1314.45 1040.4 1313.51C1041.7 1307.93 1041.31 1301.95 1044.01 1296.16C1050.55 1300.93 1054.27 1307.44 1059.68 1312.6C1064.13 1307.91 1067.99 1302.7 1071.18 1297.08C1079.11 1283.83 1087.36 1270.62 1088.78 1254.68C1090.96 1229.79 1084.72 1206.52 1075.13 1183.87C1069.37 1170.26 1060.95 1158.1 1054.49 1144.97C1045.95 1127.66 1034.86 1113.17 1019.03 1102.33C1016.76 1100.77 1013.92 1099.15 1013.36 1095.48C1012.47 1089.59 1010.72 1083.84 1009.76 1077.97C1002.83 1035.03 998.029 991.899 997.658 948.338C997.658 946.419 996.186 943.605 998.891 942.743C1001.17 942.013 1003.34 943.398 1005.02 945.383C1009.17 950.279 1014.21 954.349 1019.87 957.38C1029.85 962.778 1041.25 963.673 1051.68 968.166C1067.34 974.917 1084.09 972.3 1100.6 969.802C1121.42 966.696 1141.52 959.924 1159.98 949.8C1170.5 944.052 1171.98 934.324 1164.23 924.988C1161.08 921.457 1157.33 918.504 1153.16 916.262C1144.51 911.158 1134.81 909.577 1124.13 907.963C1134.72 897.602 1144.03 887.535 1150.3 875.047C1151.11 873.422 1152.49 873.269 1154.31 872.986C1176.21 869.572 1191.11 852.329 1188.43 830.876C1187.49 823.289 1185.17 815.94 1181.57 809.194C1180.35 806.882 1179.12 804.668 1182.08 802.356C1194.49 792.638 1200.85 778.787 1206.68 764.663C1218.81 735.303 1224.65 704.394 1227.16 672.929C1229.64 641.638 1229.34 610.26 1218.99 580.148C1216.27 572.153 1216.02 564.759 1216.75 556.95ZM341.265 667.552C342.148 667.963 343.011 668.418 343.849 668.915C353.393 675.252 356.043 674.368 361.791 664.389C368.858 652.086 373.406 638.453 381.553 626.729C384.356 622.694 380.168 620.981 378.281 619.367C362.652 606.334 349.368 591.01 336.051 575.741C332.985 572.136 330.117 568.368 327.457 564.453C324.665 560.451 321.786 559.24 318.732 563.842C314.369 570.31 310.301 576.93 306.113 583.474C305.022 581.925 305.753 580.049 305.851 578.228C305.297 574.256 305.632 570.21 306.833 566.384C306.953 556.884 309.614 548.312 315.907 541.07C322.647 534.668 324.054 535.093 328.995 542.586C342.988 563.821 360.122 582.416 377.823 600.466C385.25 608.035 392.983 615.31 400.574 622.715C408.568 629.325 416.846 635.618 424.503 642.609C436.314 653.395 443.785 684.217 434.984 698.144C427 710.774 413.989 716.227 399.614 711.712C378.207 705.046 358.992 692.733 343.991 676.07C341.679 673.55 340.545 671.107 341.265 667.552ZM368.28 839.318C365.477 843.68 360.842 846.603 358.9 851.631C357.875 854.292 356.13 857.837 358.562 859.571C362.085 862.079 361.725 856.735 363.721 855.633C364.663 854.953 365.539 854.186 366.338 853.343C366.971 863.235 361.18 872.004 364.942 881.373C353.425 873.826 346.881 863.283 345.311 849.744C342.868 828.487 348.975 809.259 359.915 791.405C363.361 785.778 367.396 780.499 371.345 775.198C372.926 773.017 374.813 771.239 377.038 774.958C380.68 781.033 384.541 786.956 388.315 792.965C391.587 797.219 394.75 801.69 398.283 805.693C401.196 808.965 401.086 811.528 398.131 814.876C389.46 824.67 378.946 832.065 368.28 839.318ZM528.267 982.792C522.268 994.462 514.633 1004.8 502.8 1011.21C490.803 1018.99 478.01 1022.03 462.817 1018.51C470.31 1011.41 477.704 1005.42 483.245 997.614C490.29 987.732 496.845 977.655 498.895 965.254C499.589 961.499 499.353 957.631 498.208 953.988C494.587 952.788 494.26 955.166 493.29 957.892C484.564 982.421 469.95 1002.38 447.548 1015.99C437.9 1024.91 423.556 1026.46 412.222 1019.82C407.707 1017.26 406.965 1015.65 412.146 1012.18C433.195 998.006 447.046 978.037 456.011 954.435C459.895 943.906 461.799 932.751 461.628 921.53C461.628 918.444 461.159 916.241 458.956 916.077C457.946 916.174 456.949 916.371 455.979 916.666C450.34 952.145 435.354 982.41 407.129 1005.07C404.576 1007.12 402.57 1011.68 397.815 1009.51C391.794 1005.85 389.962 999.697 388.904 993.349C386.09 976.597 391.085 961.415 398.578 946.746C402.941 938.108 407.445 929.536 410.433 920.2C413.073 911.954 411.818 904.396 408.045 896.664C407.728 902.28 407.521 907.821 405.951 913.274C404.5 918.291 402.733 918.607 398.698 916.099C378.805 903.742 368.236 866.453 378.881 845.381C381.324 840.55 386.515 838.554 390.278 835.064C394.979 830.701 399.712 826.339 402.897 820.82C405.602 816.13 407.379 815.367 410.095 820.471C410.711 821.455 411.404 822.389 412.167 823.263C444.401 860.992 480.93 894.828 521.014 924.082C523.379 925.585 525.095 927.92 525.823 930.626C528.561 941.184 531.822 951.61 534.189 962.255C535.89 969.889 531.538 976.433 528.267 982.792ZM551.17 1176.84C551.923 1171.26 554.082 1165.86 555.609 1160.38C558.237 1154.08 560.8 1147.72 567.366 1143.47C569.216 1151.14 570.359 1158.96 570.78 1166.84C570.104 1167.01 569.689 1167.27 569.286 1167.2C566.854 1166.65 564.978 1162.04 562.109 1165.55C559.503 1168.74 562.393 1171.35 564.389 1173.59C573.921 1184.26 586.889 1187.87 600.075 1188.59C631.507 1190.32 662.339 1187.11 690.773 1171.7C694.303 1169.8 697.686 1167.64 700.894 1165.23C702.715 1163.87 704.722 1161.78 703.075 1159.16C701.428 1156.54 699.225 1158.46 697.36 1159.16C695.495 1159.86 694.012 1160.76 691.754 1161.86C691.329 1155.04 690.936 1148.59 690.478 1141.23C703.86 1146.56 712.596 1156.05 719.282 1167.73C721.35 1171.47 723.038 1175.4 724.321 1179.48C730.33 1197.69 727.396 1204.93 710.884 1214.79C692.343 1225.86 671.904 1229.98 650.844 1231.62C633.125 1232.85 615.324 1231.23 598.122 1226.8C595.385 1226.14 592.669 1225.49 590.346 1223.64C575.786 1219.87 563.636 1212.47 554.54 1200.1C549.163 1192.85 550.112 1184.75 551.17 1176.84ZM609.378 1134.15C608.767 1117.19 605.07 1100.62 602.91 1083.85C602.572 1081.27 602.18 1078.69 601.82 1076.11C600.5 1069.41 599.235 1062.71 597.85 1056.03C597.261 1053.14 598.188 1052.32 601.122 1052.54C609.759 1053.18 618.386 1054.34 627.079 1053.63C628.857 1053.5 630.253 1053.87 630.547 1056.12C631.354 1062.17 632.303 1068.21 633.197 1074.25C636.469 1091.52 638.814 1108.99 643.177 1126.06C643.799 1128.48 643.984 1131.06 647.463 1134.78C647.594 1112.52 642.817 1092.81 640.559 1072.84C639.665 1067.45 638.814 1062.04 637.854 1056.66C637.375 1053.98 638.094 1052.6 641.028 1052.65C646.466 1052.69 651.876 1051.88 657.061 1050.24C660.758 1049.15 661.423 1050.83 661.565 1054.1C663.616 1087.44 668.556 1120.43 673.388 1153.43C673.473 1154.14 673.604 1154.85 673.78 1155.54C674.871 1159.33 675.962 1163.11 677.129 1166.89C671.512 1168.5 666.299 1171.63 660.224 1171.53C638.509 1176.51 616.598 1178.48 594.381 1176.02C590.444 1175.59 588.666 1175.03 588.819 1169.68C589.321 1151.53 584.642 1133.9 581.479 1116.14C578.556 1099.79 575.306 1083.53 572.198 1067.23C572.12 1067.01 572.069 1066.78 572.045 1066.55C570.507 1059.9 568.958 1053.2 567.181 1045.54C573.986 1047.27 579.963 1048.81 585.962 1050.31C587.651 1050.68 588.869 1052.15 588.906 1053.88C589.659 1060.72 592.124 1067.29 591.949 1074.26C595.974 1094.56 598.493 1115.15 604.012 1135.14C604.568 1137.16 604.361 1140.89 607.633 1140.25C610.588 1139.69 609.454 1136.33 609.378 1134.15ZM670.454 1010.67C678.154 1014.17 685.527 1017.66 693.008 1020.9C719.184 1032.23 744.945 1044.49 773.509 1049.14C797.133 1052.94 821.299 1051.57 844.346 1045.14C851.606 1043 858.67 1040.24 865.461 1036.9C869.431 1054.19 873.292 1070.87 877.076 1087.58C880.239 1101.51 883.162 1115.49 886.478 1129.37C887.361 1133.05 886.838 1135.73 884.231 1138.42C873.063 1149.95 863.509 1162.49 860.237 1178.82C859.833 1180.87 858.23 1181.22 856.671 1181.79C813.721 1197.38 786.139 1230.39 761.861 1267.16C760.977 1268.49 760.028 1269.78 757.716 1273.1C757.576 1262.83 756.425 1252.6 754.281 1242.55C751.212 1228.13 745.94 1214.27 738.652 1201.46C737.004 1198.85 735.992 1195.89 735.696 1192.82C734.18 1170.18 725.411 1151.08 708.256 1136.1C703.697 1132.12 698.723 1128.77 692.692 1128.33C688.1 1127.99 686.933 1125.62 686.235 1121.71C680.553 1089.79 675.329 1057.8 671.708 1025.58C671.185 1020.88 669.243 1016.31 670.497 1010.67H670.454ZM722.99 1332.86C715.825 1343.32 706.805 1351.95 697.186 1360.05C693.772 1362.91 691.503 1362.59 690.02 1358.13C689.249 1356.15 688.372 1354.22 687.392 1352.35C684.665 1349.07 684.687 1342.74 678.841 1343.13C672.995 1343.52 673.464 1349.6 671.697 1353.44C669.614 1357.94 666.898 1362.59 666.462 1367.35C665.088 1382.43 653.767 1386.38 642.588 1390.77C611.308 1403.05 579.156 1411.36 545.597 1414.34C524.155 1416.25 502.844 1417.25 481.489 1413.89C447.559 1410.91 415.472 1402.98 389.875 1378.24C386.352 1374.82 383.614 1370.6 380.582 1366.66C373.613 1357.64 380.331 1349.11 380.91 1338.75C390.584 1349.24 399.603 1358.13 410.084 1365.25C431.223 1379.65 455.436 1388.92 480.791 1392.31C542.478 1400.8 599.235 1387.32 651.193 1352.87C653.047 1351.64 655.556 1351 655.992 1348.26L655.817 1348.12C646.438 1349.59 638.803 1355.29 630.416 1359.03C583.039 1380.4 533.927 1390.28 482.296 1381.26C448.399 1375.34 418.242 1361.35 394.695 1334.8C388.391 1327.68 385.316 1321.54 391.554 1312.55C395.393 1307.01 397.738 1300.35 401.894 1294.86C428.538 1253.09 463.951 1221.78 509.933 1203.46C518.451 1200.06 527.252 1197.31 536.555 1196.48C540.133 1196.17 542.543 1196.89 543.939 1200.2C551.203 1217.51 566.472 1225 582.112 1231.83C592.102 1236.19 602.768 1238.37 613.348 1240.66C630.798 1242.03 648.194 1243.36 665.699 1240.85C691.198 1237.2 714.778 1229.7 732.861 1208.13C737.376 1217.63 738.543 1227.5 740.571 1237.04C741.662 1242.37 741.433 1247.95 742.229 1253.4C746.33 1281.19 730.025 1299.6 713.262 1317.67C706.456 1325 699.432 1332.25 691.132 1338.04C709.804 1332.07 721.376 1316.65 735.631 1302.6C734.126 1314.97 729.021 1324.1 723.034 1332.86H722.99ZM1059.69 1172.08C1064.86 1186.01 1069.61 1199.4 1073.34 1213.18C1074.97 1219.24 1073.55 1224.35 1071.16 1229.66C1065.04 1243.6 1057.16 1256.55 1049.66 1269.72C1048.77 1271.29 1047.16 1272.62 1048.33 1276.56C1059.33 1263.29 1067.3 1249.29 1076.18 1234.81C1079.72 1250.73 1075.9 1264.11 1067.64 1276.54C1065.82 1279.29 1063.87 1281.99 1062.03 1284.7C1059.9 1287.85 1058.48 1292.39 1055.56 1293.81C1051.99 1295.56 1049.99 1290.2 1046.9 1288.51C1040.7 1285.12 1038.5 1286.6 1034.98 1296.94C1033.89 1305.67 1032.8 1314.39 1031.81 1323.18C1031.57 1325.25 1030.17 1326.55 1029.01 1328.05C1000.66 1364.62 964.186 1389.42 921.04 1404.9C885.453 1417.69 849.123 1422.35 811.801 1415.65C793.053 1412.3 774.174 1408.8 757.127 1399.54C750.464 1395.92 742.829 1392.89 740.964 1383.97C737.692 1376.05 737.343 1373.42 738.783 1365.43C775.079 1387.91 814.964 1393.79 856.278 1389.57C913.668 1383.69 965.451 1363.74 1007.78 1322.56C1008.74 1321.52 1009.64 1320.43 1010.47 1319.29C1011.8 1318.44 1014.11 1317.46 1012.4 1315.75C1010.7 1314.05 1009.88 1316.66 1008.87 1317.73C992.26 1329.31 975.725 1341.01 957.708 1350.34C910.712 1374.66 861.229 1385.29 808.617 1377.11C786.28 1373.64 765.885 1364.55 746.908 1352.17C743.407 1349.88 742.011 1347.41 744.094 1343.45C745.73 1340.35 745.065 1336.31 747.944 1333.71C766.256 1282.36 794.984 1238.82 840.562 1208.02C842.514 1206.71 844.924 1206.06 846.8 1204.68C849.696 1202.62 853.003 1201.2 856.496 1200.52C861.949 1199.43 860.182 1205.28 861.851 1207.68C875.113 1226.77 894.341 1234.16 915.969 1237.58C926.955 1239.18 938.078 1239.63 949.157 1238.92C960.347 1236.36 971.799 1235.35 982.967 1232.23C1009.06 1224.94 1031.17 1211.19 1050.28 1192.17C1055.77 1186.93 1056.65 1179.29 1059.69 1172.08ZM1015.7 1171.78C1022.93 1167.78 1029.88 1163.18 1034.87 1156.43C1036.37 1154.44 1039.51 1151.93 1036.8 1148.96C1034.1 1146 1032.59 1150.31 1030.37 1150.76C1029.52 1151.03 1028.69 1151.35 1027.89 1151.74C1024.94 1138.43 1019.72 1125.92 1017.19 1111.05C1026.55 1118.37 1032.33 1126.88 1037.09 1135.89C1043.44 1147.88 1047.86 1160.74 1046.31 1174.82C1045.84 1179.18 1044.77 1183.28 1041.44 1186.37C1017.81 1208.28 990.122 1221.27 958.21 1224.86C945.482 1228.3 932.492 1227.83 919.732 1226.02C905.782 1224.03 892.215 1220.36 880.905 1210.75C874.862 1205.65 871.645 1199.73 871.711 1191.73C871.798 1181.13 872.91 1170.86 878.756 1161.68C878.583 1160.5 879.223 1159.35 880.316 1158.88C881.177 1156.51 881.93 1154.07 884.177 1152.56C885.104 1149.93 886.358 1146.26 888.725 1146.18C892.215 1146.06 889.881 1150.71 891.789 1152.73C893.215 1154.22 893.709 1156.37 893.076 1158.33C890.153 1158.23 888.583 1155.44 886.118 1154.61C883.937 1155.7 882.268 1157.17 883.402 1160.07C899.5 1177.64 919.492 1185.77 943.104 1186.24C968.451 1186.93 993.023 1184.31 1015.7 1171.78ZM1000.77 1126.63C1003.49 1137.48 1006.05 1148.44 1011.19 1158.41C1012.61 1161.17 1012.38 1161.9 1009.91 1163.01C1003.26 1166 996.589 1168.82 989.402 1170.22C963.521 1177.07 937.771 1177.85 912.174 1168.71C908.782 1167.49 908.04 1165.92 907.974 1162.17C907.745 1149.46 903.863 1137.34 900.711 1125.14C895.825 1106.3 890.742 1087.5 885.747 1068.69C883.048 1063.31 881.313 1057.5 880.621 1051.52C890.175 1052.56 899.162 1054.65 908.313 1054.69C910.494 1054.69 911.705 1055.6 911.966 1058.02C912.642 1064.39 913.526 1070.73 914.333 1077.09C918.528 1093.38 922.738 1109.66 926.963 1125.93C927.584 1128.27 927.486 1132.24 930.878 1131.45C933.91 1130.74 932.721 1126.93 932.503 1124.48C931.587 1114.26 928.904 1104.37 926.526 1094.44C925.894 1092.18 925.528 1089.84 925.436 1087.49C923.254 1077.95 923.876 1068.16 922.862 1058.5C922.546 1055.42 924.203 1054.99 926.625 1054.99C930.158 1054.99 933.681 1054.83 937.204 1054.71C948.307 1054.29 948.383 1054.28 949.506 1065.17C950.117 1071.06 950.433 1076.98 950.88 1082.89C954.054 1097.29 957.272 1111.67 961.558 1125.79C962.136 1127.69 961.82 1130.67 964.917 1130.25C968.015 1129.82 967.098 1126.97 967.153 1125.02C967.502 1111.32 962.79 1098.24 962.332 1084.67C958.679 1075.78 958.82 1066 956.007 1056.94C954.916 1053.31 957.097 1053.33 959.104 1053.12C967.829 1052.19 976.423 1051.07 984.44 1047.17C987.144 1045.85 987.897 1047.01 988.191 1049.88C990.863 1075.68 994.43 1101.39 1000.77 1126.63ZM1152.52 851.26C1149.18 856.364 1147.69 862.635 1142.89 866.824C1127.96 888.811 1110.51 907.777 1084.57 916.59C1082.87 922.501 1086.86 923.646 1091.12 924.224C1096.84 924.91 1102.62 923.402 1107.28 920.003C1115.43 914.147 1124.09 915.172 1132.47 916.993C1143.38 919.349 1153.69 923.537 1160.42 933.506C1162.29 936.276 1163.02 938.555 1159.25 940.366C1135.76 951.643 1111.33 959.147 1085.08 959.55C1082.9 959.55 1080.83 959.55 1078.7 959.474C1045.04 957.783 1038.14 944.957 1032.77 914.354C1031.45 906.807 1036.71 900.873 1042.29 896.086C1044.97 893.773 1047.98 891.843 1050.81 889.694C1051.53 889.247 1052.04 888.52 1052.22 887.684C1052.39 886.847 1052.21 885.977 1051.72 885.277C1050.77 883.772 1049.32 884.187 1047.95 884.819C1029.85 892.846 1021.1 901.473 1024.97 921.039C1027.15 932.186 1029.53 943.278 1033.63 954.849C1016.47 948.306 1008.38 934.858 1002.29 919.611C1001.08 916.579 1003.92 915.248 1005.35 913.721C1026.04 892.199 1046.29 870.266 1066.09 847.923C1076.6 836.013 1086.94 823.954 1097.1 811.746C1099.45 808.921 1101.08 808.638 1104.15 810.35C1120.08 819.148 1135.39 829.042 1149.96 839.961C1154.31 843.266 1155.63 846.505 1152.52 851.26ZM1158.92 860.411C1158.08 852.776 1159.23 851.282 1165.33 852.111C1166.16 852.231 1167.52 852.111 1167.84 851.565C1169.15 849.679 1168.14 847.814 1166.89 846.396C1161.75 840.561 1156.47 834.835 1151.24 829.065C1137.75 817.522 1123.23 807.228 1107.88 798.309L1118.61 784.687C1120.98 779.659 1125.44 776.289 1128.55 771.861C1129.76 770.138 1131.05 769.876 1132.72 771.043C1152.36 784.818 1170.08 800.36 1177.91 824.223C1183.83 842.284 1177.06 854.696 1158.92 860.411ZM1192.1 580.289C1186.65 620.163 1174.33 657.965 1156.77 694.174C1139.02 730.809 1115.13 762.885 1089.15 793.838C1054.37 835.162 1017.98 875.003 982.411 915.619C950.717 951.807 915.882 984.875 879.149 1015.96C857.576 1034.19 833.342 1042.21 805.879 1042.6C803.534 1042.6 801.124 1042.76 798.954 1041.51C779.497 1040 760.934 1034.55 743.331 1026.58C707.056 1010.17 671.752 991.68 636.72 972.747C606.845 956.647 577.8 939.051 549.698 920.025C504.741 889.487 464.344 853.561 426.618 814.385C399.516 786.236 376.645 755.196 360.242 719.499C356.545 711.439 353.022 703.303 348.561 693.269C357.286 698.602 364.146 702.834 371.039 706.957C382.362 713.765 394.814 718.486 407.805 720.895C417.435 722.651 426.346 718.714 433.751 712.17C435.518 710.61 437.143 708.898 438.834 707.24C443.044 699.006 447.046 690.881 447.613 681.218C448.977 658.096 436.707 641.54 421.078 627.7C398.883 608.068 377.005 588.24 357.352 566.035C347.798 555.248 339.018 543.785 329.736 532.748C327.937 530.567 328.002 528.386 328.297 526.073C330.751 506.704 334.132 487.541 341.046 469.196C346.096 449.761 354.287 431.58 363.863 414.119C385.676 374.387 414.73 341.198 452.401 316.015C481.36 296.386 514.154 283.126 548.618 277.112C598.7 268.452 647.27 273.724 694.328 292.926C710.131 298.576 724.692 306.723 739.044 315.372C743.32 317.946 743.582 319.134 739.612 322.57C716.817 342.202 695.986 363.742 679.354 389.099C678.261 390.644 677.343 392.304 676.616 394.051C676.038 395.643 673.344 397.323 675.416 398.948C677.783 400.878 679.779 398.773 681.371 397.007C697.731 379.218 713.949 361.375 732.348 345.659C773.029 310.933 818.509 285.117 870.031 271.146C904.561 261.799 939.832 258.353 975.376 262.912C1051.59 272.728 1111.41 309.81 1152.96 375.39C1172.43 406.124 1184.58 440.065 1190.69 476.176C1196.46 510.606 1196.94 545.716 1192.1 580.289Z" fill="#2C2729"/>
<path d="M767.894 341.449L767.742 341.558L767.862 341.613L767.894 341.449ZM1031.83 411.937C1026.94 398.105 1019.86 385.147 1010.86 373.558C987.201 343.194 958.746 318.535 924.064 301.684L923.606 301.51C917.171 299.034 910.747 296.493 904.279 294.093C871.931 282.096 840.204 280.929 809.917 300.234C795.411 309.482 782.127 320.007 777.198 337.839C774.831 346.4 778.288 352.323 786.784 354.286C791.616 355.377 796.6 355.987 801.268 357.558C827.635 366.413 853.24 377.392 877.831 390.386C909.983 407.466 936.181 432.071 961.309 457.875C969.151 465.935 976.916 473.679 986.732 479.056C1008.81 491.151 1030.66 480.517 1035.21 455.683C1037.77 441.646 1035.78 428.013 1032.48 414.468C1032.26 413.661 1032.05 412.788 1031.83 411.937ZM1025.67 455.836C1023.49 469.338 1014.26 475.969 1003.23 473.744C993.287 472.948 985.783 467.386 978.607 461.049C965.715 449.619 955.332 435.757 943.15 423.618C928.077 408.578 912.23 394.596 894.42 382.959L865.823 367.504C844.414 357.591 822.732 348.495 799.294 344.819C797.215 344.357 795.072 344.25 792.957 344.503C785.257 346.041 786.544 341.394 788.322 337.326C790.209 333.04 792.39 328.743 796.262 325.744C810.059 310.606 824.848 297.267 847.173 298.478C876.937 300.103 904.367 309.689 930.564 323.486C960.011 338.984 984.889 360.448 1006.69 385.206C1024.14 405.023 1029.97 429.54 1025.67 455.836ZM388.383 675.677C395.134 675.677 399.638 671.642 399.562 665.545C399.369 659.355 394.324 654.421 388.132 654.366C382.406 654.366 378.84 658.118 378.665 664.4C378.48 671.467 382.068 675.633 388.383 675.677ZM414.471 684.446C420.698 684.599 424.745 681.076 424.821 675.448C424.919 669.504 419.662 663.822 413.915 663.658C408.461 663.495 404.099 667.944 403.783 674.128C403.466 680.312 407.589 684.293 414.471 684.446ZM393.672 681.959C388.775 682.701 384.784 685.111 384.838 691.142C384.838 696.923 390.106 702.78 395.33 702.343C400.554 701.907 403.804 698.777 404.121 694.273C403.99 687.194 398.733 681.152 393.672 681.959Z" fill="#2C2729"/>
<path d="M972.194 360.666C955.095 344.701 934.732 332.64 912.514 325.318C907.388 323.573 903.178 324.566 899.502 328.056C891.65 335.516 883.808 342.997 876.261 350.774C870.109 357.121 871.276 361.026 879.532 363.862C898.51 370.405 914.989 380.897 928.415 396.079L928.492 396.145C930.433 397.824 932.451 399.417 934.272 401.216C938.874 405.753 942.615 406.059 947.098 400.453C951.93 394.4 957.743 389.154 963.163 383.591L963.654 383.09C966.577 379.719 969.26 376.099 972.455 373.045C977.102 368.628 976.862 365.039 972.194 360.666ZM1000.75 436.139L1000.08 436.498C995.13 439.181 992.207 443.38 993.658 449.128C995.108 454.876 998.304 459.871 1005.23 459.402C1005.63 459.383 1006.03 459.342 1006.43 459.282C1017.23 453.436 1019.08 448.539 1013.44 440.741C1010.24 436.302 1005.41 436.444 1000.75 436.139ZM992.011 420.521C992.005 420.582 992.005 420.644 992.011 420.706C992.36 425.723 995.632 428.777 999.209 431.612L999.394 431.765C1007.3 432.147 1013.2 427.315 1013.45 420.237C1013.66 414.784 1008.6 409.254 1002.94 408.665C996.875 408.033 992.916 412.275 992.011 420.521ZM845.69 306.232C840.662 306.308 836.583 309.384 834.991 314.75V314.87C836.419 320.225 837.826 325.863 844.73 326.071C851.089 326.245 854.415 322.264 855.746 316.331V316.179C854.197 311.009 851.568 306.156 845.69 306.232ZM873.807 324.816C871.505 320.999 868.015 319.505 863.456 320.268C859.955 320.857 858.276 323.54 857.48 326.594C856.313 331.011 858.81 333.498 862.06 335.417L863.151 336.017C872.476 335.701 873.643 334.654 874.45 325.885C874.221 325.504 874.014 325.165 873.807 324.816ZM978.988 424.839C973.306 425.003 967.995 430.238 967.973 435.746C967.973 441.646 974.037 447.503 979.97 447.307C985.358 447.132 991.127 440.861 990.964 435.31C990.833 429.464 985.325 424.665 978.988 424.839ZM843.847 330.106C838.601 330.215 834.663 332.418 834.184 338.177C833.769 343.107 839.419 349.16 844.152 349.41C848.667 349.64 852.943 345.277 852.964 340.391C853.008 334.403 849.191 329.986 843.847 330.106ZM850.074 754.138C844.501 738.869 826.789 725.225 810.811 724.167C799.076 723.393 789.107 727.679 780.895 736.164C779.324 737.778 779.16 739.381 780.24 740.723C781.32 742.064 782.825 742.304 784.81 741.039C789.94 737.901 795.642 735.811 801.584 734.888C807.418 733.753 813.45 734.228 819.034 736.262C818.675 737.887 817.246 738.443 816.188 739.338C797.134 755.108 775.409 765.513 751.84 772.363C732.327 778.116 712.247 781.733 691.953 783.149C679.963 783.851 667.934 783.417 656.027 781.851C642.699 780.204 629.437 778.154 616.589 774.009C606.228 770.672 596.379 766.266 587.851 759.264C587.358 758.847 586.825 758.481 586.258 758.173C584.876 757.285 583.053 757.535 581.961 758.762C580.952 759.883 580.801 761.534 581.59 762.819C582.116 763.727 582.734 764.579 583.433 765.361C591.068 774.958 601.287 780.957 612.303 785.734C615.051 786.923 617.854 787.98 620.624 789.093C628.259 791.111 635.893 793.216 643.768 794.71C663.874 798.717 684.488 799.516 704.844 797.077C731.707 793.685 757.533 786.748 781.898 774.773C794.849 768.406 806.709 760.028 817.039 749.95C819.825 747.336 822.3 744.408 824.411 741.225C825.317 739.807 826.124 739.48 827.552 740.472C830.115 742.261 832.864 743.744 834.947 746.187C840.062 749.982 843.814 755.054 847.555 760.125C848.087 760.735 848.409 761.5 848.471 762.307C848.471 763.212 848.875 763.866 849.867 763.779C850.676 763.676 851.327 763.064 851.481 762.263C851.836 760.986 851.836 759.636 851.481 758.359C851.088 756.927 850.618 755.519 850.074 754.138ZM855.506 633.654C853.946 632.182 852.234 630.808 850.587 629.488C860.61 599.757 864.482 558.16 845.45 530.239C833.213 512.32 812.731 502.199 793.099 504.478C789.797 504.869 786.544 505.6 783.392 506.66C776.109 509.37 769.395 513.417 763.597 518.591C762.386 519.682 761.209 520.86 760.096 522.049C757.926 524.305 755.921 526.714 754.098 529.258H754.185C751.674 532.752 749.456 536.447 747.554 540.306C745.141 545.183 743.332 550.336 742.166 555.651H742.046C737.498 574.879 739.428 599.506 741.021 619.607C741.173 621.57 741.326 623.457 741.468 625.278C737.334 628.365 733.719 632.091 730.758 636.315C741.407 630.394 753.07 626.517 765.146 624.886C776.871 623.241 788.754 623.051 800.526 624.318C812.329 625.49 823.957 628.026 835.176 631.877C846.421 635.803 857.185 641.092 866.99 649.327C864.227 643.4 860.325 638.074 855.506 633.654ZM838.797 621.854C834.256 619.483 829.538 617.47 824.684 615.833C825.371 600.564 826.276 585.71 826.331 570.484C814.857 565.74 802.108 562.85 790.132 559.261L817.78 553.034C819.034 552.75 820.278 552.467 821.521 552.205C821.936 544.57 822.154 536.652 819.874 529.214C819.132 526.848 818.11 524.578 816.831 522.452C823.805 526.097 829.775 531.4 834.216 537.896C849.791 560.701 846.606 596.529 838.797 621.854ZM562.951 656.46C569.168 650.363 574.948 645.237 581.492 641.376C587.862 637.52 594.688 634.472 601.811 632.302C609.102 630.104 616.567 628.527 624.125 627.59C627.975 627.089 631.902 626.74 635.872 626.5C637.9 626.347 639.896 626.347 641.957 626.303H643.343C642.257 629.181 641.567 632.194 641.292 635.258C640.722 641.359 641.736 647.505 644.237 653.101C646.525 658.446 650.337 662.998 655.198 666.188C652.73 661.603 651.15 656.593 650.541 651.421C649.974 646.669 650.345 641.852 651.631 637.243C652.877 632.946 655.047 628.974 657.99 625.605C660.892 622.263 664.434 619.533 668.406 617.578C670.355 616.598 672.407 615.837 674.524 615.31C676.602 614.726 678.746 614.415 680.904 614.383C685.444 614.298 689.957 615.102 694.188 616.749C702.913 620.108 711.072 626.467 714.016 637.373C715.412 631.59 714.558 625.493 711.628 620.316C708.629 614.943 704.274 610.449 698.998 607.283C696.353 605.65 693.523 604.339 690.567 603.378C689.065 602.874 687.531 602.469 685.976 602.167C685.507 602.091 685.027 602.004 684.547 601.949C688.91 538.768 670.489 504.478 629.786 500.039C621.258 499.138 612.636 500.182 604.57 503.093C603.185 503.595 601.822 504.184 600.469 504.74C589.639 508.896 580.427 516.415 574.185 526.193C572.822 528.138 571.559 530.151 570.4 532.224C565.503 541.403 562.367 551.416 561.152 561.748H561.261C560.567 568.229 560.545 574.764 561.195 581.249C562.951 599.375 569.146 616.389 575.788 632.116C575.439 632.465 575.079 632.771 574.763 633.12C568.382 639.401 564.233 647.598 562.951 656.46ZM640.889 549.576L644.411 547.951C643.321 539.99 642.121 531.864 638.445 524.699C636.194 520.158 632.814 516.271 628.63 513.411C661.349 517.108 675.255 546.239 671.067 602.364C668.103 603.053 665.227 604.078 662.494 605.418C661.404 605.996 660.313 606.606 659.222 607.283C658.513 602.058 657.368 596.78 656.681 591.795C656.321 589.178 654.314 566.111 652.624 565.762C640.441 563.22 627.375 562.861 614.942 561.584C623.602 557.578 632.251 553.568 640.889 549.555V549.576Z" fill="#2C2729"/>
</g>
<mask id="mask1_1_2857" style="mask-type:luminance" maskUnits="userSpaceOnUse" x="144" y="955" width="213" height="197">
<path d="M204.722 955.365L144.107 1032.81L295.493 1151.3L356.108 1073.86L204.722 955.365Z" fill="white"/>
</mask>
<g mask="url(#mask1_1_2857)">
<path d="M186.796 982.703C182.189 985.694 178.121 989.441 174.763 993.788C158.269 1015.1 161.988 1045.98 183.054 1062.62L220.198 1091.97L257.342 1121.32C278.409 1137.97 308.966 1134.18 325.462 1112.87C328.837 1108.51 331.456 1103.62 333.209 1098.4C339.821 1078.69 333.376 1056.85 317.173 1044.05L280.028 1014.7L242.884 985.346C226.688 972.531 204.125 971.468 186.796 982.703Z" fill="#2C2729"/>
<path d="M203.99 1035.56C189.227 1023.89 184.085 1004.41 189.786 987.421C185.701 990.068 182.094 993.388 179.117 997.239C164.484 1016.14 167.771 1043.44 186.46 1058.2L223.605 1087.55L241.134 1064.91L203.99 1035.56Z" fill="#E6639A"/>
<path d="M241.2 1064.82L223.672 1087.47L260.818 1116.82C279.507 1131.59 306.518 1128.23 321.15 1109.33C324.139 1105.47 326.459 1101.13 328.011 1096.5C333.705 1079.51 328.57 1060.03 313.807 1048.37L276.662 1019.02L241.2 1064.82Z" fill="#2C2729"/>
<path d="M203.99 1035.56L241.134 1064.91L276.593 1019.1L239.446 989.749C224.684 978.082 204.73 977.734 189.784 987.419C184.085 1004.41 189.227 1023.89 203.99 1035.56Z" fill="#F08CB6"/>
</g>
<mask id="mask2_1_2857" style="mask-type:luminance" maskUnits="userSpaceOnUse" x="757" y="0" width="195" height="201">
<path d="M951.736 38.6009L798.864 0L757.875 162.331L910.747 200.932L951.736 38.6009Z" fill="white"/>
</mask>
<g mask="url(#mask2_1_2857)">
<path d="M903.607 34.5845C900.808 33.4773 897.916 32.9733 894.939 32.8706C889.415 32.6867 883.98 33.4273 878.617 34.7308C872.514 36.2175 866.589 38.2861 860.817 40.7666C848.116 46.2301 836.267 53.2179 825.044 61.3149C823.791 62.2184 822.558 63.1491 821.346 64.1071C820.826 64.5157 820.945 65.1439 821.552 65.3842C824.301 66.4772 827.05 67.5735 829.808 68.6449C838.601 72.0586 847.119 76.1469 855.747 79.9652C862.168 82.8069 868.516 85.8107 874.903 88.726C877.299 89.8185 879.728 90.8355 882.115 91.9447C883.571 92.6211 884.64 92.4747 885.882 91.2356C893.27 83.8669 899.866 75.8804 904.949 67.3141C907.161 63.5105 908.82 60.0056 910.097 56.3297C911.307 52.8461 912.029 49.2738 911.752 45.5634C911.347 40.1587 908.594 36.556 903.607 34.5845ZM793.98 139.994C800.402 139.938 806.645 138.638 812.779 136.8C822.082 134.011 830.973 130.194 839.547 125.581C847.993 121.018 856.103 115.859 863.817 110.144C864.414 109.704 865.205 109.41 865.347 108.518C865.197 108.357 865.077 108.134 864.896 108.052C858.319 105.3 851.73 102.579 845.157 99.821C831.289 94.0005 817.484 88.0376 804.006 81.3389C802.74 80.7121 802.342 80.7748 801.363 81.6971C800.961 82.0706 800.601 82.4989 800.221 82.9015C794.289 89.183 788.827 95.8304 784.146 103.137C781.169 107.817 778.783 112.846 777.041 118.111C776.128 120.834 775.592 123.684 775.667 126.606C775.815 132.5 778.525 136.416 783.943 138.531C787.177 139.794 790.571 140.024 793.98 139.994Z" fill="white"/>
<path d="M895.458 93.2757C895.095 93.524 894.767 93.821 894.485 94.1585C886.858 102.663 878.352 110.196 869.308 117.11C856.886 126.614 843.557 134.545 829.216 140.701C820.073 144.621 810.643 147.566 800.719 148.65C800.393 148.686 800.07 148.715 799.742 148.759C798.992 148.856 798.565 149.294 798.467 150.047C798.139 152.485 798.01 154.947 798.836 157.285C800.052 160.721 802.048 163.579 805.545 165.003C807.264 165.728 809.068 166.232 810.914 166.503C814.289 166.945 817.705 166.981 821.089 166.612C829.35 165.746 837.239 163.374 844.96 160.39C859.01 154.962 871.925 147.414 884.165 138.646C886.347 137.082 888.181 135.195 889.524 132.848C890.239 131.604 890.931 130.335 891.633 129.079C895.413 122.622 896.899 117.766 898.036 110.342C898.813 105.263 898.716 100.18 897.114 95.2307C896.903 94.6125 896.635 94.0151 896.314 93.4459C896.141 93.1157 895.727 93.1062 895.458 93.2757Z" fill="white"/>
<path d="M902.512 26.2518C898.956 25.3981 895.363 25.1399 891.731 25.2438C882.515 25.5094 873.682 27.8357 865.072 30.9405C853.976 34.9675 843.36 40.2095 833.417 46.5709C816.962 57.0555 801.846 69.1822 789.036 84.063C781.867 92.394 775.453 101.254 771.294 111.575C769.203 116.769 767.825 122.117 767.987 127.744C768.129 132.867 769.548 137.554 773.113 141.399C774.228 142.613 775.281 143.882 776.268 145.203C781.311 151.884 786.525 158.423 791.991 164.757C794.237 167.358 796.914 169.452 799.573 171.563C800.495 172.299 801.663 172.766 802.771 173.229C807.607 175.253 812.694 175.928 817.896 175.843C826.665 175.698 835.108 173.699 843.356 170.842C852.53 167.663 861.275 163.475 869.719 158.655C886.488 149.082 901.628 137.362 914.983 123.32C922.173 115.761 928.637 107.632 933.726 98.4543C934.321 97.3904 934.941 96.3393 935.504 95.2627C937.926 90.6274 939.957 85.8266 940.983 80.6788C942.108 75.0384 942.242 69.4247 939.636 64.1053C938.229 61.2397 936.797 58.3915 934.599 56.0005C933.108 54.3831 931.854 52.5597 930.462 50.8547C925.521 44.8002 920.593 38.7362 914.974 33.2891C911.416 29.8519 907.353 27.4141 902.512 26.2518ZM775.668 126.606C775.593 123.685 776.129 120.835 777.042 118.112C778.784 112.847 781.17 107.817 784.147 103.138C788.828 95.831 794.29 89.1836 800.222 82.902C800.602 82.4995 800.961 82.0756 801.364 81.6976C802.343 80.7754 802.747 80.7142 804.007 81.3395C817.484 88.0378 831.289 94.0007 845.156 99.8212C851.73 102.58 858.319 105.301 864.896 108.052C865.078 108.128 865.197 108.357 865.346 108.519C865.205 109.41 864.413 109.707 863.817 110.144C856.103 115.859 847.992 121.018 839.546 125.582C830.973 130.19 822.083 134.007 812.779 136.796C806.645 138.634 800.402 139.934 793.981 139.99C790.572 140.02 787.178 139.79 783.945 138.527C778.526 136.417 775.816 132.499 775.668 126.606ZM896.319 93.4423C896.64 94.0114 896.907 94.6088 897.119 95.227C898.719 100.174 898.818 105.258 898.04 110.338C896.903 117.763 895.414 122.618 891.638 129.075C890.936 130.332 890.245 131.596 889.529 132.845C888.182 135.195 886.349 137.076 884.167 138.642C871.918 147.415 859.003 154.96 844.953 160.389C837.235 163.373 829.343 165.744 821.082 166.61C817.699 166.98 814.283 166.943 810.909 166.501C809.063 166.23 807.259 165.727 805.54 165.002C802.042 163.577 800.046 160.719 798.831 157.283C797.997 154.944 798.134 152.484 798.462 150.045C798.563 149.294 798.99 148.855 799.736 148.757C800.064 148.714 800.388 148.685 800.714 148.648C810.644 147.566 820.074 144.621 829.217 140.701C843.557 134.545 856.886 126.614 869.308 117.11C878.354 110.192 886.856 102.658 894.487 94.1541C894.769 93.8166 895.096 93.5195 895.46 93.2713C895.728 93.1063 896.142 93.1158 896.319 93.4423ZM911.757 45.5651C912.034 49.2755 911.313 52.8478 910.102 56.3314C908.826 60.0073 907.167 63.5122 904.954 67.3158C899.871 75.8821 893.275 83.8686 885.888 91.2373C884.646 92.4764 883.577 92.6228 882.12 91.9464C879.733 90.8372 877.304 89.8202 874.908 88.7277C868.522 85.8124 862.167 82.8071 855.752 79.967C847.125 76.1486 838.614 72.0622 829.813 68.6466C827.056 67.5752 824.306 66.4789 821.557 65.386C820.95 65.1456 820.827 64.5162 821.351 64.1088C822.567 63.1558 823.8 62.2251 825.049 61.3166C836.274 53.22 848.122 46.2288 860.821 40.7728C866.594 38.2922 872.518 36.2237 878.622 34.7369C883.984 33.432 889.426 32.6944 894.943 32.8768C897.925 32.9761 900.806 33.4772 903.612 34.5907C908.593 36.5562 911.346 40.1589 911.757 45.5651Z" fill="#2C2729"/>
</g>
<mask id="mask3_1_2857" style="mask-type:luminance" maskUnits="userSpaceOnUse" x="5" y="505" width="215" height="225">
<path d="M121.589 505.525L5.82471 582.953L103.803 729.443L219.567 652.016L121.589 505.525Z" fill="white"/>
</mask>
<g mask="url(#mask3_1_2857)">
<path d="M162.942 567.515C161.304 565.356 159.458 566.452 157.472 567.131C150.987 569.349 144.444 571.354 137.76 572.931C124.093 576.158 111.304 574.204 99.2422 567.016C90.3144 561.713 82.0813 555.319 74.7327 547.982C73.0299 546.282 71.4211 544.483 69.7072 542.792C68.8618 541.959 67.8193 541.643 66.5812 542.413C65.0404 543.858 65.4057 545.761 65.8998 547.519C67.906 554.651 68.9797 562.003 71.3218 569.061C76.4906 584.661 77.5087 600.621 74.8597 616.816C73.2628 626.576 69.1845 635.187 62.5169 642.509C60.2805 644.976 57.8337 647.254 55.5852 649.712C54.2139 651.212 52.7208 652.833 54.1744 655.096C55.5881 657.297 57.5529 656.838 59.6051 656.179C78.4678 650.115 96.1987 653.518 113.238 662.615C126.329 669.601 137.399 679.028 146.75 690.516C147.807 691.805 148.797 693.19 150.04 694.273C151.538 695.574 153.565 695.905 155.233 694.939C157.096 693.86 156.2 692.008 155.64 690.445C155.204 689.227 154.717 688.025 154.212 686.831C151.837 681.203 149.307 675.633 147.087 669.942C138.816 648.749 137.688 627.416 146.083 605.94C150.537 594.54 154.998 583.149 162.168 573.08C163.389 571.367 164.491 569.563 162.942 567.515ZM150.793 578.062C146.971 585.261 143.735 592.715 140.646 600.248C131.03 623.684 131.4 647.093 140.667 670.511C141.28 672.058 141.812 673.632 142.383 675.194C142.519 675.289 142.64 675.405 142.741 675.537C142.901 675.803 142.947 676.087 142.742 676.257C142.319 676.61 142.052 676.507 141.853 676.247C141.756 676.069 141.668 675.885 141.592 675.697C133.208 668.101 124.238 661.341 114.091 656.237C99.69 648.992 84.6795 645.331 68.5099 648.421C67.787 648.561 67.0562 648.787 66.5161 648.023C66.5015 647.874 66.4134 647.655 66.4845 647.578C78.003 634.724 81.6588 619.224 81.9258 602.48C82.1502 588.41 78.9541 575.004 74.6857 561.762C74.2892 560.533 73.9155 559.295 73.5333 558.064C73.1217 557.562 72.4771 557.066 73.3477 556.499C73.4497 556.431 74.0462 557.122 74.4132 557.462C79.9137 561.824 85.3991 566.193 91.2699 570.075C107.424 580.76 124.618 583.543 143.116 577.277C145.912 576.329 148.75 575.514 151.579 574.635C152.686 576.081 151.327 577.056 150.793 578.062Z" fill="#2C2729"/>
<path d="M151.571 574.637C148.743 575.516 145.903 576.331 143.108 577.278C124.617 583.54 107.423 580.757 91.2622 570.076C85.3914 566.195 79.9114 561.822 74.4055 557.463C74.0394 557.125 73.4429 556.434 73.34 556.501C72.4726 557.063 73.1185 557.57 73.5256 558.065C73.9096 559.299 74.2833 560.538 74.678 561.764C78.9464 575.006 82.1425 588.411 81.9181 602.482C81.6511 619.225 77.9953 634.726 66.4768 647.58C66.4057 647.656 66.4938 647.875 66.5084 648.025C67.0485 648.789 67.7793 648.562 68.5022 648.423C84.6804 645.331 99.6908 648.992 114.089 656.236C124.21 661.321 133.172 668.069 141.537 675.649C141.605 675.817 141.684 675.981 141.776 676.138L141.939 675.613L142.613 675.357C142.536 675.265 142.45 675.181 142.355 675.107C141.797 673.576 141.271 672.033 140.671 670.518C131.401 647.092 131.031 623.684 140.645 600.249C143.736 592.715 146.972 585.261 150.794 578.062C151.327 577.056 152.687 576.081 151.571 574.637Z" fill="white"/>
<path d="M141.778 676.135C141.985 676.467 142.264 676.653 142.743 676.254C142.993 676.046 142.871 675.657 142.611 675.347L141.937 675.603L141.778 676.135Z" fill="white"/>
</g>
<mask id="mask4_1_2857" style="mask-type:luminance" maskUnits="userSpaceOnUse" x="0" y="251" width="355" height="373">
<path d="M194.002 251.179L0 378.129L160.645 623.622L354.647 496.672L194.002 251.179Z" fill="white"/>
</mask>
<g mask="url(#mask4_1_2857)">
<path d="M261.804 355.061C259.112 351.44 256.022 353.234 252.704 354.332C241.872 357.914 230.947 361.142 219.794 363.655C196.988 368.799 175.733 365.332 155.775 353.165C141.002 344.187 127.404 333.406 115.294 321.069C112.488 318.21 109.84 315.19 107.015 312.347C105.622 310.944 103.892 310.402 101.818 311.663C99.2288 314.042 99.805 317.216 100.598 320.151C103.818 332.056 105.482 344.313 109.263 356.102C117.606 382.155 119.034 408.74 114.353 435.655C111.531 451.876 104.598 466.141 93.3763 478.218C89.6122 482.288 85.5011 486.038 81.717 490.092C79.409 492.567 76.8965 495.239 79.2784 499.031C81.5947 502.719 84.873 501.987 88.3004 500.924C119.801 491.147 149.26 497.107 177.472 512.537C199.147 524.385 217.417 540.263 232.791 559.543C234.528 561.707 236.153 564.028 238.204 565.851C240.675 568.042 244.044 568.627 246.837 567.046C249.957 565.282 248.496 562.185 247.59 559.574C246.885 557.538 246.094 555.529 245.274 553.534C241.414 544.124 237.296 534.81 233.695 525.301C220.282 489.884 218.762 454.352 233.096 418.742C240.7 399.841 248.317 380.954 260.421 364.312C262.483 361.482 264.347 358.497 261.804 355.061ZM241.402 372.416C234.92 384.335 229.408 396.69 224.14 409.177C207.74 448.028 207.965 487.001 222.999 526.139C223.994 528.725 224.853 531.354 225.776 533.963C226.002 534.124 226.201 534.319 226.367 534.541C226.629 534.986 226.701 535.46 226.357 535.74C225.647 536.32 225.204 536.144 224.878 535.708C224.718 535.41 224.576 535.103 224.452 534.788C210.623 522.004 195.805 510.6 178.998 501.933C155.147 489.633 130.222 483.287 103.253 488.16C102.048 488.38 100.827 488.745 99.9411 487.464C99.9194 487.215 99.7764 486.849 99.896 486.722C119.285 465.518 125.631 439.777 126.355 411.909C126.964 388.491 121.869 366.123 114.985 344.008C114.345 341.955 113.744 339.887 113.128 337.832C112.452 336.989 111.387 336.153 112.846 335.224C113.017 335.112 113.998 336.273 114.603 336.844C123.687 344.198 132.745 351.563 142.452 358.123C169.164 376.18 197.74 381.101 228.637 370.98C233.306 369.448 238.045 368.14 242.768 366.724C244.587 369.149 242.308 370.75 241.402 372.416Z" fill="#2C2729"/>
<path d="M242.753 366.727C238.03 368.143 233.289 369.453 228.62 370.981C197.736 381.097 169.16 376.176 142.437 358.126C132.729 351.566 123.68 344.195 114.588 336.847C113.984 336.278 113.003 335.117 112.831 335.227C111.377 336.149 112.444 337.003 113.113 337.835C113.732 339.895 114.333 341.963 114.97 344.011C121.853 366.126 126.949 388.494 126.34 411.912C125.615 439.78 119.27 465.521 99.8808 486.725C99.7612 486.852 99.9042 487.218 99.926 487.467C100.812 488.748 102.033 488.383 103.238 488.163C130.221 483.287 155.146 489.633 178.993 501.932C195.756 510.566 210.562 521.95 224.359 534.707C224.469 534.989 224.599 535.263 224.748 535.526L225.029 534.654L226.155 534.239C226.028 534.084 225.886 533.944 225.73 533.82C224.827 531.261 223.976 528.684 223.004 526.152C207.964 487.001 207.739 448.028 224.137 409.179C229.407 396.69 234.919 384.335 241.401 372.416C242.307 370.75 244.586 369.149 242.753 366.727Z" fill="white"/>
<path d="M224.755 535.522C225.093 536.078 225.556 536.392 226.36 535.734C226.779 535.393 226.582 534.744 226.155 534.223L225.029 534.639L224.755 535.522Z" fill="white"/>
</g>
</svg>
